G04 #@! TF.GenerationSoftware,KiCad,Pcbnew,9.0.4*
G04 #@! TF.CreationDate,2026-04-13T19:59:59-04:00*
G04 #@! TF.ProjectId,Analog_Sandbox_PCB,416e616c-6f67-45f5-9361-6e64626f785f,rev?*
G04 #@! TF.SameCoordinates,Original*
G04 #@! TF.FileFunction,Copper,L2,Bot*
G04 #@! TF.FilePolarity,Positive*
%FSLAX46Y46*%
G04 Gerber Fmt 4.6, Leading zero omitted, Abs format (unit mm)*
G04 Created by KiCad (PCBNEW 9.0.4) date 2026-04-13 19:59:59*
%MOMM*%
%LPD*%
G01*
G04 APERTURE LIST*
G04 Aperture macros list*
%AMRoundRect*
0 Rectangle with rounded corners*
0 $1 Rounding radius*
0 $2 $3 $4 $5 $6 $7 $8 $9 X,Y pos of 4 corners*
0 Add a 4 corners polygon primitive as box body*
4,1,4,$2,$3,$4,$5,$6,$7,$8,$9,$2,$3,0*
0 Add four circle primitives for the rounded corners*
1,1,$1+$1,$2,$3*
1,1,$1+$1,$4,$5*
1,1,$1+$1,$6,$7*
1,1,$1+$1,$8,$9*
0 Add four rect primitives between the rounded corners*
20,1,$1+$1,$2,$3,$4,$5,0*
20,1,$1+$1,$4,$5,$6,$7,0*
20,1,$1+$1,$6,$7,$8,$9,0*
20,1,$1+$1,$8,$9,$2,$3,0*%
G04 Aperture macros list end*
G04 #@! TA.AperFunction,ComponentPad*
%ADD10RoundRect,0.250000X-0.550000X-0.550000X0.550000X-0.550000X0.550000X0.550000X-0.550000X0.550000X0*%
G04 #@! TD*
G04 #@! TA.AperFunction,ComponentPad*
%ADD11C,1.600000*%
G04 #@! TD*
G04 #@! TA.AperFunction,ComponentPad*
%ADD12C,3.400000*%
G04 #@! TD*
G04 #@! TA.AperFunction,ComponentPad*
%ADD13R,1.700000X1.700000*%
G04 #@! TD*
G04 #@! TA.AperFunction,ComponentPad*
%ADD14C,1.700000*%
G04 #@! TD*
G04 #@! TA.AperFunction,ComponentPad*
%ADD15R,1.346200X1.346200*%
G04 #@! TD*
G04 #@! TA.AperFunction,ComponentPad*
%ADD16C,1.346200*%
G04 #@! TD*
G04 #@! TA.AperFunction,ComponentPad*
%ADD17RoundRect,0.250000X-0.550000X0.550000X-0.550000X-0.550000X0.550000X-0.550000X0.550000X0.550000X0*%
G04 #@! TD*
G04 #@! TA.AperFunction,ComponentPad*
%ADD18RoundRect,0.250000X0.550000X0.550000X-0.550000X0.550000X-0.550000X-0.550000X0.550000X-0.550000X0*%
G04 #@! TD*
G04 #@! TA.AperFunction,SMDPad,CuDef*
%ADD19R,3.600000X2.600000*%
G04 #@! TD*
G04 #@! TA.AperFunction,ViaPad*
%ADD20C,0.600000*%
G04 #@! TD*
G04 #@! TA.AperFunction,Conductor*
%ADD21C,3.000000*%
G04 #@! TD*
G04 #@! TA.AperFunction,Conductor*
%ADD22C,0.200000*%
G04 #@! TD*
G04 APERTURE END LIST*
D10*
X203750500Y-71386500D03*
D11*
X211370500Y-71386500D03*
D12*
X221742000Y-124968000D03*
X166878000Y-66167000D03*
D13*
X174459900Y-81305400D03*
D14*
X174459900Y-83845400D03*
X174459900Y-86385400D03*
D12*
X236220000Y-140081000D03*
D10*
X177678000Y-127000000D03*
D11*
X177678000Y-129540000D03*
X177678000Y-132080000D03*
X177678000Y-134620000D03*
X185298000Y-134620000D03*
X185298000Y-132080000D03*
X185298000Y-129540000D03*
X185298000Y-127000000D03*
D12*
X117348000Y-69469000D03*
X121031000Y-88392000D03*
D10*
X131699000Y-112395000D03*
D11*
X139319000Y-112395000D03*
D10*
X230039500Y-71259500D03*
D11*
X237659500Y-71259500D03*
D15*
X116560600Y-129667000D03*
D16*
X119100600Y-132207000D03*
X116560600Y-134747000D03*
D12*
X110236000Y-98679000D03*
X66421000Y-67437000D03*
D15*
X221742000Y-131572000D03*
D16*
X224282000Y-134112000D03*
X221742000Y-136652000D03*
D10*
X126285156Y-88429900D03*
D11*
X133905156Y-88429900D03*
D15*
X138006500Y-145542000D03*
D16*
X135466500Y-148082000D03*
X132926500Y-145542000D03*
D15*
X99822000Y-120421400D03*
D16*
X102362000Y-117881400D03*
X104902000Y-120421400D03*
D12*
X193167000Y-97409000D03*
X88900000Y-73787000D03*
X96139000Y-145796000D03*
X220218000Y-76962000D03*
X241427000Y-96647000D03*
D10*
X207179500Y-96659500D03*
D11*
X214799500Y-96659500D03*
D12*
X241427000Y-75311000D03*
X121031000Y-78359000D03*
X173990000Y-137795000D03*
D10*
X179963400Y-97700900D03*
D11*
X187583400Y-97700900D03*
D10*
X208280000Y-124968000D03*
D11*
X215900000Y-124968000D03*
D10*
X156722400Y-72427900D03*
D11*
X164342400Y-72427900D03*
D15*
X241427000Y-86360000D03*
D16*
X238887000Y-83820000D03*
X241427000Y-81280000D03*
D12*
X92710000Y-94107000D03*
X92456000Y-115570000D03*
X196850000Y-127127000D03*
D10*
X56769000Y-73660000D03*
D11*
X64389000Y-73660000D03*
D10*
X159681500Y-121805500D03*
D11*
X167301500Y-121805500D03*
D15*
X192532000Y-136779000D03*
D16*
X189992000Y-134239000D03*
X192532000Y-131699000D03*
D12*
X88900000Y-67437000D03*
D10*
X105668656Y-69494400D03*
D11*
X113288656Y-69494400D03*
D12*
X116586000Y-119380000D03*
D10*
X98467500Y-112407500D03*
D11*
X106087500Y-112407500D03*
D12*
X193675000Y-77597000D03*
D15*
X193548000Y-86741000D03*
D16*
X191008000Y-84201000D03*
X193548000Y-81661000D03*
D12*
X228219000Y-129286000D03*
D17*
X125082500Y-128312500D03*
D11*
X125082500Y-135932500D03*
D18*
X139234000Y-137782500D03*
D11*
X131614000Y-137782500D03*
D10*
X126242656Y-78384400D03*
D11*
X133862656Y-78384400D03*
D12*
X235839000Y-129286000D03*
D13*
X240919000Y-136652000D03*
D14*
X240919000Y-134112000D03*
X240919000Y-131572000D03*
D15*
X133223000Y-120421400D03*
D16*
X135763000Y-117881400D03*
X138303000Y-120421400D03*
D10*
X184111900Y-72300900D03*
D11*
X191731900Y-72300900D03*
D12*
X144907000Y-127508000D03*
D10*
X77258500Y-120281500D03*
D11*
X84878500Y-120281500D03*
D10*
X79375000Y-145796000D03*
D11*
X86995000Y-145796000D03*
D19*
X61341000Y-123444000D03*
X61341000Y-152744000D03*
X61341000Y-90297000D03*
X61341000Y-119597000D03*
D20*
X64897000Y-151765000D03*
X66167000Y-153543000D03*
X68707000Y-153543000D03*
X64897000Y-153543000D03*
X68707000Y-151765000D03*
X66167000Y-151765000D03*
X68707000Y-152654000D03*
X64897000Y-152654000D03*
X66167000Y-152654000D03*
X67437000Y-151765000D03*
X67437000Y-153543000D03*
X67437000Y-152654000D03*
D21*
X61341000Y-152744000D02*
X69469000Y-152744000D01*
X61341000Y-119597000D02*
X61341000Y-123444000D01*
D22*
X182758000Y-129540000D02*
X185298000Y-132080000D01*
X177678000Y-129540000D02*
X182758000Y-129540000D01*
G04 #@! TA.AperFunction,Conductor*
G36*
X250018639Y-54248785D02*
G01*
X250064394Y-54301589D01*
X250075600Y-54353100D01*
X250075600Y-155654100D01*
X250055915Y-155721139D01*
X250003111Y-155766894D01*
X249951600Y-155778100D01*
X47050600Y-155778100D01*
X46983561Y-155758415D01*
X46937806Y-155705611D01*
X46926600Y-155654100D01*
X46926600Y-151396135D01*
X59040500Y-151396135D01*
X59040500Y-154091870D01*
X59040501Y-154091876D01*
X59046908Y-154151483D01*
X59097202Y-154286328D01*
X59097206Y-154286335D01*
X59183452Y-154401544D01*
X59183455Y-154401547D01*
X59298664Y-154487793D01*
X59298671Y-154487797D01*
X59433517Y-154538091D01*
X59433516Y-154538091D01*
X59440444Y-154538835D01*
X59493127Y-154544500D01*
X60435568Y-154544499D01*
X60483021Y-154553938D01*
X60559680Y-154585691D01*
X60696581Y-154642398D01*
X60949884Y-154710270D01*
X61209880Y-154744500D01*
X61209887Y-154744500D01*
X69600113Y-154744500D01*
X69600120Y-154744500D01*
X69860116Y-154710270D01*
X70113419Y-154642398D01*
X70326980Y-154553938D01*
X70355690Y-154542046D01*
X70355691Y-154542045D01*
X70355697Y-154542043D01*
X70582803Y-154410924D01*
X70790851Y-154251282D01*
X70790855Y-154251277D01*
X70790860Y-154251274D01*
X70976274Y-154065860D01*
X70976277Y-154065855D01*
X70976282Y-154065851D01*
X71135924Y-153857803D01*
X71267043Y-153630697D01*
X71367398Y-153388419D01*
X71435270Y-153135116D01*
X71469500Y-152875120D01*
X71469500Y-152612880D01*
X71435270Y-152352884D01*
X71367398Y-152099581D01*
X71367394Y-152099571D01*
X71267046Y-151857309D01*
X71267041Y-151857299D01*
X71135924Y-151630196D01*
X70976281Y-151422148D01*
X70976274Y-151422140D01*
X70790860Y-151236726D01*
X70790851Y-151236718D01*
X70582803Y-151077075D01*
X70355700Y-150945958D01*
X70355690Y-150945953D01*
X70113428Y-150845605D01*
X70113421Y-150845603D01*
X70113419Y-150845602D01*
X69860116Y-150777730D01*
X69802339Y-150770123D01*
X69600127Y-150743500D01*
X69600120Y-150743500D01*
X61209880Y-150743500D01*
X61209872Y-150743500D01*
X60978772Y-150773926D01*
X60949884Y-150777730D01*
X60696581Y-150845602D01*
X60696565Y-150845607D01*
X60483019Y-150934061D01*
X60435567Y-150943500D01*
X59493129Y-150943500D01*
X59493123Y-150943501D01*
X59433516Y-150949908D01*
X59298671Y-151000202D01*
X59298664Y-151000206D01*
X59183455Y-151086452D01*
X59183452Y-151086455D01*
X59097206Y-151201664D01*
X59097202Y-151201671D01*
X59046908Y-151336517D01*
X59040501Y-151396116D01*
X59040500Y-151396135D01*
X46926600Y-151396135D01*
X46926600Y-145195983D01*
X78074500Y-145195983D01*
X78074500Y-146396001D01*
X78074501Y-146396018D01*
X78085000Y-146498796D01*
X78085001Y-146498799D01*
X78140185Y-146665331D01*
X78140187Y-146665336D01*
X78171190Y-146715600D01*
X78232288Y-146814656D01*
X78356344Y-146938712D01*
X78505666Y-147030814D01*
X78672203Y-147085999D01*
X78774991Y-147096500D01*
X79975008Y-147096499D01*
X80077797Y-147085999D01*
X80244334Y-147030814D01*
X80393656Y-146938712D01*
X80517712Y-146814656D01*
X80609814Y-146665334D01*
X80664999Y-146498797D01*
X80675500Y-146396009D01*
X80675499Y-145693648D01*
X85694500Y-145693648D01*
X85694500Y-145898351D01*
X85726522Y-146100534D01*
X85789781Y-146295223D01*
X85841135Y-146396009D01*
X85872433Y-146457435D01*
X85882715Y-146477613D01*
X86003028Y-146643213D01*
X86147786Y-146787971D01*
X86302749Y-146900556D01*
X86313390Y-146908287D01*
X86429607Y-146967503D01*
X86495776Y-147001218D01*
X86495778Y-147001218D01*
X86495781Y-147001220D01*
X86586856Y-147030812D01*
X86690465Y-147064477D01*
X86777405Y-147078247D01*
X86892648Y-147096500D01*
X86892649Y-147096500D01*
X87097351Y-147096500D01*
X87097352Y-147096500D01*
X87299534Y-147064477D01*
X87494219Y-147001220D01*
X87676610Y-146908287D01*
X87805482Y-146814657D01*
X87842213Y-146787971D01*
X87842215Y-146787968D01*
X87842219Y-146787966D01*
X87986966Y-146643219D01*
X87986968Y-146643215D01*
X87986971Y-146643213D01*
X88039732Y-146570590D01*
X88107287Y-146477610D01*
X88200220Y-146295219D01*
X88263477Y-146100534D01*
X88295500Y-145898352D01*
X88295500Y-145693648D01*
X88288868Y-145651778D01*
X93938500Y-145651778D01*
X93938500Y-145940221D01*
X93938501Y-145940238D01*
X93976149Y-146226206D01*
X93976150Y-146226211D01*
X93976151Y-146226217D01*
X94049189Y-146498799D01*
X94050809Y-146504844D01*
X94050814Y-146504860D01*
X94161191Y-146771336D01*
X94161199Y-146771352D01*
X94305420Y-147021148D01*
X94305431Y-147021164D01*
X94481024Y-147250002D01*
X94481030Y-147250009D01*
X94684990Y-147453969D01*
X94684997Y-147453975D01*
X94847953Y-147579015D01*
X94913844Y-147629575D01*
X94913851Y-147629579D01*
X95163647Y-147773800D01*
X95163663Y-147773808D01*
X95430139Y-147884185D01*
X95430145Y-147884186D01*
X95430155Y-147884191D01*
X95708783Y-147958849D01*
X95994772Y-147996500D01*
X95994779Y-147996500D01*
X96283221Y-147996500D01*
X96283228Y-147996500D01*
X96335411Y-147989630D01*
X134292900Y-147989630D01*
X134292900Y-148174369D01*
X134321798Y-148356820D01*
X134321798Y-148356823D01*
X134378880Y-148532503D01*
X134378882Y-148532506D01*
X134462747Y-148697100D01*
X134571328Y-148846549D01*
X134701951Y-148977172D01*
X134851400Y-149085753D01*
X135015994Y-149169618D01*
X135015996Y-149169619D01*
X135179864Y-149222862D01*
X135191681Y-149226702D01*
X135264401Y-149238219D01*
X135374131Y-149255600D01*
X135374136Y-149255600D01*
X135558869Y-149255600D01*
X135647319Y-149241590D01*
X135741319Y-149226702D01*
X135741322Y-149226701D01*
X135741323Y-149226701D01*
X135917003Y-149169619D01*
X135917003Y-149169618D01*
X135917006Y-149169618D01*
X136081600Y-149085753D01*
X136231049Y-148977172D01*
X136361672Y-148846549D01*
X136470253Y-148697100D01*
X136554118Y-148532506D01*
X136611202Y-148356819D01*
X136626090Y-148262819D01*
X136640100Y-148174369D01*
X136640100Y-147989630D01*
X136621184Y-147870203D01*
X136611202Y-147807181D01*
X136611201Y-147807177D01*
X136611201Y-147807176D01*
X136554119Y-147631496D01*
X136470252Y-147466899D01*
X136460862Y-147453975D01*
X136361672Y-147317451D01*
X136231049Y-147186828D01*
X136081600Y-147078247D01*
X135969553Y-147021156D01*
X135917003Y-146994380D01*
X135741321Y-146937298D01*
X135558869Y-146908400D01*
X135558864Y-146908400D01*
X135374136Y-146908400D01*
X135374131Y-146908400D01*
X135191679Y-146937298D01*
X135191676Y-146937298D01*
X135015996Y-146994380D01*
X134851399Y-147078247D01*
X134766133Y-147140196D01*
X134701951Y-147186828D01*
X134701949Y-147186830D01*
X134701948Y-147186830D01*
X134571330Y-147317448D01*
X134571330Y-147317449D01*
X134571328Y-147317451D01*
X134524696Y-147381633D01*
X134462747Y-147466899D01*
X134378880Y-147631496D01*
X134321798Y-147807176D01*
X134321798Y-147807179D01*
X134292900Y-147989630D01*
X96335411Y-147989630D01*
X96569217Y-147958849D01*
X96847845Y-147884191D01*
X96847857Y-147884185D01*
X96847860Y-147884185D01*
X96881617Y-147870203D01*
X97114336Y-147773808D01*
X97114339Y-147773806D01*
X97114345Y-147773804D01*
X97364156Y-147629575D01*
X97593004Y-147453974D01*
X97796974Y-147250004D01*
X97972575Y-147021156D01*
X98116804Y-146771345D01*
X98151865Y-146686701D01*
X98227185Y-146504860D01*
X98227185Y-146504857D01*
X98227191Y-146504845D01*
X98301849Y-146226217D01*
X98339500Y-145940228D01*
X98339500Y-145651772D01*
X98312888Y-145449630D01*
X131752900Y-145449630D01*
X131752900Y-145634369D01*
X131781798Y-145816820D01*
X131781798Y-145816823D01*
X131838880Y-145992503D01*
X131838882Y-145992506D01*
X131922747Y-146157100D01*
X132031328Y-146306549D01*
X132161951Y-146437172D01*
X132311400Y-146545753D01*
X132475994Y-146629618D01*
X132475996Y-146629619D01*
X132585917Y-146665334D01*
X132651681Y-146686702D01*
X132724401Y-146698219D01*
X132834131Y-146715600D01*
X132834136Y-146715600D01*
X133018869Y-146715600D01*
X133107319Y-146701590D01*
X133201319Y-146686702D01*
X133201322Y-146686701D01*
X133201323Y-146686701D01*
X133377003Y-146629619D01*
X133377003Y-146629618D01*
X133377006Y-146629618D01*
X133541600Y-146545753D01*
X133691049Y-146437172D01*
X133821672Y-146306549D01*
X133930253Y-146157100D01*
X134014118Y-145992506D01*
X134031106Y-145940221D01*
X134071201Y-145816823D01*
X134071201Y-145816822D01*
X134071202Y-145816819D01*
X134086090Y-145722819D01*
X134100100Y-145634369D01*
X134100100Y-145449630D01*
X134075889Y-145296776D01*
X134071202Y-145267181D01*
X134071201Y-145267177D01*
X134071201Y-145267176D01*
X134014119Y-145091496D01*
X133930253Y-144926900D01*
X133903873Y-144890591D01*
X133903872Y-144890590D01*
X133853338Y-144821035D01*
X136832900Y-144821035D01*
X136832900Y-146262970D01*
X136832901Y-146262976D01*
X136839308Y-146322583D01*
X136889602Y-146457428D01*
X136889606Y-146457435D01*
X136975852Y-146572644D01*
X136975855Y-146572647D01*
X137091064Y-146658893D01*
X137091071Y-146658897D01*
X137225917Y-146709191D01*
X137225916Y-146709191D01*
X137232844Y-146709935D01*
X137285527Y-146715600D01*
X138727472Y-146715599D01*
X138787083Y-146709191D01*
X138921931Y-146658896D01*
X139037146Y-146572646D01*
X139123396Y-146457431D01*
X139173691Y-146322583D01*
X139180100Y-146262973D01*
X139180099Y-144821028D01*
X139173691Y-144761417D01*
X139144709Y-144683713D01*
X139123397Y-144626571D01*
X139123393Y-144626564D01*
X139037147Y-144511355D01*
X139037144Y-144511352D01*
X138921935Y-144425106D01*
X138921928Y-144425102D01*
X138787082Y-144374808D01*
X138787083Y-144374808D01*
X138727483Y-144368401D01*
X138727481Y-144368400D01*
X138727473Y-144368400D01*
X138727464Y-144368400D01*
X137285529Y-144368400D01*
X137285523Y-144368401D01*
X137225916Y-144374808D01*
X137091071Y-144425102D01*
X137091064Y-144425106D01*
X136975855Y-144511352D01*
X136975852Y-144511355D01*
X136889606Y-144626564D01*
X136889602Y-144626571D01*
X136839308Y-144761417D01*
X136834727Y-144804034D01*
X136832901Y-144821023D01*
X136832900Y-144821035D01*
X133853338Y-144821035D01*
X133821672Y-144777451D01*
X133691049Y-144646828D01*
X133541600Y-144538247D01*
X133478312Y-144506000D01*
X133377003Y-144454380D01*
X133201321Y-144397298D01*
X133018869Y-144368400D01*
X133018864Y-144368400D01*
X132834136Y-144368400D01*
X132834131Y-144368400D01*
X132651679Y-144397298D01*
X132651676Y-144397298D01*
X132475996Y-144454380D01*
X132311399Y-144538247D01*
X132266546Y-144570835D01*
X132161951Y-144646828D01*
X132161949Y-144646830D01*
X132161948Y-144646830D01*
X132031330Y-144777448D01*
X132031330Y-144777449D01*
X132031328Y-144777451D01*
X131984696Y-144841633D01*
X131922747Y-144926899D01*
X131838880Y-145091496D01*
X131781798Y-145267176D01*
X131781798Y-145267179D01*
X131752900Y-145449630D01*
X98312888Y-145449630D01*
X98301849Y-145365783D01*
X98227191Y-145087155D01*
X98227186Y-145087145D01*
X98227185Y-145087139D01*
X98116808Y-144820663D01*
X98116800Y-144820647D01*
X97972579Y-144570851D01*
X97972575Y-144570844D01*
X97883209Y-144454380D01*
X97796975Y-144341997D01*
X97796969Y-144341990D01*
X97593009Y-144138030D01*
X97593002Y-144138024D01*
X97364164Y-143962431D01*
X97364162Y-143962429D01*
X97364156Y-143962425D01*
X97364151Y-143962422D01*
X97364148Y-143962420D01*
X97114352Y-143818199D01*
X97114336Y-143818191D01*
X96847860Y-143707814D01*
X96847848Y-143707810D01*
X96847845Y-143707809D01*
X96569217Y-143633151D01*
X96569211Y-143633150D01*
X96569206Y-143633149D01*
X96283238Y-143595501D01*
X96283233Y-143595500D01*
X96283228Y-143595500D01*
X95994772Y-143595500D01*
X95994766Y-143595500D01*
X95994761Y-143595501D01*
X95708793Y-143633149D01*
X95708786Y-143633150D01*
X95708783Y-143633151D01*
X95430155Y-143707809D01*
X95430139Y-143707814D01*
X95163663Y-143818191D01*
X95163647Y-143818199D01*
X94913851Y-143962420D01*
X94913835Y-143962431D01*
X94684997Y-144138024D01*
X94684990Y-144138030D01*
X94481030Y-144341990D01*
X94481024Y-144341997D01*
X94305431Y-144570835D01*
X94305420Y-144570851D01*
X94161199Y-144820647D01*
X94161191Y-144820663D01*
X94050814Y-145087139D01*
X94050809Y-145087155D01*
X94043513Y-145114386D01*
X93976152Y-145365780D01*
X93976149Y-145365793D01*
X93938501Y-145651761D01*
X93938500Y-145651778D01*
X88288868Y-145651778D01*
X88263477Y-145491465D01*
X88200218Y-145296776D01*
X88148865Y-145195991D01*
X88107287Y-145114390D01*
X88087488Y-145087139D01*
X87986971Y-144948786D01*
X87842213Y-144804028D01*
X87676613Y-144683715D01*
X87676612Y-144683714D01*
X87676610Y-144683713D01*
X87604219Y-144646828D01*
X87494223Y-144590781D01*
X87299534Y-144527522D01*
X87124995Y-144499878D01*
X87097352Y-144495500D01*
X86892648Y-144495500D01*
X86868329Y-144499351D01*
X86690465Y-144527522D01*
X86495776Y-144590781D01*
X86313386Y-144683715D01*
X86147786Y-144804028D01*
X86003028Y-144948786D01*
X85882715Y-145114386D01*
X85789781Y-145296776D01*
X85726522Y-145491465D01*
X85694500Y-145693648D01*
X80675499Y-145693648D01*
X80675499Y-145195992D01*
X80664999Y-145093203D01*
X80609814Y-144926666D01*
X80517712Y-144777344D01*
X80393656Y-144653288D01*
X80244334Y-144561186D01*
X80077797Y-144506001D01*
X80077795Y-144506000D01*
X79975010Y-144495500D01*
X78774998Y-144495500D01*
X78774981Y-144495501D01*
X78672203Y-144506000D01*
X78672200Y-144506001D01*
X78505668Y-144561185D01*
X78505663Y-144561187D01*
X78356342Y-144653289D01*
X78232289Y-144777342D01*
X78140187Y-144926663D01*
X78140185Y-144926668D01*
X78140108Y-144926900D01*
X78085001Y-145093203D01*
X78085001Y-145093204D01*
X78085000Y-145093204D01*
X78074500Y-145195983D01*
X46926600Y-145195983D01*
X46926600Y-137680148D01*
X130313500Y-137680148D01*
X130313500Y-137884851D01*
X130345522Y-138087034D01*
X130408781Y-138281723D01*
X130501715Y-138464113D01*
X130622028Y-138629713D01*
X130766786Y-138774471D01*
X130921749Y-138887056D01*
X130932390Y-138894787D01*
X131048607Y-138954003D01*
X131114776Y-138987718D01*
X131114778Y-138987718D01*
X131114781Y-138987720D01*
X131205856Y-139017312D01*
X131309465Y-139050977D01*
X131410557Y-139066988D01*
X131511648Y-139083000D01*
X131511649Y-139083000D01*
X131716351Y-139083000D01*
X131716352Y-139083000D01*
X131918534Y-139050977D01*
X132113219Y-138987720D01*
X132295610Y-138894787D01*
X132424482Y-138801157D01*
X132461213Y-138774471D01*
X132461215Y-138774468D01*
X132461219Y-138774466D01*
X132605966Y-138629719D01*
X132605968Y-138629715D01*
X132605971Y-138629713D01*
X132697418Y-138503845D01*
X132726287Y-138464110D01*
X132819220Y-138281719D01*
X132882477Y-138087034D01*
X132914500Y-137884852D01*
X132914500Y-137680148D01*
X132909847Y-137650772D01*
X132882477Y-137477965D01*
X132819218Y-137283276D01*
X132794940Y-137235629D01*
X132767861Y-137182483D01*
X137933500Y-137182483D01*
X137933500Y-138382501D01*
X137933501Y-138382518D01*
X137944000Y-138485296D01*
X137944001Y-138485299D01*
X137950147Y-138503845D01*
X137999186Y-138651834D01*
X138091288Y-138801156D01*
X138215344Y-138925212D01*
X138364666Y-139017314D01*
X138531203Y-139072499D01*
X138633991Y-139083000D01*
X139834008Y-139082999D01*
X139936797Y-139072499D01*
X140103334Y-139017314D01*
X140252656Y-138925212D01*
X140376712Y-138801156D01*
X140468814Y-138651834D01*
X140523999Y-138485297D01*
X140534500Y-138382509D01*
X140534499Y-137650778D01*
X171789500Y-137650778D01*
X171789500Y-137939221D01*
X171789501Y-137939238D01*
X171827149Y-138225206D01*
X171827150Y-138225211D01*
X171827151Y-138225217D01*
X171869299Y-138382516D01*
X171901809Y-138503844D01*
X171901814Y-138503860D01*
X172012191Y-138770336D01*
X172012199Y-138770352D01*
X172156420Y-139020148D01*
X172156431Y-139020164D01*
X172332024Y-139249002D01*
X172332030Y-139249009D01*
X172535990Y-139452969D01*
X172535996Y-139452974D01*
X172764844Y-139628575D01*
X172764851Y-139628579D01*
X173014647Y-139772800D01*
X173014663Y-139772808D01*
X173281139Y-139883185D01*
X173281145Y-139883186D01*
X173281155Y-139883191D01*
X173559783Y-139957849D01*
X173845772Y-139995500D01*
X173845779Y-139995500D01*
X174134221Y-139995500D01*
X174134228Y-139995500D01*
X174420217Y-139957849D01*
X174498855Y-139936778D01*
X234019500Y-139936778D01*
X234019500Y-140225221D01*
X234019501Y-140225238D01*
X234057149Y-140511206D01*
X234057150Y-140511211D01*
X234057151Y-140511217D01*
X234057152Y-140511219D01*
X234131809Y-140789844D01*
X234131814Y-140789860D01*
X234242191Y-141056336D01*
X234242199Y-141056352D01*
X234386420Y-141306148D01*
X234386431Y-141306164D01*
X234562024Y-141535002D01*
X234562030Y-141535009D01*
X234765990Y-141738969D01*
X234765996Y-141738974D01*
X234994844Y-141914575D01*
X234994851Y-141914579D01*
X235244647Y-142058800D01*
X235244663Y-142058808D01*
X235511139Y-142169185D01*
X235511145Y-142169186D01*
X235511155Y-142169191D01*
X235789783Y-142243849D01*
X236075772Y-142281500D01*
X236075779Y-142281500D01*
X236364221Y-142281500D01*
X236364228Y-142281500D01*
X236650217Y-142243849D01*
X236928845Y-142169191D01*
X236928857Y-142169185D01*
X236928860Y-142169185D01*
X237195336Y-142058808D01*
X237195339Y-142058806D01*
X237195345Y-142058804D01*
X237445156Y-141914575D01*
X237674004Y-141738974D01*
X237877974Y-141535004D01*
X238053575Y-141306156D01*
X238197804Y-141056345D01*
X238308191Y-140789845D01*
X238382849Y-140511217D01*
X238420500Y-140225228D01*
X238420500Y-139936772D01*
X238382849Y-139650783D01*
X238308191Y-139372155D01*
X238308186Y-139372145D01*
X238308185Y-139372139D01*
X238197808Y-139105663D01*
X238197800Y-139105647D01*
X238053579Y-138855851D01*
X238053575Y-138855844D01*
X237987969Y-138770345D01*
X237877975Y-138626997D01*
X237877969Y-138626990D01*
X237674009Y-138423030D01*
X237674002Y-138423024D01*
X237445164Y-138247431D01*
X237445162Y-138247429D01*
X237445156Y-138247425D01*
X237445151Y-138247422D01*
X237445148Y-138247420D01*
X237195352Y-138103199D01*
X237195336Y-138103191D01*
X236928860Y-137992814D01*
X236928848Y-137992810D01*
X236928845Y-137992809D01*
X236650217Y-137918151D01*
X236650211Y-137918150D01*
X236650206Y-137918149D01*
X236364238Y-137880501D01*
X236364233Y-137880500D01*
X236364228Y-137880500D01*
X236075772Y-137880500D01*
X236075766Y-137880500D01*
X236075761Y-137880501D01*
X235789793Y-137918149D01*
X235789786Y-137918150D01*
X235789783Y-137918151D01*
X235511155Y-137992809D01*
X235511139Y-137992814D01*
X235244663Y-138103191D01*
X235244647Y-138103199D01*
X234994851Y-138247420D01*
X234994835Y-138247431D01*
X234765997Y-138423024D01*
X234765990Y-138423030D01*
X234562030Y-138626990D01*
X234562024Y-138626997D01*
X234386431Y-138855835D01*
X234386420Y-138855851D01*
X234242199Y-139105647D01*
X234242191Y-139105663D01*
X234131814Y-139372139D01*
X234131809Y-139372155D01*
X234063104Y-139628568D01*
X234057152Y-139650780D01*
X234057149Y-139650793D01*
X234019501Y-139936761D01*
X234019500Y-139936778D01*
X174498855Y-139936778D01*
X174698845Y-139883191D01*
X174698857Y-139883185D01*
X174698860Y-139883185D01*
X174855866Y-139818152D01*
X174965336Y-139772808D01*
X174965339Y-139772806D01*
X174965345Y-139772804D01*
X175215156Y-139628575D01*
X175444004Y-139452974D01*
X175647974Y-139249004D01*
X175823575Y-139020156D01*
X175967804Y-138770345D01*
X176016893Y-138651834D01*
X176078185Y-138503860D01*
X176078185Y-138503857D01*
X176078191Y-138503845D01*
X176152849Y-138225217D01*
X176190500Y-137939228D01*
X176190500Y-137650772D01*
X176152849Y-137364783D01*
X176078191Y-137086155D01*
X176078186Y-137086145D01*
X176078185Y-137086139D01*
X175967808Y-136819663D01*
X175967800Y-136819647D01*
X175823579Y-136569851D01*
X175823575Y-136569844D01*
X175647974Y-136340996D01*
X175647969Y-136340990D01*
X175444009Y-136137030D01*
X175444002Y-136137024D01*
X175341061Y-136058035D01*
X191358400Y-136058035D01*
X191358400Y-137499970D01*
X191358401Y-137499976D01*
X191364808Y-137559583D01*
X191415102Y-137694428D01*
X191415106Y-137694435D01*
X191501352Y-137809644D01*
X191501355Y-137809647D01*
X191616564Y-137895893D01*
X191616571Y-137895897D01*
X191751417Y-137946191D01*
X191751416Y-137946191D01*
X191758344Y-137946935D01*
X191811027Y-137952600D01*
X193252972Y-137952599D01*
X193312583Y-137946191D01*
X193447431Y-137895896D01*
X193562646Y-137809646D01*
X193648896Y-137694431D01*
X193699191Y-137559583D01*
X193705600Y-137499973D01*
X193705599Y-136559630D01*
X220568400Y-136559630D01*
X220568400Y-136744369D01*
X220597298Y-136926820D01*
X220597298Y-136926823D01*
X220654380Y-137102503D01*
X220720872Y-137233000D01*
X220738247Y-137267100D01*
X220846828Y-137416549D01*
X220977451Y-137547172D01*
X221126900Y-137655753D01*
X221174778Y-137680148D01*
X221291496Y-137739619D01*
X221455364Y-137792862D01*
X221467181Y-137796702D01*
X221539901Y-137808219D01*
X221649631Y-137825600D01*
X221649636Y-137825600D01*
X221834369Y-137825600D01*
X221935087Y-137809647D01*
X222016819Y-137796702D01*
X222016822Y-137796701D01*
X222016823Y-137796701D01*
X222192503Y-137739619D01*
X222192503Y-137739618D01*
X222192506Y-137739618D01*
X222357100Y-137655753D01*
X222506549Y-137547172D01*
X222637172Y-137416549D01*
X222745753Y-137267100D01*
X222829618Y-137102506D01*
X222886702Y-136926819D01*
X222903676Y-136819647D01*
X222915600Y-136744369D01*
X222915600Y-136559630D01*
X222898788Y-136453489D01*
X222886702Y-136377181D01*
X222886701Y-136377177D01*
X222886701Y-136377176D01*
X222829619Y-136201496D01*
X222796769Y-136137024D01*
X222745753Y-136036900D01*
X222637172Y-135887451D01*
X222506549Y-135756828D01*
X222357100Y-135648247D01*
X222325506Y-135632149D01*
X222192503Y-135564380D01*
X222016821Y-135507298D01*
X221834369Y-135478400D01*
X221834364Y-135478400D01*
X221649636Y-135478400D01*
X221649631Y-135478400D01*
X221467179Y-135507298D01*
X221467176Y-135507298D01*
X221291496Y-135564380D01*
X221126899Y-135648247D01*
X221063216Y-135694516D01*
X220977451Y-135756828D01*
X220977449Y-135756830D01*
X220977448Y-135756830D01*
X220846830Y-135887448D01*
X220846830Y-135887449D01*
X220846828Y-135887451D01*
X220822817Y-135920500D01*
X220738247Y-136036899D01*
X220654380Y-136201496D01*
X220597298Y-136377176D01*
X220597298Y-136377179D01*
X220568400Y-136559630D01*
X193705599Y-136559630D01*
X193705599Y-136058028D01*
X193699191Y-135998417D01*
X193657803Y-135887451D01*
X193648897Y-135863571D01*
X193648893Y-135863564D01*
X193562647Y-135748355D01*
X193562644Y-135748352D01*
X193447435Y-135662106D01*
X193447428Y-135662102D01*
X193312582Y-135611808D01*
X193312583Y-135611808D01*
X193252983Y-135605401D01*
X193252981Y-135605400D01*
X193252973Y-135605400D01*
X193252964Y-135605400D01*
X191811029Y-135605400D01*
X191811023Y-135605401D01*
X191751416Y-135611808D01*
X191616571Y-135662102D01*
X191616564Y-135662106D01*
X191501355Y-135748352D01*
X191501352Y-135748355D01*
X191415106Y-135863564D01*
X191415102Y-135863571D01*
X191364808Y-135998417D01*
X191360671Y-136036900D01*
X191358401Y-136058023D01*
X191358400Y-136058035D01*
X175341061Y-136058035D01*
X175215164Y-135961431D01*
X175215162Y-135961429D01*
X175215156Y-135961425D01*
X175215151Y-135961422D01*
X175215148Y-135961420D01*
X174965352Y-135817199D01*
X174965336Y-135817191D01*
X174698860Y-135706814D01*
X174698848Y-135706810D01*
X174698845Y-135706809D01*
X174420217Y-135632151D01*
X174420211Y-135632150D01*
X174420206Y-135632149D01*
X174134238Y-135594501D01*
X174134233Y-135594500D01*
X174134228Y-135594500D01*
X173845772Y-135594500D01*
X173845766Y-135594500D01*
X173845761Y-135594501D01*
X173559793Y-135632149D01*
X173559786Y-135632150D01*
X173559783Y-135632151D01*
X173281155Y-135706809D01*
X173281139Y-135706814D01*
X173014663Y-135817191D01*
X173014647Y-135817199D01*
X172764851Y-135961420D01*
X172764835Y-135961431D01*
X172535997Y-136137024D01*
X172535990Y-136137030D01*
X172332030Y-136340990D01*
X172332024Y-136340997D01*
X172156431Y-136569835D01*
X172156420Y-136569851D01*
X172012199Y-136819647D01*
X172012191Y-136819663D01*
X171901814Y-137086139D01*
X171901809Y-137086155D01*
X171827152Y-137364780D01*
X171827149Y-137364793D01*
X171789501Y-137650761D01*
X171789500Y-137650778D01*
X140534499Y-137650778D01*
X140534499Y-137182492D01*
X140529925Y-137137720D01*
X140523999Y-137079703D01*
X140523998Y-137079700D01*
X140512428Y-137044784D01*
X140468814Y-136913166D01*
X140376712Y-136763844D01*
X140252656Y-136639788D01*
X140151314Y-136577280D01*
X140103336Y-136547687D01*
X140103331Y-136547685D01*
X140101862Y-136547198D01*
X139936797Y-136492501D01*
X139936795Y-136492500D01*
X139834010Y-136482000D01*
X138633998Y-136482000D01*
X138633981Y-136482001D01*
X138531203Y-136492500D01*
X138531200Y-136492501D01*
X138364668Y-136547685D01*
X138364663Y-136547687D01*
X138215342Y-136639789D01*
X138091289Y-136763842D01*
X137999187Y-136913163D01*
X137999185Y-136913168D01*
X137991858Y-136935281D01*
X137944001Y-137079703D01*
X137944001Y-137079704D01*
X137944000Y-137079704D01*
X137933500Y-137182483D01*
X132767861Y-137182483D01*
X132726287Y-137100890D01*
X132726285Y-137100887D01*
X132726284Y-137100885D01*
X132605971Y-136935286D01*
X132461213Y-136790528D01*
X132295613Y-136670215D01*
X132295612Y-136670214D01*
X132295610Y-136670213D01*
X132235898Y-136639788D01*
X132113223Y-136577281D01*
X131918534Y-136514022D01*
X131743995Y-136486378D01*
X131716352Y-136482000D01*
X131511648Y-136482000D01*
X131487329Y-136485851D01*
X131309465Y-136514022D01*
X131114776Y-136577281D01*
X130932386Y-136670215D01*
X130766786Y-136790528D01*
X130622028Y-136935286D01*
X130501715Y-137100886D01*
X130408781Y-137283276D01*
X130345522Y-137477965D01*
X130313500Y-137680148D01*
X46926600Y-137680148D01*
X46926600Y-134654630D01*
X115387000Y-134654630D01*
X115387000Y-134839369D01*
X115415898Y-135021820D01*
X115415898Y-135021823D01*
X115472980Y-135197503D01*
X115503143Y-135256701D01*
X115556847Y-135362100D01*
X115665428Y-135511549D01*
X115796051Y-135642172D01*
X115945500Y-135750753D01*
X116101321Y-135830148D01*
X116110096Y-135834619D01*
X116199196Y-135863569D01*
X116285781Y-135891702D01*
X116358501Y-135903219D01*
X116468231Y-135920600D01*
X116468236Y-135920600D01*
X116652969Y-135920600D01*
X116741419Y-135906590D01*
X116835419Y-135891702D01*
X116835422Y-135891701D01*
X116835423Y-135891701D01*
X117011103Y-135834619D01*
X117011103Y-135834618D01*
X117011106Y-135834618D01*
X117019879Y-135830148D01*
X123782000Y-135830148D01*
X123782000Y-136034852D01*
X123785669Y-136058016D01*
X123814022Y-136237034D01*
X123877281Y-136431723D01*
X123970215Y-136614113D01*
X124090528Y-136779713D01*
X124235286Y-136924471D01*
X124390249Y-137037056D01*
X124400890Y-137044787D01*
X124510988Y-137100885D01*
X124583276Y-137137718D01*
X124583278Y-137137718D01*
X124583281Y-137137720D01*
X124687637Y-137171627D01*
X124777965Y-137200977D01*
X124879057Y-137216988D01*
X124980148Y-137233000D01*
X124980149Y-137233000D01*
X125184851Y-137233000D01*
X125184852Y-137233000D01*
X125387034Y-137200977D01*
X125581719Y-137137720D01*
X125764110Y-137044787D01*
X125857090Y-136977232D01*
X125929713Y-136924471D01*
X125929715Y-136924468D01*
X125929719Y-136924466D01*
X126074466Y-136779719D01*
X126074468Y-136779715D01*
X126074471Y-136779713D01*
X126127232Y-136707090D01*
X126194787Y-136614110D01*
X126287720Y-136431719D01*
X126350977Y-136237034D01*
X126383000Y-136034852D01*
X126383000Y-135830148D01*
X126366339Y-135724958D01*
X126350977Y-135627965D01*
X126313151Y-135511549D01*
X126287720Y-135433281D01*
X126287718Y-135433278D01*
X126287718Y-135433276D01*
X126233372Y-135326618D01*
X126194787Y-135250890D01*
X126156002Y-135197506D01*
X126074471Y-135085286D01*
X125929713Y-134940528D01*
X125764113Y-134820215D01*
X125764112Y-134820214D01*
X125764110Y-134820213D01*
X125707153Y-134791191D01*
X125581723Y-134727281D01*
X125387034Y-134664022D01*
X125212495Y-134636378D01*
X125184852Y-134632000D01*
X124980148Y-134632000D01*
X124955829Y-134635851D01*
X124777965Y-134664022D01*
X124583276Y-134727281D01*
X124400886Y-134820215D01*
X124235286Y-134940528D01*
X124090528Y-135085286D01*
X123970215Y-135250886D01*
X123877281Y-135433276D01*
X123814022Y-135627965D01*
X123784052Y-135817191D01*
X123782000Y-135830148D01*
X117019879Y-135830148D01*
X117175700Y-135750753D01*
X117325149Y-135642172D01*
X117455772Y-135511549D01*
X117564353Y-135362100D01*
X117648218Y-135197506D01*
X117666219Y-135142104D01*
X117705301Y-135021823D01*
X117705301Y-135021822D01*
X117705302Y-135021819D01*
X117720710Y-134924534D01*
X117734200Y-134839369D01*
X117734200Y-134654630D01*
X117711897Y-134513820D01*
X117705302Y-134472181D01*
X117705301Y-134472177D01*
X117705301Y-134472176D01*
X117648219Y-134296496D01*
X117601275Y-134204364D01*
X117564353Y-134131900D01*
X117455772Y-133982451D01*
X117325149Y-133851828D01*
X117175700Y-133743247D01*
X117011103Y-133659380D01*
X116835421Y-133602298D01*
X116652969Y-133573400D01*
X116652964Y-133573400D01*
X116468236Y-133573400D01*
X116468231Y-133573400D01*
X116285779Y-133602298D01*
X116285776Y-133602298D01*
X116110096Y-133659380D01*
X115945499Y-133743247D01*
X115904843Y-133772786D01*
X115796051Y-133851828D01*
X115796049Y-133851830D01*
X115796048Y-133851830D01*
X115665430Y-133982448D01*
X115665430Y-133982449D01*
X115665428Y-133982451D01*
X115638416Y-134019630D01*
X115556847Y-134131899D01*
X115472980Y-134296496D01*
X115415898Y-134472176D01*
X115415898Y-134472179D01*
X115387000Y-134654630D01*
X46926600Y-134654630D01*
X46926600Y-132114630D01*
X117927000Y-132114630D01*
X117927000Y-132299369D01*
X117955898Y-132481820D01*
X117955898Y-132481823D01*
X118012980Y-132657503D01*
X118078768Y-132786618D01*
X118096847Y-132822100D01*
X118205428Y-132971549D01*
X118336051Y-133102172D01*
X118485500Y-133210753D01*
X118636105Y-133287490D01*
X118650096Y-133294619D01*
X118801547Y-133343828D01*
X118825781Y-133351702D01*
X118898501Y-133363219D01*
X119008231Y-133380600D01*
X119008236Y-133380600D01*
X119192969Y-133380600D01*
X119281419Y-133366590D01*
X119375419Y-133351702D01*
X119375422Y-133351701D01*
X119375423Y-133351701D01*
X119551103Y-133294619D01*
X119551103Y-133294618D01*
X119551106Y-133294618D01*
X119715700Y-133210753D01*
X119865149Y-133102172D01*
X119995772Y-132971549D01*
X120104353Y-132822100D01*
X120188218Y-132657506D01*
X120206219Y-132602104D01*
X120245301Y-132481823D01*
X120245301Y-132481822D01*
X120245302Y-132481819D01*
X120265771Y-132352582D01*
X120274200Y-132299369D01*
X120274200Y-132114630D01*
X120251897Y-131973820D01*
X120245302Y-131932181D01*
X120245301Y-131932177D01*
X120245301Y-131932176D01*
X120188219Y-131756496D01*
X120148369Y-131678286D01*
X120104353Y-131591900D01*
X119995772Y-131442451D01*
X119865149Y-131311828D01*
X119715700Y-131203247D01*
X119551103Y-131119380D01*
X119375421Y-131062298D01*
X119192969Y-131033400D01*
X119192964Y-131033400D01*
X119008236Y-131033400D01*
X119008231Y-131033400D01*
X118825779Y-131062298D01*
X118825776Y-131062298D01*
X118650096Y-131119380D01*
X118485499Y-131203247D01*
X118444843Y-131232786D01*
X118336051Y-131311828D01*
X118336049Y-131311830D01*
X118336048Y-131311830D01*
X118205430Y-131442448D01*
X118205430Y-131442449D01*
X118205428Y-131442451D01*
X118173426Y-131486498D01*
X118096847Y-131591899D01*
X118012980Y-131756496D01*
X117955898Y-131932176D01*
X117955898Y-131932179D01*
X117927000Y-132114630D01*
X46926600Y-132114630D01*
X46926600Y-128946035D01*
X115387000Y-128946035D01*
X115387000Y-130387970D01*
X115387001Y-130387976D01*
X115393408Y-130447583D01*
X115443702Y-130582428D01*
X115443706Y-130582435D01*
X115529952Y-130697644D01*
X115529955Y-130697647D01*
X115645164Y-130783893D01*
X115645171Y-130783897D01*
X115780017Y-130834191D01*
X115780016Y-130834191D01*
X115786944Y-130834935D01*
X115839627Y-130840600D01*
X117281572Y-130840599D01*
X117341183Y-130834191D01*
X117476031Y-130783896D01*
X117591246Y-130697646D01*
X117677496Y-130582431D01*
X117727791Y-130447583D01*
X117734200Y-130387973D01*
X117734199Y-128946028D01*
X117727791Y-128886417D01*
X117722337Y-128871795D01*
X117677497Y-128751571D01*
X117677493Y-128751564D01*
X117591247Y-128636355D01*
X117591244Y-128636352D01*
X117476035Y-128550106D01*
X117476028Y-128550102D01*
X117341182Y-128499808D01*
X117341183Y-128499808D01*
X117281583Y-128493401D01*
X117281581Y-128493400D01*
X117281573Y-128493400D01*
X117281564Y-128493400D01*
X115839629Y-128493400D01*
X115839623Y-128493401D01*
X115780016Y-128499808D01*
X115645171Y-128550102D01*
X115645164Y-128550106D01*
X115529955Y-128636352D01*
X115529952Y-128636355D01*
X115443706Y-128751564D01*
X115443702Y-128751571D01*
X115393408Y-128886417D01*
X115387001Y-128946016D01*
X115387001Y-128946023D01*
X115387000Y-128946035D01*
X46926600Y-128946035D01*
X46926600Y-127712483D01*
X123782000Y-127712483D01*
X123782000Y-128912501D01*
X123782001Y-128912518D01*
X123792500Y-129015296D01*
X123792501Y-129015299D01*
X123842431Y-129165975D01*
X123847686Y-129181834D01*
X123939788Y-129331156D01*
X124063844Y-129455212D01*
X124213166Y-129547314D01*
X124379703Y-129602499D01*
X124482491Y-129613000D01*
X125682508Y-129612999D01*
X125785297Y-129602499D01*
X125951834Y-129547314D01*
X126101156Y-129455212D01*
X126225212Y-129331156D01*
X126317314Y-129181834D01*
X126372499Y-129015297D01*
X126383000Y-128912509D01*
X126382999Y-127712492D01*
X126382008Y-127702795D01*
X126372499Y-127609703D01*
X126372498Y-127609700D01*
X126335888Y-127499219D01*
X126317314Y-127443166D01*
X126268347Y-127363778D01*
X142706500Y-127363778D01*
X142706500Y-127652221D01*
X142706501Y-127652238D01*
X142744149Y-127938206D01*
X142744150Y-127938211D01*
X142744151Y-127938217D01*
X142818809Y-128216844D01*
X142818814Y-128216860D01*
X142929191Y-128483336D01*
X142929199Y-128483352D01*
X143073420Y-128733148D01*
X143073431Y-128733164D01*
X143249024Y-128962002D01*
X143249030Y-128962009D01*
X143452990Y-129165969D01*
X143452997Y-129165975D01*
X143543560Y-129235466D01*
X143681844Y-129341575D01*
X143681851Y-129341579D01*
X143931647Y-129485800D01*
X143931663Y-129485808D01*
X144198139Y-129596185D01*
X144198145Y-129596186D01*
X144198155Y-129596191D01*
X144476783Y-129670849D01*
X144762772Y-129708500D01*
X144762779Y-129708500D01*
X145051221Y-129708500D01*
X145051228Y-129708500D01*
X145337217Y-129670849D01*
X145615845Y-129596191D01*
X145615857Y-129596185D01*
X145615860Y-129596185D01*
X145882336Y-129485808D01*
X145882339Y-129485806D01*
X145882345Y-129485804D01*
X146132156Y-129341575D01*
X146361004Y-129165974D01*
X146564974Y-128962004D01*
X146740575Y-128733156D01*
X146884804Y-128483345D01*
X146886199Y-128479979D01*
X146995185Y-128216860D01*
X146995185Y-128216857D01*
X146995191Y-128216845D01*
X147069849Y-127938217D01*
X147107500Y-127652228D01*
X147107500Y-127363772D01*
X147069849Y-127077783D01*
X146995191Y-126799155D01*
X146995186Y-126799145D01*
X146995185Y-126799139D01*
X146884808Y-126532663D01*
X146884800Y-126532647D01*
X146842185Y-126458836D01*
X146842184Y-126458835D01*
X146808214Y-126399998D01*
X146808205Y-126399983D01*
X176377500Y-126399983D01*
X176377500Y-127600001D01*
X176377501Y-127600018D01*
X176388000Y-127702796D01*
X176388001Y-127702799D01*
X176430811Y-127831990D01*
X176443186Y-127869334D01*
X176535288Y-128018656D01*
X176659344Y-128142712D01*
X176808666Y-128234814D01*
X176890570Y-128261954D01*
X176948015Y-128301727D01*
X176974838Y-128366243D01*
X176962523Y-128435018D01*
X176924451Y-128479978D01*
X176830787Y-128548028D01*
X176830782Y-128548032D01*
X176686028Y-128692786D01*
X176565715Y-128858386D01*
X176472781Y-129040776D01*
X176409522Y-129235465D01*
X176377500Y-129437648D01*
X176377500Y-129642351D01*
X176409522Y-129844534D01*
X176472781Y-130039223D01*
X176565715Y-130221613D01*
X176686028Y-130387213D01*
X176830786Y-130531971D01*
X176985749Y-130644556D01*
X176996390Y-130652287D01*
X177074749Y-130692213D01*
X177089080Y-130699515D01*
X177139876Y-130747490D01*
X177156671Y-130815311D01*
X177134134Y-130881446D01*
X177089080Y-130920485D01*
X176996386Y-130967715D01*
X176830786Y-131088028D01*
X176686028Y-131232786D01*
X176565715Y-131398386D01*
X176472781Y-131580776D01*
X176409522Y-131775465D01*
X176377500Y-131977648D01*
X176377500Y-132182351D01*
X176409522Y-132384534D01*
X176472781Y-132579223D01*
X176512669Y-132657506D01*
X176557555Y-132745600D01*
X176565715Y-132761613D01*
X176686028Y-132927213D01*
X176830786Y-133071971D01*
X176985749Y-133184556D01*
X176996390Y-133192287D01*
X177074749Y-133232213D01*
X177089080Y-133239515D01*
X177139876Y-133287490D01*
X177156671Y-133355311D01*
X177134134Y-133421446D01*
X177089080Y-133460485D01*
X176996386Y-133507715D01*
X176830786Y-133628028D01*
X176686028Y-133772786D01*
X176565715Y-133938386D01*
X176472781Y-134120776D01*
X176409522Y-134315465D01*
X176377500Y-134517648D01*
X176377500Y-134722351D01*
X176409522Y-134924534D01*
X176472781Y-135119223D01*
X176512669Y-135197506D01*
X176565657Y-135301501D01*
X176565715Y-135301613D01*
X176686028Y-135467213D01*
X176830786Y-135611971D01*
X176961322Y-135706809D01*
X176996390Y-135732287D01*
X177112607Y-135791503D01*
X177178776Y-135825218D01*
X177178778Y-135825218D01*
X177178781Y-135825220D01*
X177283137Y-135859127D01*
X177373465Y-135888477D01*
X177474557Y-135904488D01*
X177575648Y-135920500D01*
X177575649Y-135920500D01*
X177780351Y-135920500D01*
X177780352Y-135920500D01*
X177982534Y-135888477D01*
X178177219Y-135825220D01*
X178359610Y-135732287D01*
X178483648Y-135642169D01*
X178525213Y-135611971D01*
X178525215Y-135611968D01*
X178525219Y-135611966D01*
X178669966Y-135467219D01*
X178669968Y-135467215D01*
X178669971Y-135467213D01*
X178749171Y-135358202D01*
X178790287Y-135301610D01*
X178883220Y-135119219D01*
X178946477Y-134924534D01*
X178978500Y-134722352D01*
X178978500Y-134517648D01*
X178946477Y-134315466D01*
X178940313Y-134296496D01*
X178891619Y-134146630D01*
X178883220Y-134120781D01*
X178883218Y-134120778D01*
X178883218Y-134120776D01*
X178831681Y-134019630D01*
X178790287Y-133938390D01*
X178782556Y-133927749D01*
X178669971Y-133772786D01*
X178525213Y-133628028D01*
X178359614Y-133507715D01*
X178338386Y-133496899D01*
X178266917Y-133460483D01*
X178216123Y-133412511D01*
X178199328Y-133344690D01*
X178221865Y-133278555D01*
X178266917Y-133239516D01*
X178359610Y-133192287D01*
X178380770Y-133176913D01*
X178525213Y-133071971D01*
X178525215Y-133071968D01*
X178525219Y-133071966D01*
X178669966Y-132927219D01*
X178669968Y-132927215D01*
X178669971Y-132927213D01*
X178746339Y-132822100D01*
X178790287Y-132761610D01*
X178883220Y-132579219D01*
X178946477Y-132384534D01*
X178978500Y-132182352D01*
X178978500Y-131977648D01*
X178946477Y-131775466D01*
X178940313Y-131756496D01*
X178891619Y-131606630D01*
X178883220Y-131580781D01*
X178883218Y-131580778D01*
X178883218Y-131580776D01*
X178835180Y-131486498D01*
X178790287Y-131398390D01*
X178772701Y-131374185D01*
X178669971Y-131232786D01*
X178525213Y-131088028D01*
X178359614Y-130967715D01*
X178353006Y-130964348D01*
X178266917Y-130920483D01*
X178216123Y-130872511D01*
X178199328Y-130804690D01*
X178221865Y-130738555D01*
X178266917Y-130699516D01*
X178359610Y-130652287D01*
X178380770Y-130636913D01*
X178525213Y-130531971D01*
X178525215Y-130531968D01*
X178525219Y-130531966D01*
X178669966Y-130387219D01*
X178669968Y-130387215D01*
X178669971Y-130387213D01*
X178790284Y-130221614D01*
X178790285Y-130221613D01*
X178790287Y-130221610D01*
X178797117Y-130208204D01*
X178845091Y-130157409D01*
X178907602Y-130140500D01*
X182457903Y-130140500D01*
X182524942Y-130160185D01*
X182545584Y-130176819D01*
X184003922Y-131635157D01*
X184037407Y-131696480D01*
X184034173Y-131761155D01*
X184029522Y-131775468D01*
X183997500Y-131977648D01*
X183997500Y-132182351D01*
X184029522Y-132384534D01*
X184092781Y-132579223D01*
X184132669Y-132657506D01*
X184177555Y-132745600D01*
X184185715Y-132761613D01*
X184306028Y-132927213D01*
X184450786Y-133071971D01*
X184605749Y-133184556D01*
X184616390Y-133192287D01*
X184694749Y-133232213D01*
X184709080Y-133239515D01*
X184759876Y-133287490D01*
X184776671Y-133355311D01*
X184754134Y-133421446D01*
X184709080Y-133460485D01*
X184616386Y-133507715D01*
X184450786Y-133628028D01*
X184306028Y-133772786D01*
X184185715Y-133938386D01*
X184092781Y-134120776D01*
X184029522Y-134315465D01*
X183997500Y-134517648D01*
X183997500Y-134722351D01*
X184029522Y-134924534D01*
X184092781Y-135119223D01*
X184132669Y-135197506D01*
X184185657Y-135301501D01*
X184185715Y-135301613D01*
X184306028Y-135467213D01*
X184450786Y-135611971D01*
X184581322Y-135706809D01*
X184616390Y-135732287D01*
X184732607Y-135791503D01*
X184798776Y-135825218D01*
X184798778Y-135825218D01*
X184798781Y-135825220D01*
X184903137Y-135859127D01*
X184993465Y-135888477D01*
X185094557Y-135904488D01*
X185195648Y-135920500D01*
X185195649Y-135920500D01*
X185400351Y-135920500D01*
X185400352Y-135920500D01*
X185602534Y-135888477D01*
X185797219Y-135825220D01*
X185979610Y-135732287D01*
X186103648Y-135642169D01*
X186145213Y-135611971D01*
X186145215Y-135611968D01*
X186145219Y-135611966D01*
X186289966Y-135467219D01*
X186289968Y-135467215D01*
X186289971Y-135467213D01*
X186369171Y-135358202D01*
X186410287Y-135301610D01*
X186503220Y-135119219D01*
X186566477Y-134924534D01*
X186598500Y-134722352D01*
X186598500Y-134517648D01*
X186566477Y-134315466D01*
X186511619Y-134146630D01*
X188818400Y-134146630D01*
X188818400Y-134331369D01*
X188847298Y-134513820D01*
X188847298Y-134513823D01*
X188904380Y-134689503D01*
X188923629Y-134727281D01*
X188988247Y-134854100D01*
X189096828Y-135003549D01*
X189227451Y-135134172D01*
X189376900Y-135242753D01*
X189492413Y-135301610D01*
X189541496Y-135326619D01*
X189705364Y-135379862D01*
X189717181Y-135383702D01*
X189789901Y-135395219D01*
X189899631Y-135412600D01*
X189899636Y-135412600D01*
X190084369Y-135412600D01*
X190172819Y-135398590D01*
X190266819Y-135383702D01*
X190266822Y-135383701D01*
X190266823Y-135383701D01*
X190442503Y-135326619D01*
X190442503Y-135326618D01*
X190442506Y-135326618D01*
X190607100Y-135242753D01*
X190756549Y-135134172D01*
X190887172Y-135003549D01*
X190995753Y-134854100D01*
X191079618Y-134689506D01*
X191136702Y-134513819D01*
X191156817Y-134386819D01*
X191165600Y-134331369D01*
X191165600Y-134146631D01*
X191147786Y-134034163D01*
X191147786Y-134034162D01*
X191145484Y-134019630D01*
X223108400Y-134019630D01*
X223108400Y-134204369D01*
X223137298Y-134386820D01*
X223137298Y-134386823D01*
X223194380Y-134562503D01*
X223259090Y-134689503D01*
X223278247Y-134727100D01*
X223386828Y-134876549D01*
X223517451Y-135007172D01*
X223666900Y-135115753D01*
X223718617Y-135142104D01*
X223831496Y-135199619D01*
X223944516Y-135236341D01*
X224007181Y-135256702D01*
X224072522Y-135267051D01*
X224189631Y-135285600D01*
X224189636Y-135285600D01*
X224374369Y-135285600D01*
X224462819Y-135271590D01*
X224556819Y-135256702D01*
X224556822Y-135256701D01*
X224556823Y-135256701D01*
X224732503Y-135199619D01*
X224732503Y-135199618D01*
X224732506Y-135199618D01*
X224897100Y-135115753D01*
X225046549Y-135007172D01*
X225177172Y-134876549D01*
X225285753Y-134727100D01*
X225369618Y-134562506D01*
X225426702Y-134386819D01*
X225453395Y-134218287D01*
X225455600Y-134204369D01*
X225455600Y-134019630D01*
X225429022Y-133851830D01*
X225426702Y-133837181D01*
X225426701Y-133837177D01*
X225426701Y-133837176D01*
X225369619Y-133661496D01*
X225335018Y-133593588D01*
X225285753Y-133496900D01*
X225177172Y-133347451D01*
X225046549Y-133216828D01*
X224897100Y-133108247D01*
X224869724Y-133094298D01*
X224732503Y-133024380D01*
X224556821Y-132967298D01*
X224374369Y-132938400D01*
X224374364Y-132938400D01*
X224189636Y-132938400D01*
X224189631Y-132938400D01*
X224007179Y-132967298D01*
X224007176Y-132967298D01*
X223831496Y-133024380D01*
X223666899Y-133108247D01*
X223581633Y-133170196D01*
X223517451Y-133216828D01*
X223517449Y-133216830D01*
X223517448Y-133216830D01*
X223386830Y-133347448D01*
X223386830Y-133347449D01*
X223386828Y-133347451D01*
X223362744Y-133380600D01*
X223278247Y-133496899D01*
X223194380Y-133661496D01*
X223137298Y-133837176D01*
X223137298Y-133837179D01*
X223108400Y-134019630D01*
X191145484Y-134019630D01*
X191143280Y-134005713D01*
X191136702Y-133964181D01*
X191136701Y-133964177D01*
X191136701Y-133964176D01*
X191079619Y-133788496D01*
X190995752Y-133623899D01*
X190973730Y-133593588D01*
X190887172Y-133474451D01*
X190756549Y-133343828D01*
X190607100Y-133235247D01*
X190559026Y-133210752D01*
X190442503Y-133151380D01*
X190266821Y-133094298D01*
X190084369Y-133065400D01*
X190084364Y-133065400D01*
X189899636Y-133065400D01*
X189899631Y-133065400D01*
X189717179Y-133094298D01*
X189717176Y-133094298D01*
X189541496Y-133151380D01*
X189376899Y-133235247D01*
X189295183Y-133294618D01*
X189227451Y-133343828D01*
X189227449Y-133343830D01*
X189227448Y-133343830D01*
X189096830Y-133474448D01*
X189096830Y-133474449D01*
X189096828Y-133474451D01*
X189050196Y-133538633D01*
X188988247Y-133623899D01*
X188904380Y-133788496D01*
X188847298Y-133964176D01*
X188847298Y-133964179D01*
X188818400Y-134146630D01*
X186511619Y-134146630D01*
X186503220Y-134120781D01*
X186503218Y-134120778D01*
X186503218Y-134120776D01*
X186451681Y-134019630D01*
X186410287Y-133938390D01*
X186402556Y-133927749D01*
X186289971Y-133772786D01*
X186145213Y-133628028D01*
X185979614Y-133507715D01*
X185958386Y-133496899D01*
X185886917Y-133460483D01*
X185836123Y-133412511D01*
X185819328Y-133344690D01*
X185841865Y-133278555D01*
X185886917Y-133239516D01*
X185979610Y-133192287D01*
X186000770Y-133176913D01*
X186145213Y-133071971D01*
X186145215Y-133071968D01*
X186145219Y-133071966D01*
X186289966Y-132927219D01*
X186289968Y-132927215D01*
X186289971Y-132927213D01*
X186366339Y-132822100D01*
X186410287Y-132761610D01*
X186503220Y-132579219D01*
X186566477Y-132384534D01*
X186598500Y-132182352D01*
X186598500Y-131977648D01*
X186566477Y-131775466D01*
X186511619Y-131606630D01*
X191358400Y-131606630D01*
X191358400Y-131791369D01*
X191387298Y-131973820D01*
X191387298Y-131973823D01*
X191444380Y-132149503D01*
X191444382Y-132149506D01*
X191528247Y-132314100D01*
X191636828Y-132463549D01*
X191767451Y-132594172D01*
X191916900Y-132702753D01*
X192000988Y-132745598D01*
X192081496Y-132786619D01*
X192195181Y-132823557D01*
X192257181Y-132843702D01*
X192329901Y-132855219D01*
X192439631Y-132872600D01*
X192439636Y-132872600D01*
X192624369Y-132872600D01*
X192712819Y-132858590D01*
X192806819Y-132843702D01*
X192806822Y-132843701D01*
X192806823Y-132843701D01*
X192982503Y-132786619D01*
X192982503Y-132786618D01*
X192982506Y-132786618D01*
X193147100Y-132702753D01*
X193296549Y-132594172D01*
X193427172Y-132463549D01*
X193535753Y-132314100D01*
X193619618Y-132149506D01*
X193676702Y-131973819D01*
X193691590Y-131879819D01*
X193705600Y-131791369D01*
X193705600Y-131606630D01*
X193680609Y-131448849D01*
X193676702Y-131424181D01*
X193676701Y-131424177D01*
X193676701Y-131424176D01*
X193619619Y-131248496D01*
X193553930Y-131119575D01*
X193535753Y-131083900D01*
X193427172Y-130934451D01*
X193343756Y-130851035D01*
X220568400Y-130851035D01*
X220568400Y-132292970D01*
X220568401Y-132292976D01*
X220574808Y-132352583D01*
X220625102Y-132487428D01*
X220625106Y-132487435D01*
X220711352Y-132602644D01*
X220711355Y-132602647D01*
X220826564Y-132688893D01*
X220826571Y-132688897D01*
X220961417Y-132739191D01*
X220961416Y-132739191D01*
X220968344Y-132739935D01*
X221021027Y-132745600D01*
X222462972Y-132745599D01*
X222522583Y-132739191D01*
X222657431Y-132688896D01*
X222772646Y-132602646D01*
X222858896Y-132487431D01*
X222909191Y-132352583D01*
X222915600Y-132292973D01*
X222915599Y-130851028D01*
X222909191Y-130791417D01*
X222906386Y-130783897D01*
X222858897Y-130656571D01*
X222858893Y-130656564D01*
X222772647Y-130541355D01*
X222772644Y-130541352D01*
X222657435Y-130455106D01*
X222657428Y-130455102D01*
X222522582Y-130404808D01*
X222522583Y-130404808D01*
X222462983Y-130398401D01*
X222462981Y-130398400D01*
X222462973Y-130398400D01*
X222462964Y-130398400D01*
X221021029Y-130398400D01*
X221021023Y-130398401D01*
X220961416Y-130404808D01*
X220826571Y-130455102D01*
X220826564Y-130455106D01*
X220711355Y-130541352D01*
X220711352Y-130541355D01*
X220625106Y-130656564D01*
X220625102Y-130656571D01*
X220574808Y-130791417D01*
X220570210Y-130834191D01*
X220568401Y-130851023D01*
X220568400Y-130851035D01*
X193343756Y-130851035D01*
X193296549Y-130803828D01*
X193147100Y-130695247D01*
X193141136Y-130692208D01*
X192982503Y-130611380D01*
X192806821Y-130554298D01*
X192624369Y-130525400D01*
X192624364Y-130525400D01*
X192439636Y-130525400D01*
X192439631Y-130525400D01*
X192257179Y-130554298D01*
X192257176Y-130554298D01*
X192081496Y-130611380D01*
X191916899Y-130695247D01*
X191839060Y-130751801D01*
X191767451Y-130803828D01*
X191767449Y-130803830D01*
X191767448Y-130803830D01*
X191636830Y-130934448D01*
X191636830Y-130934449D01*
X191636828Y-130934451D01*
X191590196Y-130998633D01*
X191528247Y-131083899D01*
X191444380Y-131248496D01*
X191387298Y-131424176D01*
X191387298Y-131424179D01*
X191358400Y-131606630D01*
X186511619Y-131606630D01*
X186503220Y-131580781D01*
X186503218Y-131580778D01*
X186503218Y-131580776D01*
X186455180Y-131486498D01*
X186410287Y-131398390D01*
X186392701Y-131374185D01*
X186289971Y-131232786D01*
X186145213Y-131088028D01*
X185979614Y-130967715D01*
X185973006Y-130964348D01*
X185886917Y-130920483D01*
X185836123Y-130872511D01*
X185819328Y-130804690D01*
X185841865Y-130738555D01*
X185886917Y-130699516D01*
X185979610Y-130652287D01*
X186000770Y-130636913D01*
X186145213Y-130531971D01*
X186145215Y-130531968D01*
X186145219Y-130531966D01*
X186289966Y-130387219D01*
X186289968Y-130387215D01*
X186289971Y-130387213D01*
X186381418Y-130261345D01*
X186410287Y-130221610D01*
X186503220Y-130039219D01*
X186566477Y-129844534D01*
X186598500Y-129642352D01*
X186598500Y-129437648D01*
X186566477Y-129235466D01*
X186559889Y-129215191D01*
X186536030Y-129141761D01*
X186503220Y-129040781D01*
X186503218Y-129040778D01*
X186503218Y-129040776D01*
X186469503Y-128974607D01*
X186410287Y-128858390D01*
X186402556Y-128847749D01*
X186289971Y-128692786D01*
X186145213Y-128548028D01*
X185979614Y-128427715D01*
X185973006Y-128424348D01*
X185886917Y-128380483D01*
X185836123Y-128332511D01*
X185819328Y-128264690D01*
X185841865Y-128198555D01*
X185886917Y-128159516D01*
X185979610Y-128112287D01*
X186108482Y-128018657D01*
X186145213Y-127991971D01*
X186145215Y-127991968D01*
X186145219Y-127991966D01*
X186289966Y-127847219D01*
X186289968Y-127847215D01*
X186289971Y-127847213D01*
X186342732Y-127774590D01*
X186410287Y-127681610D01*
X186503220Y-127499219D01*
X186566477Y-127304534D01*
X186598500Y-127102352D01*
X186598500Y-126982778D01*
X194649500Y-126982778D01*
X194649500Y-127271221D01*
X194649501Y-127271238D01*
X194687149Y-127557206D01*
X194687150Y-127557211D01*
X194687151Y-127557217D01*
X194760776Y-127831990D01*
X194761809Y-127835844D01*
X194761814Y-127835860D01*
X194872191Y-128102336D01*
X194872199Y-128102352D01*
X195016420Y-128352148D01*
X195016431Y-128352164D01*
X195192024Y-128581002D01*
X195192030Y-128581009D01*
X195395990Y-128784969D01*
X195395997Y-128784975D01*
X195491674Y-128858390D01*
X195624844Y-128960575D01*
X195624851Y-128960579D01*
X195874647Y-129104800D01*
X195874663Y-129104808D01*
X196141139Y-129215185D01*
X196141145Y-129215186D01*
X196141155Y-129215191D01*
X196419783Y-129289849D01*
X196705772Y-129327500D01*
X196705779Y-129327500D01*
X196994221Y-129327500D01*
X196994228Y-129327500D01*
X197280217Y-129289849D01*
X197558845Y-129215191D01*
X197558857Y-129215185D01*
X197558860Y-129215185D01*
X197736082Y-129141778D01*
X226018500Y-129141778D01*
X226018500Y-129430221D01*
X226018501Y-129430238D01*
X226056149Y-129716206D01*
X226056150Y-129716211D01*
X226056151Y-129716217D01*
X226130809Y-129994844D01*
X226130814Y-129994860D01*
X226241191Y-130261336D01*
X226241199Y-130261352D01*
X226385420Y-130511148D01*
X226385431Y-130511164D01*
X226561024Y-130740002D01*
X226561030Y-130740009D01*
X226764990Y-130943969D01*
X226764996Y-130943974D01*
X226993844Y-131119575D01*
X226993851Y-131119579D01*
X227243647Y-131263800D01*
X227243663Y-131263808D01*
X227510139Y-131374185D01*
X227510145Y-131374186D01*
X227510155Y-131374191D01*
X227788783Y-131448849D01*
X228074772Y-131486500D01*
X228074779Y-131486500D01*
X228363221Y-131486500D01*
X228363228Y-131486500D01*
X228649217Y-131448849D01*
X228927845Y-131374191D01*
X228927857Y-131374185D01*
X228927860Y-131374185D01*
X229194336Y-131263808D01*
X229194339Y-131263806D01*
X229194345Y-131263804D01*
X229444156Y-131119575D01*
X229673004Y-130943974D01*
X229876974Y-130740004D01*
X230052575Y-130511156D01*
X230196804Y-130261345D01*
X230199535Y-130254753D01*
X230307185Y-129994860D01*
X230307185Y-129994857D01*
X230307191Y-129994845D01*
X230381849Y-129716217D01*
X230419500Y-129430228D01*
X230419500Y-129141778D01*
X233638500Y-129141778D01*
X233638500Y-129430221D01*
X233638501Y-129430238D01*
X233676149Y-129716206D01*
X233676150Y-129716211D01*
X233676151Y-129716217D01*
X233750809Y-129994844D01*
X233750814Y-129994860D01*
X233861191Y-130261336D01*
X233861199Y-130261352D01*
X234005420Y-130511148D01*
X234005431Y-130511164D01*
X234181024Y-130740002D01*
X234181030Y-130740009D01*
X234384990Y-130943969D01*
X234384996Y-130943974D01*
X234613844Y-131119575D01*
X234613851Y-131119579D01*
X234863647Y-131263800D01*
X234863663Y-131263808D01*
X235130139Y-131374185D01*
X235130145Y-131374186D01*
X235130155Y-131374191D01*
X235408783Y-131448849D01*
X235694772Y-131486500D01*
X235694779Y-131486500D01*
X235983221Y-131486500D01*
X235983228Y-131486500D01*
X236141122Y-131465713D01*
X239568500Y-131465713D01*
X239568500Y-131678286D01*
X239586410Y-131791369D01*
X239601754Y-131888243D01*
X239629559Y-131973819D01*
X239667444Y-132090414D01*
X239763951Y-132279820D01*
X239888890Y-132451786D01*
X240039213Y-132602109D01*
X240211182Y-132727050D01*
X240219946Y-132731516D01*
X240270742Y-132779491D01*
X240287536Y-132847312D01*
X240264998Y-132913447D01*
X240219946Y-132952484D01*
X240211182Y-132956949D01*
X240039213Y-133081890D01*
X239888890Y-133232213D01*
X239763951Y-133404179D01*
X239667444Y-133593585D01*
X239601753Y-133795760D01*
X239568500Y-134005713D01*
X239568500Y-134218286D01*
X239595193Y-134386823D01*
X239601754Y-134428243D01*
X239629559Y-134513819D01*
X239667444Y-134630414D01*
X239763951Y-134819820D01*
X239888890Y-134991786D01*
X240002430Y-135105326D01*
X240035915Y-135166649D01*
X240030931Y-135236341D01*
X239989059Y-135292274D01*
X239958083Y-135309189D01*
X239826669Y-135358203D01*
X239826664Y-135358206D01*
X239711455Y-135444452D01*
X239711452Y-135444455D01*
X239625206Y-135559664D01*
X239625202Y-135559671D01*
X239574908Y-135694517D01*
X239568863Y-135750750D01*
X239568501Y-135754123D01*
X239568500Y-135754135D01*
X239568500Y-137549870D01*
X239568501Y-137549876D01*
X239574908Y-137609483D01*
X239625202Y-137744328D01*
X239625206Y-137744335D01*
X239711452Y-137859544D01*
X239711455Y-137859547D01*
X239826664Y-137945793D01*
X239826671Y-137945797D01*
X239961517Y-137996091D01*
X239961516Y-137996091D01*
X239968444Y-137996835D01*
X240021127Y-138002500D01*
X241816872Y-138002499D01*
X241876483Y-137996091D01*
X242011331Y-137945796D01*
X242126546Y-137859546D01*
X242212796Y-137744331D01*
X242263091Y-137609483D01*
X242269500Y-137549873D01*
X242269499Y-135754128D01*
X242263091Y-135694517D01*
X242251002Y-135662106D01*
X242212797Y-135559671D01*
X242212793Y-135559664D01*
X242126547Y-135444455D01*
X242126544Y-135444452D01*
X242011335Y-135358206D01*
X242011328Y-135358202D01*
X241879917Y-135309189D01*
X241823983Y-135267318D01*
X241799566Y-135201853D01*
X241814418Y-135133580D01*
X241835563Y-135105332D01*
X241949104Y-134991792D01*
X241997970Y-134924534D01*
X242073761Y-134820215D01*
X242074051Y-134819816D01*
X242170557Y-134630412D01*
X242236246Y-134428243D01*
X242269500Y-134218287D01*
X242269500Y-134005713D01*
X242236246Y-133795757D01*
X242170557Y-133593588D01*
X242074051Y-133404184D01*
X242074049Y-133404181D01*
X242074048Y-133404179D01*
X241949109Y-133232213D01*
X241798786Y-133081890D01*
X241626820Y-132956951D01*
X241626115Y-132956591D01*
X241618054Y-132952485D01*
X241567259Y-132904512D01*
X241550463Y-132836692D01*
X241572999Y-132770556D01*
X241618054Y-132731515D01*
X241626816Y-132727051D01*
X241679332Y-132688896D01*
X241798786Y-132602109D01*
X241798788Y-132602106D01*
X241798792Y-132602104D01*
X241949104Y-132451792D01*
X241949106Y-132451788D01*
X241949109Y-132451786D01*
X242074048Y-132279820D01*
X242074047Y-132279820D01*
X242074051Y-132279816D01*
X242170557Y-132090412D01*
X242236246Y-131888243D01*
X242269500Y-131678287D01*
X242269500Y-131465713D01*
X242236246Y-131255757D01*
X242170557Y-131053588D01*
X242074051Y-130864184D01*
X242074049Y-130864181D01*
X242074048Y-130864179D01*
X241949109Y-130692213D01*
X241798786Y-130541890D01*
X241626820Y-130416951D01*
X241437414Y-130320444D01*
X241437413Y-130320443D01*
X241437412Y-130320443D01*
X241235243Y-130254754D01*
X241235241Y-130254753D01*
X241235240Y-130254753D01*
X241073957Y-130229208D01*
X241025287Y-130221500D01*
X240812713Y-130221500D01*
X240764042Y-130229208D01*
X240602760Y-130254753D01*
X240400585Y-130320444D01*
X240211179Y-130416951D01*
X240039213Y-130541890D01*
X239888890Y-130692213D01*
X239763951Y-130864179D01*
X239667444Y-131053585D01*
X239601753Y-131255760D01*
X239568500Y-131465713D01*
X236141122Y-131465713D01*
X236269217Y-131448849D01*
X236547845Y-131374191D01*
X236739339Y-131294872D01*
X236814336Y-131263808D01*
X236814339Y-131263806D01*
X236814345Y-131263804D01*
X237064156Y-131119575D01*
X237293004Y-130943974D01*
X237496974Y-130740004D01*
X237672575Y-130511156D01*
X237816804Y-130261345D01*
X237819535Y-130254753D01*
X237927185Y-129994860D01*
X237927185Y-129994857D01*
X237927191Y-129994845D01*
X238001849Y-129716217D01*
X238039500Y-129430228D01*
X238039500Y-129141772D01*
X238001849Y-128855783D01*
X237927191Y-128577155D01*
X237927186Y-128577145D01*
X237927185Y-128577139D01*
X237816808Y-128310663D01*
X237816800Y-128310647D01*
X237672579Y-128060851D01*
X237672575Y-128060844D01*
X237525626Y-127869336D01*
X237496975Y-127831997D01*
X237496969Y-127831990D01*
X237293009Y-127628030D01*
X237293002Y-127628024D01*
X237064164Y-127452431D01*
X237064162Y-127452429D01*
X237064156Y-127452425D01*
X237064151Y-127452422D01*
X237064148Y-127452420D01*
X236814352Y-127308199D01*
X236814336Y-127308191D01*
X236547860Y-127197814D01*
X236547848Y-127197810D01*
X236547845Y-127197809D01*
X236269217Y-127123151D01*
X236269211Y-127123150D01*
X236269206Y-127123149D01*
X235983238Y-127085501D01*
X235983233Y-127085500D01*
X235983228Y-127085500D01*
X235694772Y-127085500D01*
X235694766Y-127085500D01*
X235694761Y-127085501D01*
X235408793Y-127123149D01*
X235408786Y-127123150D01*
X235408783Y-127123151D01*
X235130155Y-127197809D01*
X235130139Y-127197814D01*
X234863663Y-127308191D01*
X234863647Y-127308199D01*
X234613851Y-127452420D01*
X234613835Y-127452431D01*
X234384997Y-127628024D01*
X234384990Y-127628030D01*
X234181030Y-127831990D01*
X234181024Y-127831997D01*
X234005431Y-128060835D01*
X234005420Y-128060851D01*
X233861199Y-128310647D01*
X233861191Y-128310663D01*
X233750814Y-128577139D01*
X233750809Y-128577155D01*
X233704075Y-128751571D01*
X233676152Y-128855780D01*
X233676149Y-128855793D01*
X233638501Y-129141761D01*
X233638500Y-129141778D01*
X230419500Y-129141778D01*
X230419500Y-129141772D01*
X230381849Y-128855783D01*
X230307191Y-128577155D01*
X230307186Y-128577145D01*
X230307185Y-128577139D01*
X230196808Y-128310663D01*
X230196800Y-128310647D01*
X230052579Y-128060851D01*
X230052575Y-128060844D01*
X229905626Y-127869336D01*
X229876975Y-127831997D01*
X229876969Y-127831990D01*
X229673009Y-127628030D01*
X229673002Y-127628024D01*
X229444164Y-127452431D01*
X229444162Y-127452429D01*
X229444156Y-127452425D01*
X229444151Y-127452422D01*
X229444148Y-127452420D01*
X229194352Y-127308199D01*
X229194336Y-127308191D01*
X228927860Y-127197814D01*
X228927848Y-127197810D01*
X228927845Y-127197809D01*
X228649217Y-127123151D01*
X228649211Y-127123150D01*
X228649206Y-127123149D01*
X228363238Y-127085501D01*
X228363233Y-127085500D01*
X228363228Y-127085500D01*
X228074772Y-127085500D01*
X228074766Y-127085500D01*
X228074761Y-127085501D01*
X227788793Y-127123149D01*
X227788786Y-127123150D01*
X227788783Y-127123151D01*
X227510155Y-127197809D01*
X227510139Y-127197814D01*
X227243663Y-127308191D01*
X227243647Y-127308199D01*
X226993851Y-127452420D01*
X226993835Y-127452431D01*
X226764997Y-127628024D01*
X226764990Y-127628030D01*
X226561030Y-127831990D01*
X226561024Y-127831997D01*
X226385431Y-128060835D01*
X226385420Y-128060851D01*
X226241199Y-128310647D01*
X226241191Y-128310663D01*
X226130814Y-128577139D01*
X226130809Y-128577155D01*
X226084075Y-128751571D01*
X226056152Y-128855780D01*
X226056149Y-128855793D01*
X226018501Y-129141761D01*
X226018500Y-129141778D01*
X197736082Y-129141778D01*
X197825336Y-129104808D01*
X197825339Y-129104806D01*
X197825345Y-129104804D01*
X198075156Y-128960575D01*
X198304004Y-128784974D01*
X198507974Y-128581004D01*
X198683575Y-128352156D01*
X198827804Y-128102345D01*
X198862469Y-128018657D01*
X198938185Y-127835860D01*
X198938185Y-127835857D01*
X198938191Y-127835845D01*
X199012849Y-127557217D01*
X199050500Y-127271228D01*
X199050500Y-126982772D01*
X199012849Y-126696783D01*
X198938191Y-126418155D01*
X198938186Y-126418145D01*
X198938185Y-126418139D01*
X198827808Y-126151663D01*
X198827800Y-126151647D01*
X198683579Y-125901851D01*
X198683575Y-125901844D01*
X198510939Y-125676860D01*
X198507975Y-125672997D01*
X198507969Y-125672990D01*
X198304009Y-125469030D01*
X198304002Y-125469024D01*
X198075164Y-125293431D01*
X198075162Y-125293430D01*
X198075156Y-125293425D01*
X197944517Y-125218000D01*
X197825352Y-125149199D01*
X197825336Y-125149191D01*
X197558860Y-125038814D01*
X197558848Y-125038810D01*
X197558845Y-125038809D01*
X197280217Y-124964151D01*
X197280211Y-124964150D01*
X197280206Y-124964149D01*
X196994238Y-124926501D01*
X196994233Y-124926500D01*
X196994228Y-124926500D01*
X196705772Y-124926500D01*
X196705766Y-124926500D01*
X196705761Y-124926501D01*
X196419793Y-124964149D01*
X196419786Y-124964150D01*
X196419783Y-124964151D01*
X196141155Y-125038809D01*
X196141139Y-125038814D01*
X195874663Y-125149191D01*
X195874647Y-125149199D01*
X195624851Y-125293420D01*
X195624835Y-125293431D01*
X195395997Y-125469024D01*
X195395990Y-125469030D01*
X195192030Y-125672990D01*
X195192024Y-125672997D01*
X195016431Y-125901835D01*
X195016420Y-125901851D01*
X194872199Y-126151647D01*
X194872191Y-126151663D01*
X194761814Y-126418139D01*
X194761809Y-126418155D01*
X194739670Y-126500781D01*
X194687152Y-126696780D01*
X194687149Y-126696793D01*
X194649501Y-126982761D01*
X194649500Y-126982778D01*
X186598500Y-126982778D01*
X186598500Y-126897648D01*
X186582900Y-126799155D01*
X186566477Y-126695465D01*
X186503218Y-126500776D01*
X186469503Y-126434607D01*
X186410287Y-126318390D01*
X186373676Y-126267999D01*
X186289971Y-126152786D01*
X186145213Y-126008028D01*
X185979613Y-125887715D01*
X185979612Y-125887714D01*
X185979610Y-125887713D01*
X185905645Y-125850026D01*
X185797223Y-125794781D01*
X185602534Y-125731522D01*
X185427995Y-125703878D01*
X185400352Y-125699500D01*
X185195648Y-125699500D01*
X185171329Y-125703351D01*
X184993465Y-125731522D01*
X184798776Y-125794781D01*
X184616386Y-125887715D01*
X184450786Y-126008028D01*
X184306028Y-126152786D01*
X184185715Y-126318386D01*
X184092781Y-126500776D01*
X184029522Y-126695465D01*
X183997500Y-126897648D01*
X183997500Y-127102351D01*
X184029522Y-127304534D01*
X184092781Y-127499223D01*
X184185715Y-127681613D01*
X184306028Y-127847213D01*
X184450786Y-127991971D01*
X184605749Y-128104556D01*
X184616390Y-128112287D01*
X184707840Y-128158883D01*
X184709080Y-128159515D01*
X184759876Y-128207490D01*
X184776671Y-128275311D01*
X184754134Y-128341446D01*
X184709080Y-128380485D01*
X184616386Y-128427715D01*
X184450786Y-128548028D01*
X184306028Y-128692786D01*
X184185715Y-128858386D01*
X184092781Y-129040776D01*
X184029522Y-129235465D01*
X183997500Y-129437648D01*
X183997500Y-129630903D01*
X183977815Y-129697942D01*
X183925011Y-129743697D01*
X183855853Y-129753641D01*
X183792297Y-129724616D01*
X183785819Y-129718584D01*
X183245590Y-129178355D01*
X183245588Y-129178352D01*
X183126717Y-129059481D01*
X183126716Y-129059480D01*
X183039904Y-129009360D01*
X183039904Y-129009359D01*
X183039900Y-129009358D01*
X182989785Y-128980423D01*
X182837057Y-128939499D01*
X182678943Y-128939499D01*
X182671347Y-128939499D01*
X182671331Y-128939500D01*
X178907602Y-128939500D01*
X178840563Y-128919815D01*
X178797117Y-128871795D01*
X178790284Y-128858385D01*
X178669971Y-128692786D01*
X178525219Y-128548034D01*
X178458841Y-128499808D01*
X178431547Y-128479978D01*
X178388882Y-128424649D01*
X178382903Y-128355036D01*
X178415508Y-128293240D01*
X178465426Y-128261955D01*
X178547334Y-128234814D01*
X178696656Y-128142712D01*
X178820712Y-128018656D01*
X178912814Y-127869334D01*
X178967999Y-127702797D01*
X178978500Y-127600009D01*
X178978499Y-126399992D01*
X178967999Y-126297203D01*
X178912814Y-126130666D01*
X178820712Y-125981344D01*
X178696656Y-125857288D01*
X178547334Y-125765186D01*
X178380797Y-125710001D01*
X178380795Y-125710000D01*
X178278010Y-125699500D01*
X177077998Y-125699500D01*
X177077981Y-125699501D01*
X176975203Y-125710000D01*
X176975200Y-125710001D01*
X176808668Y-125765185D01*
X176808663Y-125765187D01*
X176659342Y-125857289D01*
X176535289Y-125981342D01*
X176443187Y-126130663D01*
X176443185Y-126130668D01*
X176429085Y-126173220D01*
X176388001Y-126297203D01*
X176388001Y-126297204D01*
X176388000Y-126297204D01*
X176377500Y-126399983D01*
X146808205Y-126399983D01*
X146740575Y-126282844D01*
X146640774Y-126152781D01*
X146564975Y-126053997D01*
X146564969Y-126053990D01*
X146361009Y-125850030D01*
X146361002Y-125850024D01*
X146132164Y-125674431D01*
X146132162Y-125674429D01*
X146132156Y-125674425D01*
X146132151Y-125674422D01*
X146132148Y-125674420D01*
X145882352Y-125530199D01*
X145882336Y-125530191D01*
X145615860Y-125419814D01*
X145615848Y-125419810D01*
X145615845Y-125419809D01*
X145337217Y-125345151D01*
X145337211Y-125345150D01*
X145337206Y-125345149D01*
X145051238Y-125307501D01*
X145051233Y-125307500D01*
X145051228Y-125307500D01*
X144762772Y-125307500D01*
X144762766Y-125307500D01*
X144762761Y-125307501D01*
X144476793Y-125345149D01*
X144476786Y-125345150D01*
X144476783Y-125345151D01*
X144278779Y-125398206D01*
X144198155Y-125419809D01*
X144198139Y-125419814D01*
X143931663Y-125530191D01*
X143931647Y-125530199D01*
X143681851Y-125674420D01*
X143681835Y-125674431D01*
X143452997Y-125850024D01*
X143452990Y-125850030D01*
X143249030Y-126053990D01*
X143249024Y-126053997D01*
X143073431Y-126282835D01*
X143073420Y-126282851D01*
X142929199Y-126532647D01*
X142929191Y-126532663D01*
X142818814Y-126799139D01*
X142818809Y-126799155D01*
X142761778Y-127012000D01*
X142744152Y-127077780D01*
X142744149Y-127077793D01*
X142706501Y-127363761D01*
X142706500Y-127363778D01*
X126268347Y-127363778D01*
X126225212Y-127293844D01*
X126101156Y-127169788D01*
X125991823Y-127102351D01*
X125951836Y-127077687D01*
X125951831Y-127077685D01*
X125950362Y-127077198D01*
X125785297Y-127022501D01*
X125785295Y-127022500D01*
X125682510Y-127012000D01*
X124482498Y-127012000D01*
X124482481Y-127012001D01*
X124379703Y-127022500D01*
X124379700Y-127022501D01*
X124213168Y-127077685D01*
X124213163Y-127077687D01*
X124063842Y-127169789D01*
X123939789Y-127293842D01*
X123847687Y-127443163D01*
X123847685Y-127443168D01*
X123819849Y-127527170D01*
X123792501Y-127609703D01*
X123792501Y-127609704D01*
X123792500Y-127609704D01*
X123782000Y-127712483D01*
X46926600Y-127712483D01*
X46926600Y-118249135D01*
X59040500Y-118249135D01*
X59040500Y-120944870D01*
X59040501Y-120944876D01*
X59046908Y-121004483D01*
X59097202Y-121139328D01*
X59097206Y-121139335D01*
X59144105Y-121201983D01*
X59183454Y-121254546D01*
X59290811Y-121334914D01*
X59293548Y-121338569D01*
X59297703Y-121340467D01*
X59314293Y-121366281D01*
X59332682Y-121390847D01*
X59333697Y-121396476D01*
X59335477Y-121399245D01*
X59340500Y-121434180D01*
X59340500Y-121606819D01*
X59320815Y-121673858D01*
X59290812Y-121706085D01*
X59183452Y-121786455D01*
X59097206Y-121901664D01*
X59097202Y-121901671D01*
X59046908Y-122036517D01*
X59040501Y-122096116D01*
X59040501Y-122096123D01*
X59040500Y-122096135D01*
X59040500Y-124791870D01*
X59040501Y-124791876D01*
X59046908Y-124851483D01*
X59097202Y-124986328D01*
X59097206Y-124986335D01*
X59183452Y-125101544D01*
X59183455Y-125101547D01*
X59298664Y-125187793D01*
X59298671Y-125187797D01*
X59433517Y-125238091D01*
X59433516Y-125238091D01*
X59440444Y-125238835D01*
X59493127Y-125244500D01*
X60435568Y-125244499D01*
X60483021Y-125253938D01*
X60527916Y-125272534D01*
X60696581Y-125342398D01*
X60949884Y-125410270D01*
X61209880Y-125444500D01*
X61209887Y-125444500D01*
X61472113Y-125444500D01*
X61472120Y-125444500D01*
X61732116Y-125410270D01*
X61985419Y-125342398D01*
X62198979Y-125253937D01*
X62246432Y-125244499D01*
X63188871Y-125244499D01*
X63188872Y-125244499D01*
X63248483Y-125238091D01*
X63383331Y-125187796D01*
X63498546Y-125101546D01*
X63584796Y-124986331D01*
X63635091Y-124851483D01*
X63641500Y-124791873D01*
X63641500Y-124368013D01*
X206980000Y-124368013D01*
X206980000Y-124718000D01*
X207964314Y-124718000D01*
X207959920Y-124722394D01*
X207907259Y-124813606D01*
X207880000Y-124915339D01*
X207880000Y-125020661D01*
X207907259Y-125122394D01*
X207959920Y-125213606D01*
X207964314Y-125218000D01*
X206980001Y-125218000D01*
X206980001Y-125567986D01*
X206990494Y-125670697D01*
X207045641Y-125837119D01*
X207045643Y-125837124D01*
X207137684Y-125986345D01*
X207261654Y-126110315D01*
X207410875Y-126202356D01*
X207410880Y-126202358D01*
X207577302Y-126257505D01*
X207577309Y-126257506D01*
X207680019Y-126267999D01*
X208029999Y-126267999D01*
X208030000Y-126267998D01*
X208030000Y-125283686D01*
X208034394Y-125288080D01*
X208125606Y-125340741D01*
X208227339Y-125368000D01*
X208332661Y-125368000D01*
X208434394Y-125340741D01*
X208525606Y-125288080D01*
X208530000Y-125283686D01*
X208530000Y-126267999D01*
X208879972Y-126267999D01*
X208879986Y-126267998D01*
X208982697Y-126257505D01*
X209149119Y-126202358D01*
X209149124Y-126202356D01*
X209298345Y-126110315D01*
X209422315Y-125986345D01*
X209514356Y-125837124D01*
X209514358Y-125837119D01*
X209569505Y-125670697D01*
X209569506Y-125670690D01*
X209579999Y-125567986D01*
X209580000Y-125567969D01*
X209580000Y-125218000D01*
X208595686Y-125218000D01*
X208600080Y-125213606D01*
X208652741Y-125122394D01*
X208680000Y-125020661D01*
X208680000Y-124915339D01*
X208666685Y-124865648D01*
X214599500Y-124865648D01*
X214599500Y-125070351D01*
X214631522Y-125272534D01*
X214694781Y-125467223D01*
X214787715Y-125649613D01*
X214908028Y-125815213D01*
X215052786Y-125959971D01*
X215207749Y-126072556D01*
X215218390Y-126080287D01*
X215317264Y-126130666D01*
X215400776Y-126173218D01*
X215400778Y-126173218D01*
X215400781Y-126173220D01*
X215490459Y-126202358D01*
X215595465Y-126236477D01*
X215696557Y-126252488D01*
X215797648Y-126268500D01*
X215797649Y-126268500D01*
X216002351Y-126268500D01*
X216002352Y-126268500D01*
X216204534Y-126236477D01*
X216399219Y-126173220D01*
X216581610Y-126080287D01*
X216681067Y-126008028D01*
X216747213Y-125959971D01*
X216747215Y-125959968D01*
X216747219Y-125959966D01*
X216891966Y-125815219D01*
X216891968Y-125815215D01*
X216891971Y-125815213D01*
X216952775Y-125731522D01*
X217012287Y-125649610D01*
X217105220Y-125467219D01*
X217168477Y-125272534D01*
X217200500Y-125070352D01*
X217200500Y-124865648D01*
X217200500Y-124865647D01*
X217196297Y-124839110D01*
X217193869Y-124823778D01*
X219541500Y-124823778D01*
X219541500Y-125112221D01*
X219541501Y-125112238D01*
X219579149Y-125398206D01*
X219579150Y-125398211D01*
X219579151Y-125398217D01*
X219652160Y-125670690D01*
X219653809Y-125676844D01*
X219653814Y-125676860D01*
X219764191Y-125943336D01*
X219764199Y-125943352D01*
X219908420Y-126193148D01*
X219908431Y-126193164D01*
X220084024Y-126422002D01*
X220084030Y-126422009D01*
X220287990Y-126625969D01*
X220287997Y-126625975D01*
X220378560Y-126695466D01*
X220516844Y-126801575D01*
X220516851Y-126801579D01*
X220766647Y-126945800D01*
X220766663Y-126945808D01*
X221033139Y-127056185D01*
X221033145Y-127056186D01*
X221033155Y-127056191D01*
X221311783Y-127130849D01*
X221597772Y-127168500D01*
X221597779Y-127168500D01*
X221886221Y-127168500D01*
X221886228Y-127168500D01*
X222172217Y-127130849D01*
X222450845Y-127056191D01*
X222450857Y-127056185D01*
X222450860Y-127056185D01*
X222717336Y-126945808D01*
X222717339Y-126945806D01*
X222717345Y-126945804D01*
X222967156Y-126801575D01*
X223196004Y-126625974D01*
X223399974Y-126422004D01*
X223575575Y-126193156D01*
X223719804Y-125943345D01*
X223742848Y-125887713D01*
X223830185Y-125676860D01*
X223830185Y-125676857D01*
X223830191Y-125676845D01*
X223904849Y-125398217D01*
X223942500Y-125112228D01*
X223942500Y-124823772D01*
X223904849Y-124537783D01*
X223830191Y-124259155D01*
X223830186Y-124259145D01*
X223830185Y-124259139D01*
X223719808Y-123992663D01*
X223719800Y-123992647D01*
X223575579Y-123742851D01*
X223575575Y-123742844D01*
X223399974Y-123513996D01*
X223399969Y-123513990D01*
X223196009Y-123310030D01*
X223196002Y-123310024D01*
X222967164Y-123134431D01*
X222967162Y-123134429D01*
X222967156Y-123134425D01*
X222967151Y-123134422D01*
X222967148Y-123134420D01*
X222717352Y-122990199D01*
X222717336Y-122990191D01*
X222450860Y-122879814D01*
X222450848Y-122879810D01*
X222450845Y-122879809D01*
X222172217Y-122805151D01*
X222172211Y-122805150D01*
X222172206Y-122805149D01*
X221886238Y-122767501D01*
X221886233Y-122767500D01*
X221886228Y-122767500D01*
X221597772Y-122767500D01*
X221597766Y-122767500D01*
X221597761Y-122767501D01*
X221311793Y-122805149D01*
X221311786Y-122805150D01*
X221311783Y-122805151D01*
X221242016Y-122823845D01*
X221033155Y-122879809D01*
X221033139Y-122879814D01*
X220766663Y-122990191D01*
X220766647Y-122990199D01*
X220516851Y-123134420D01*
X220516835Y-123134431D01*
X220287997Y-123310024D01*
X220287990Y-123310030D01*
X220084030Y-123513990D01*
X220084024Y-123513997D01*
X219908431Y-123742835D01*
X219908420Y-123742851D01*
X219764199Y-123992647D01*
X219764191Y-123992663D01*
X219653814Y-124259139D01*
X219653809Y-124259155D01*
X219646513Y-124286386D01*
X219579152Y-124537780D01*
X219579149Y-124537793D01*
X219541501Y-124823761D01*
X219541500Y-124823778D01*
X217193869Y-124823778D01*
X217168477Y-124663465D01*
X217105218Y-124468776D01*
X217071503Y-124402607D01*
X217012287Y-124286390D01*
X216992488Y-124259139D01*
X216891971Y-124120786D01*
X216747213Y-123976028D01*
X216581613Y-123855715D01*
X216581612Y-123855714D01*
X216581610Y-123855713D01*
X216522675Y-123825684D01*
X216399223Y-123762781D01*
X216204534Y-123699522D01*
X216029995Y-123671878D01*
X216002352Y-123667500D01*
X215797648Y-123667500D01*
X215773329Y-123671351D01*
X215595465Y-123699522D01*
X215400776Y-123762781D01*
X215218386Y-123855715D01*
X215052786Y-123976028D01*
X214908028Y-124120786D01*
X214787715Y-124286386D01*
X214694781Y-124468776D01*
X214631522Y-124663465D01*
X214599500Y-124865648D01*
X208666685Y-124865648D01*
X208652741Y-124813606D01*
X208600080Y-124722394D01*
X208595686Y-124718000D01*
X209579999Y-124718000D01*
X209579999Y-124368028D01*
X209579998Y-124368013D01*
X209569505Y-124265302D01*
X209514358Y-124098880D01*
X209514356Y-124098875D01*
X209422315Y-123949654D01*
X209298345Y-123825684D01*
X209149124Y-123733643D01*
X209149119Y-123733641D01*
X208982697Y-123678494D01*
X208982690Y-123678493D01*
X208879986Y-123668000D01*
X208530000Y-123668000D01*
X208530000Y-124652314D01*
X208525606Y-124647920D01*
X208434394Y-124595259D01*
X208332661Y-124568000D01*
X208227339Y-124568000D01*
X208125606Y-124595259D01*
X208034394Y-124647920D01*
X208030000Y-124652314D01*
X208030000Y-123668000D01*
X207680028Y-123668000D01*
X207680012Y-123668001D01*
X207577302Y-123678494D01*
X207410880Y-123733641D01*
X207410875Y-123733643D01*
X207261654Y-123825684D01*
X207137684Y-123949654D01*
X207045643Y-124098875D01*
X207045641Y-124098880D01*
X206990494Y-124265302D01*
X206990493Y-124265309D01*
X206980000Y-124368013D01*
X63641500Y-124368013D01*
X63641499Y-123310030D01*
X63641499Y-122096129D01*
X63641498Y-122096123D01*
X63641497Y-122096116D01*
X63635091Y-122036517D01*
X63606512Y-121959894D01*
X63584797Y-121901671D01*
X63584793Y-121901664D01*
X63498547Y-121786455D01*
X63391188Y-121706085D01*
X63388451Y-121702429D01*
X63384297Y-121700532D01*
X63367705Y-121674714D01*
X63349318Y-121650151D01*
X63348302Y-121644523D01*
X63346523Y-121641754D01*
X63341500Y-121606819D01*
X63341500Y-121434180D01*
X63361185Y-121367141D01*
X63391187Y-121334914D01*
X63498546Y-121254546D01*
X63584796Y-121139331D01*
X63635091Y-121004483D01*
X63641500Y-120944873D01*
X63641499Y-119681513D01*
X75958500Y-119681513D01*
X75958500Y-120031500D01*
X76942814Y-120031500D01*
X76938420Y-120035894D01*
X76885759Y-120127106D01*
X76858500Y-120228839D01*
X76858500Y-120334161D01*
X76885759Y-120435894D01*
X76938420Y-120527106D01*
X76942814Y-120531500D01*
X75958501Y-120531500D01*
X75958501Y-120881486D01*
X75968994Y-120984197D01*
X76024141Y-121150619D01*
X76024143Y-121150624D01*
X76116184Y-121299845D01*
X76240154Y-121423815D01*
X76389375Y-121515856D01*
X76389380Y-121515858D01*
X76555802Y-121571005D01*
X76555809Y-121571006D01*
X76658519Y-121581499D01*
X77008499Y-121581499D01*
X77008500Y-121581498D01*
X77008500Y-120597186D01*
X77012894Y-120601580D01*
X77104106Y-120654241D01*
X77205839Y-120681500D01*
X77311161Y-120681500D01*
X77412894Y-120654241D01*
X77504106Y-120601580D01*
X77508500Y-120597186D01*
X77508500Y-121581499D01*
X77858472Y-121581499D01*
X77858486Y-121581498D01*
X77961197Y-121571005D01*
X78127619Y-121515858D01*
X78127624Y-121515856D01*
X78276845Y-121423815D01*
X78400815Y-121299845D01*
X78492856Y-121150624D01*
X78492858Y-121150619D01*
X78548005Y-120984197D01*
X78548006Y-120984190D01*
X78558499Y-120881486D01*
X78558500Y-120881473D01*
X78558500Y-120531500D01*
X77574186Y-120531500D01*
X77578580Y-120527106D01*
X77631241Y-120435894D01*
X77658500Y-120334161D01*
X77658500Y-120228839D01*
X77645185Y-120179148D01*
X83578000Y-120179148D01*
X83578000Y-120383851D01*
X83610022Y-120586034D01*
X83673281Y-120780723D01*
X83719742Y-120871906D01*
X83763752Y-120958281D01*
X83766215Y-120963113D01*
X83886528Y-121128713D01*
X84031286Y-121273471D01*
X84186249Y-121386056D01*
X84196890Y-121393787D01*
X84273377Y-121432759D01*
X84379276Y-121486718D01*
X84379278Y-121486718D01*
X84379281Y-121486720D01*
X84468959Y-121515858D01*
X84573965Y-121549977D01*
X84608836Y-121555500D01*
X84776148Y-121582000D01*
X84776149Y-121582000D01*
X84980851Y-121582000D01*
X84980852Y-121582000D01*
X85183034Y-121549977D01*
X85377719Y-121486720D01*
X85560110Y-121393787D01*
X85680560Y-121306276D01*
X85725713Y-121273471D01*
X85725715Y-121273468D01*
X85725719Y-121273466D01*
X85870466Y-121128719D01*
X85870468Y-121128715D01*
X85870471Y-121128713D01*
X85936395Y-121037975D01*
X85990787Y-120963110D01*
X86083720Y-120780719D01*
X86146977Y-120586034D01*
X86179000Y-120383852D01*
X86179000Y-120179148D01*
X86173842Y-120146581D01*
X86146977Y-119976965D01*
X86115958Y-119881500D01*
X86083720Y-119782281D01*
X86083718Y-119782278D01*
X86083718Y-119782276D01*
X86069005Y-119753401D01*
X86042017Y-119700435D01*
X98648400Y-119700435D01*
X98648400Y-121142370D01*
X98648401Y-121142376D01*
X98654808Y-121201983D01*
X98705102Y-121336828D01*
X98705106Y-121336835D01*
X98791352Y-121452044D01*
X98791355Y-121452047D01*
X98906564Y-121538293D01*
X98906571Y-121538297D01*
X99041417Y-121588591D01*
X99041416Y-121588591D01*
X99048344Y-121589335D01*
X99101027Y-121595000D01*
X100542972Y-121594999D01*
X100602583Y-121588591D01*
X100737431Y-121538296D01*
X100852646Y-121452046D01*
X100938896Y-121336831D01*
X100989191Y-121201983D01*
X100995600Y-121142373D01*
X100995599Y-120329030D01*
X103728400Y-120329030D01*
X103728400Y-120513769D01*
X103757298Y-120696220D01*
X103757298Y-120696223D01*
X103814380Y-120871903D01*
X103858392Y-120958281D01*
X103898247Y-121036500D01*
X104006828Y-121185949D01*
X104137451Y-121316572D01*
X104286900Y-121425153D01*
X104407728Y-121486718D01*
X104451496Y-121509019D01*
X104555609Y-121542847D01*
X104627181Y-121566102D01*
X104688431Y-121575803D01*
X104809631Y-121595000D01*
X104809636Y-121595000D01*
X104994369Y-121595000D01*
X105082819Y-121580990D01*
X105176819Y-121566102D01*
X105176822Y-121566101D01*
X105176823Y-121566101D01*
X105352503Y-121509019D01*
X105352503Y-121509018D01*
X105352506Y-121509018D01*
X105517100Y-121425153D01*
X105666549Y-121316572D01*
X105797172Y-121185949D01*
X105905753Y-121036500D01*
X105989618Y-120871906D01*
X105989619Y-120871903D01*
X106046701Y-120696223D01*
X106046701Y-120696222D01*
X106046702Y-120696219D01*
X106066512Y-120571143D01*
X106075600Y-120513769D01*
X106075600Y-120329030D01*
X106051860Y-120179148D01*
X106046702Y-120146581D01*
X106046701Y-120146577D01*
X106046701Y-120146576D01*
X105989619Y-119970896D01*
X105984791Y-119961420D01*
X105905753Y-119806300D01*
X105797172Y-119656851D01*
X105666549Y-119526228D01*
X105517100Y-119417647D01*
X105464316Y-119390752D01*
X105369024Y-119342198D01*
X105369022Y-119342196D01*
X105352506Y-119333781D01*
X105176821Y-119276698D01*
X104994369Y-119247800D01*
X104994364Y-119247800D01*
X104809636Y-119247800D01*
X104809631Y-119247800D01*
X104627179Y-119276698D01*
X104627176Y-119276698D01*
X104451496Y-119333780D01*
X104286899Y-119417647D01*
X104264005Y-119434281D01*
X104137451Y-119526228D01*
X104137449Y-119526230D01*
X104137448Y-119526230D01*
X104006830Y-119656848D01*
X104006830Y-119656849D01*
X104006828Y-119656851D01*
X103960196Y-119721033D01*
X103898247Y-119806299D01*
X103814380Y-119970896D01*
X103757298Y-120146576D01*
X103757298Y-120146579D01*
X103728400Y-120329030D01*
X100995599Y-120329030D01*
X100995599Y-119700428D01*
X100989191Y-119640817D01*
X100973926Y-119599890D01*
X100938897Y-119505971D01*
X100938893Y-119505964D01*
X100852647Y-119390755D01*
X100852644Y-119390752D01*
X100737435Y-119304506D01*
X100737428Y-119304502D01*
X100602582Y-119254208D01*
X100602583Y-119254208D01*
X100542983Y-119247801D01*
X100542981Y-119247800D01*
X100542973Y-119247800D01*
X100542964Y-119247800D01*
X99101029Y-119247800D01*
X99101023Y-119247801D01*
X99041416Y-119254208D01*
X98906571Y-119304502D01*
X98906564Y-119304506D01*
X98791355Y-119390752D01*
X98791352Y-119390755D01*
X98705106Y-119505964D01*
X98705102Y-119505971D01*
X98654808Y-119640817D01*
X98648401Y-119700416D01*
X98648401Y-119700423D01*
X98648400Y-119700435D01*
X86042017Y-119700435D01*
X86042014Y-119700429D01*
X85990787Y-119599890D01*
X85975466Y-119578802D01*
X85870471Y-119434286D01*
X85725713Y-119289528D01*
X85651731Y-119235778D01*
X114385500Y-119235778D01*
X114385500Y-119524221D01*
X114385501Y-119524238D01*
X114423149Y-119810206D01*
X114423150Y-119810211D01*
X114423151Y-119810217D01*
X114483621Y-120035894D01*
X114497809Y-120088844D01*
X114497814Y-120088860D01*
X114608191Y-120355336D01*
X114608199Y-120355352D01*
X114752420Y-120605148D01*
X114752431Y-120605164D01*
X114928024Y-120834002D01*
X114928030Y-120834009D01*
X115131990Y-121037969D01*
X115131997Y-121037975D01*
X115268065Y-121142383D01*
X115360844Y-121213575D01*
X115360851Y-121213579D01*
X115610647Y-121357800D01*
X115610663Y-121357808D01*
X115877139Y-121468185D01*
X115877145Y-121468186D01*
X115877155Y-121468191D01*
X116155783Y-121542849D01*
X116441772Y-121580500D01*
X116441779Y-121580500D01*
X116730221Y-121580500D01*
X116730228Y-121580500D01*
X117016217Y-121542849D01*
X117294845Y-121468191D01*
X117294857Y-121468185D01*
X117294860Y-121468185D01*
X117561336Y-121357808D01*
X117561339Y-121357806D01*
X117561345Y-121357804D01*
X117811156Y-121213575D01*
X118040004Y-121037974D01*
X118243974Y-120834004D01*
X118419575Y-120605156D01*
X118563804Y-120355345D01*
X118574702Y-120329036D01*
X118674185Y-120088860D01*
X118674185Y-120088857D01*
X118674191Y-120088845D01*
X118748849Y-119810217D01*
X118763302Y-119700435D01*
X132049400Y-119700435D01*
X132049400Y-121142370D01*
X132049401Y-121142376D01*
X132055808Y-121201983D01*
X132106102Y-121336828D01*
X132106106Y-121336835D01*
X132192352Y-121452044D01*
X132192355Y-121452047D01*
X132307564Y-121538293D01*
X132307571Y-121538297D01*
X132442417Y-121588591D01*
X132442416Y-121588591D01*
X132449344Y-121589335D01*
X132502027Y-121595000D01*
X133943972Y-121594999D01*
X134003583Y-121588591D01*
X134138431Y-121538296D01*
X134253646Y-121452046D01*
X134339896Y-121336831D01*
X134390191Y-121201983D01*
X134396600Y-121142373D01*
X134396599Y-120329030D01*
X137129400Y-120329030D01*
X137129400Y-120513769D01*
X137158298Y-120696220D01*
X137158298Y-120696223D01*
X137215380Y-120871903D01*
X137259392Y-120958281D01*
X137299247Y-121036500D01*
X137407828Y-121185949D01*
X137538451Y-121316572D01*
X137687900Y-121425153D01*
X137808728Y-121486718D01*
X137852496Y-121509019D01*
X137956609Y-121542847D01*
X138028181Y-121566102D01*
X138089431Y-121575803D01*
X138210631Y-121595000D01*
X138210636Y-121595000D01*
X138395369Y-121595000D01*
X138516572Y-121575803D01*
X138537576Y-121572475D01*
X138577819Y-121566102D01*
X138577822Y-121566101D01*
X138577823Y-121566101D01*
X138753503Y-121509019D01*
X138753503Y-121509018D01*
X138753506Y-121509018D01*
X138918100Y-121425153D01*
X139067549Y-121316572D01*
X139178608Y-121205513D01*
X158381500Y-121205513D01*
X158381500Y-121555500D01*
X159365814Y-121555500D01*
X159361420Y-121559894D01*
X159308759Y-121651106D01*
X159281500Y-121752839D01*
X159281500Y-121858161D01*
X159308759Y-121959894D01*
X159361420Y-122051106D01*
X159365814Y-122055500D01*
X158381501Y-122055500D01*
X158381501Y-122405486D01*
X158391994Y-122508197D01*
X158447141Y-122674619D01*
X158447143Y-122674624D01*
X158539184Y-122823845D01*
X158663154Y-122947815D01*
X158812375Y-123039856D01*
X158812380Y-123039858D01*
X158978802Y-123095005D01*
X158978809Y-123095006D01*
X159081519Y-123105499D01*
X159431499Y-123105499D01*
X159431500Y-123105498D01*
X159431500Y-122121186D01*
X159435894Y-122125580D01*
X159527106Y-122178241D01*
X159628839Y-122205500D01*
X159734161Y-122205500D01*
X159835894Y-122178241D01*
X159927106Y-122125580D01*
X159931500Y-122121186D01*
X159931500Y-123105499D01*
X160281472Y-123105499D01*
X160281486Y-123105498D01*
X160384197Y-123095005D01*
X160550619Y-123039858D01*
X160550624Y-123039856D01*
X160699845Y-122947815D01*
X160823815Y-122823845D01*
X160915856Y-122674624D01*
X160915858Y-122674619D01*
X160971005Y-122508197D01*
X160971006Y-122508190D01*
X160981499Y-122405486D01*
X160981500Y-122405473D01*
X160981500Y-122055500D01*
X159997186Y-122055500D01*
X160001580Y-122051106D01*
X160054241Y-121959894D01*
X160081500Y-121858161D01*
X160081500Y-121752839D01*
X160068185Y-121703148D01*
X166001000Y-121703148D01*
X166001000Y-121907851D01*
X166033022Y-122110034D01*
X166096281Y-122304723D01*
X166189215Y-122487113D01*
X166309528Y-122652713D01*
X166454286Y-122797471D01*
X166567617Y-122879809D01*
X166619890Y-122917787D01*
X166736107Y-122977003D01*
X166802276Y-123010718D01*
X166802278Y-123010718D01*
X166802281Y-123010720D01*
X166891959Y-123039858D01*
X166996965Y-123073977D01*
X167098057Y-123089988D01*
X167199148Y-123106000D01*
X167199149Y-123106000D01*
X167403851Y-123106000D01*
X167403852Y-123106000D01*
X167606034Y-123073977D01*
X167800719Y-123010720D01*
X167983110Y-122917787D01*
X168076090Y-122850232D01*
X168148713Y-122797471D01*
X168148715Y-122797468D01*
X168148719Y-122797466D01*
X168293466Y-122652719D01*
X168293468Y-122652715D01*
X168293471Y-122652713D01*
X168346232Y-122580090D01*
X168413787Y-122487110D01*
X168506720Y-122304719D01*
X168569977Y-122110034D01*
X168602000Y-121907852D01*
X168602000Y-121703148D01*
X168584871Y-121594999D01*
X168569977Y-121500965D01*
X168534197Y-121390847D01*
X168506720Y-121306281D01*
X168506718Y-121306278D01*
X168506718Y-121306276D01*
X168459480Y-121213568D01*
X168413787Y-121123890D01*
X168351367Y-121037975D01*
X168293471Y-120958286D01*
X168148713Y-120813528D01*
X167983113Y-120693215D01*
X167983112Y-120693214D01*
X167983110Y-120693213D01*
X167924175Y-120663184D01*
X167800723Y-120600281D01*
X167606034Y-120537022D01*
X167431495Y-120509378D01*
X167403852Y-120505000D01*
X167199148Y-120505000D01*
X167174829Y-120508851D01*
X166996965Y-120537022D01*
X166802276Y-120600281D01*
X166619886Y-120693215D01*
X166454286Y-120813528D01*
X166309528Y-120958286D01*
X166189215Y-121123886D01*
X166096281Y-121306276D01*
X166033022Y-121500965D01*
X166001000Y-121703148D01*
X160068185Y-121703148D01*
X160054241Y-121651106D01*
X160001580Y-121559894D01*
X159997186Y-121555500D01*
X160981499Y-121555500D01*
X160981499Y-121205528D01*
X160981498Y-121205513D01*
X160971005Y-121102802D01*
X160915858Y-120936380D01*
X160915856Y-120936375D01*
X160823815Y-120787154D01*
X160699845Y-120663184D01*
X160550624Y-120571143D01*
X160550619Y-120571141D01*
X160384197Y-120515994D01*
X160384190Y-120515993D01*
X160281486Y-120505500D01*
X159931500Y-120505500D01*
X159931500Y-121489814D01*
X159927106Y-121485420D01*
X159835894Y-121432759D01*
X159734161Y-121405500D01*
X159628839Y-121405500D01*
X159527106Y-121432759D01*
X159435894Y-121485420D01*
X159431500Y-121489814D01*
X159431500Y-120505500D01*
X159081528Y-120505500D01*
X159081512Y-120505501D01*
X158978802Y-120515994D01*
X158812380Y-120571141D01*
X158812375Y-120571143D01*
X158663154Y-120663184D01*
X158539184Y-120787154D01*
X158447143Y-120936375D01*
X158447141Y-120936380D01*
X158391994Y-121102802D01*
X158391993Y-121102809D01*
X158381500Y-121205513D01*
X139178608Y-121205513D01*
X139198172Y-121185949D01*
X139306753Y-121036500D01*
X139390618Y-120871906D01*
X139390619Y-120871903D01*
X139447701Y-120696223D01*
X139447701Y-120696222D01*
X139447702Y-120696219D01*
X139467512Y-120571143D01*
X139476600Y-120513769D01*
X139476600Y-120329030D01*
X139452860Y-120179148D01*
X139447702Y-120146581D01*
X139447701Y-120146577D01*
X139447701Y-120146576D01*
X139390619Y-119970896D01*
X139385791Y-119961420D01*
X139306753Y-119806300D01*
X139198172Y-119656851D01*
X139067549Y-119526228D01*
X138918100Y-119417647D01*
X138865316Y-119390752D01*
X138753503Y-119333780D01*
X138577821Y-119276698D01*
X138395369Y-119247800D01*
X138395364Y-119247800D01*
X138210636Y-119247800D01*
X138210631Y-119247800D01*
X138028179Y-119276698D01*
X138028176Y-119276698D01*
X137852496Y-119333780D01*
X137687899Y-119417647D01*
X137665005Y-119434281D01*
X137538451Y-119526228D01*
X137538449Y-119526230D01*
X137538448Y-119526230D01*
X137407830Y-119656848D01*
X137407830Y-119656849D01*
X137407828Y-119656851D01*
X137361196Y-119721033D01*
X137299247Y-119806299D01*
X137215380Y-119970896D01*
X137158298Y-120146576D01*
X137158298Y-120146579D01*
X137129400Y-120329030D01*
X134396599Y-120329030D01*
X134396599Y-119700428D01*
X134390191Y-119640817D01*
X134374926Y-119599890D01*
X134339897Y-119505971D01*
X134339893Y-119505964D01*
X134253647Y-119390755D01*
X134253644Y-119390752D01*
X134138435Y-119304506D01*
X134138428Y-119304502D01*
X134003582Y-119254208D01*
X134003583Y-119254208D01*
X133943983Y-119247801D01*
X133943981Y-119247800D01*
X133943973Y-119247800D01*
X133943964Y-119247800D01*
X132502029Y-119247800D01*
X132502023Y-119247801D01*
X132442416Y-119254208D01*
X132307571Y-119304502D01*
X132307564Y-119304506D01*
X132192355Y-119390752D01*
X132192352Y-119390755D01*
X132106106Y-119505964D01*
X132106102Y-119505971D01*
X132055808Y-119640817D01*
X132049401Y-119700416D01*
X132049401Y-119700423D01*
X132049400Y-119700435D01*
X118763302Y-119700435D01*
X118786500Y-119524228D01*
X118786500Y-119235772D01*
X118748849Y-118949783D01*
X118674191Y-118671155D01*
X118674186Y-118671145D01*
X118674185Y-118671139D01*
X118563808Y-118404663D01*
X118563800Y-118404647D01*
X118419579Y-118154851D01*
X118419575Y-118154844D01*
X118342704Y-118054664D01*
X118243975Y-117925997D01*
X118243969Y-117925990D01*
X118107009Y-117789030D01*
X134589400Y-117789030D01*
X134589400Y-117973769D01*
X134618298Y-118156220D01*
X134618298Y-118156223D01*
X134675380Y-118331903D01*
X134759247Y-118496500D01*
X134867828Y-118645949D01*
X134998451Y-118776572D01*
X135147900Y-118885153D01*
X135274763Y-118949793D01*
X135312496Y-118969019D01*
X135447925Y-119013022D01*
X135488181Y-119026102D01*
X135560901Y-119037619D01*
X135670631Y-119055000D01*
X135670636Y-119055000D01*
X135855369Y-119055000D01*
X135943819Y-119040990D01*
X136037819Y-119026102D01*
X136037822Y-119026101D01*
X136037823Y-119026101D01*
X136213503Y-118969019D01*
X136213503Y-118969018D01*
X136213506Y-118969018D01*
X136378100Y-118885153D01*
X136527549Y-118776572D01*
X136658172Y-118645949D01*
X136766753Y-118496500D01*
X136850618Y-118331906D01*
X136877514Y-118249128D01*
X136907701Y-118156223D01*
X136907701Y-118156222D01*
X136907702Y-118156219D01*
X136923787Y-118054664D01*
X136936600Y-117973769D01*
X136936600Y-117789030D01*
X136915875Y-117658185D01*
X136907702Y-117606581D01*
X136907701Y-117606577D01*
X136907701Y-117606576D01*
X136850619Y-117430896D01*
X136779753Y-117291814D01*
X136766753Y-117266300D01*
X136658172Y-117116851D01*
X136527549Y-116986228D01*
X136378100Y-116877647D01*
X136213503Y-116793780D01*
X136037821Y-116736698D01*
X135855369Y-116707800D01*
X135855364Y-116707800D01*
X135670636Y-116707800D01*
X135670631Y-116707800D01*
X135488179Y-116736698D01*
X135488176Y-116736698D01*
X135312496Y-116793780D01*
X135147899Y-116877647D01*
X135062633Y-116939596D01*
X134998451Y-116986228D01*
X134998449Y-116986230D01*
X134998448Y-116986230D01*
X134867830Y-117116848D01*
X134867830Y-117116849D01*
X134867828Y-117116851D01*
X134822311Y-117179500D01*
X134759247Y-117266299D01*
X134675380Y-117430896D01*
X134618298Y-117606576D01*
X134618298Y-117606579D01*
X134589400Y-117789030D01*
X118107009Y-117789030D01*
X118040009Y-117722030D01*
X118040002Y-117722024D01*
X117811164Y-117546431D01*
X117811162Y-117546429D01*
X117811156Y-117546425D01*
X117811151Y-117546422D01*
X117811148Y-117546420D01*
X117561352Y-117402199D01*
X117561336Y-117402191D01*
X117294860Y-117291814D01*
X117294848Y-117291810D01*
X117294845Y-117291809D01*
X117016217Y-117217151D01*
X117016211Y-117217150D01*
X117016206Y-117217149D01*
X116730238Y-117179501D01*
X116730233Y-117179500D01*
X116730228Y-117179500D01*
X116441772Y-117179500D01*
X116441766Y-117179500D01*
X116441761Y-117179501D01*
X116155793Y-117217149D01*
X116155786Y-117217150D01*
X116155783Y-117217151D01*
X115972360Y-117266299D01*
X115877155Y-117291809D01*
X115877139Y-117291814D01*
X115610663Y-117402191D01*
X115610647Y-117402199D01*
X115360851Y-117546420D01*
X115360835Y-117546431D01*
X115131997Y-117722024D01*
X115131990Y-117722030D01*
X114928030Y-117925990D01*
X114928024Y-117925997D01*
X114752431Y-118154835D01*
X114752420Y-118154851D01*
X114608199Y-118404647D01*
X114608191Y-118404663D01*
X114497814Y-118671139D01*
X114497809Y-118671155D01*
X114469564Y-118776569D01*
X114423152Y-118949780D01*
X114423149Y-118949793D01*
X114385501Y-119235761D01*
X114385500Y-119235778D01*
X85651731Y-119235778D01*
X85560113Y-119169215D01*
X85560112Y-119169214D01*
X85560110Y-119169213D01*
X85501175Y-119139184D01*
X85377723Y-119076281D01*
X85183034Y-119013022D01*
X85008495Y-118985378D01*
X84980852Y-118981000D01*
X84776148Y-118981000D01*
X84751829Y-118984851D01*
X84573965Y-119013022D01*
X84379276Y-119076281D01*
X84196886Y-119169215D01*
X84031286Y-119289528D01*
X83886528Y-119434286D01*
X83766215Y-119599886D01*
X83673281Y-119782276D01*
X83610022Y-119976965D01*
X83578000Y-120179148D01*
X77645185Y-120179148D01*
X77631241Y-120127106D01*
X77578580Y-120035894D01*
X77574186Y-120031500D01*
X78558499Y-120031500D01*
X78558499Y-119681528D01*
X78558498Y-119681513D01*
X78548005Y-119578802D01*
X78492858Y-119412380D01*
X78492856Y-119412375D01*
X78400815Y-119263154D01*
X78276845Y-119139184D01*
X78127624Y-119047143D01*
X78127619Y-119047141D01*
X77961197Y-118991994D01*
X77961190Y-118991993D01*
X77858486Y-118981500D01*
X77508500Y-118981500D01*
X77508500Y-119965814D01*
X77504106Y-119961420D01*
X77412894Y-119908759D01*
X77311161Y-119881500D01*
X77205839Y-119881500D01*
X77104106Y-119908759D01*
X77012894Y-119961420D01*
X77008500Y-119965814D01*
X77008500Y-118981500D01*
X76658528Y-118981500D01*
X76658512Y-118981501D01*
X76555802Y-118991994D01*
X76389380Y-119047141D01*
X76389375Y-119047143D01*
X76240154Y-119139184D01*
X76116184Y-119263154D01*
X76024143Y-119412375D01*
X76024141Y-119412380D01*
X75968994Y-119578802D01*
X75968993Y-119578809D01*
X75958500Y-119681513D01*
X63641499Y-119681513D01*
X63641499Y-119578809D01*
X63641499Y-118249129D01*
X63641498Y-118249123D01*
X63641497Y-118249116D01*
X63635091Y-118189517D01*
X63622161Y-118154851D01*
X63584797Y-118054671D01*
X63584793Y-118054664D01*
X63498547Y-117939455D01*
X63498544Y-117939452D01*
X63383335Y-117853206D01*
X63383328Y-117853202D01*
X63248482Y-117802908D01*
X63248483Y-117802908D01*
X63188883Y-117796501D01*
X63188881Y-117796500D01*
X63188873Y-117796500D01*
X63188865Y-117796500D01*
X62246430Y-117796500D01*
X62208876Y-117789030D01*
X101188400Y-117789030D01*
X101188400Y-117973769D01*
X101217298Y-118156220D01*
X101217298Y-118156223D01*
X101274380Y-118331903D01*
X101358247Y-118496500D01*
X101466828Y-118645949D01*
X101597451Y-118776572D01*
X101746900Y-118885153D01*
X101873763Y-118949793D01*
X101911496Y-118969019D01*
X102046925Y-119013022D01*
X102087181Y-119026102D01*
X102159901Y-119037619D01*
X102269631Y-119055000D01*
X102269636Y-119055000D01*
X102454369Y-119055000D01*
X102542819Y-119040990D01*
X102636819Y-119026102D01*
X102636822Y-119026101D01*
X102636823Y-119026101D01*
X102812503Y-118969019D01*
X102812503Y-118969018D01*
X102812506Y-118969018D01*
X102977100Y-118885153D01*
X103126549Y-118776572D01*
X103257172Y-118645949D01*
X103365753Y-118496500D01*
X103449618Y-118331906D01*
X103476514Y-118249128D01*
X103506701Y-118156223D01*
X103506701Y-118156222D01*
X103506702Y-118156219D01*
X103522787Y-118054664D01*
X103535600Y-117973769D01*
X103535600Y-117789030D01*
X103514875Y-117658185D01*
X103506702Y-117606581D01*
X103506701Y-117606577D01*
X103506701Y-117606576D01*
X103449619Y-117430896D01*
X103378753Y-117291814D01*
X103365753Y-117266300D01*
X103257172Y-117116851D01*
X103126549Y-116986228D01*
X102977100Y-116877647D01*
X102812503Y-116793780D01*
X102636821Y-116736698D01*
X102454369Y-116707800D01*
X102454364Y-116707800D01*
X102269636Y-116707800D01*
X102269631Y-116707800D01*
X102087179Y-116736698D01*
X102087176Y-116736698D01*
X101911496Y-116793780D01*
X101746899Y-116877647D01*
X101661633Y-116939596D01*
X101597451Y-116986228D01*
X101597449Y-116986230D01*
X101597448Y-116986230D01*
X101466830Y-117116848D01*
X101466830Y-117116849D01*
X101466828Y-117116851D01*
X101421311Y-117179500D01*
X101358247Y-117266299D01*
X101274380Y-117430896D01*
X101217298Y-117606576D01*
X101217298Y-117606579D01*
X101188400Y-117789030D01*
X62208876Y-117789030D01*
X62198977Y-117787061D01*
X61985419Y-117698602D01*
X61732116Y-117630730D01*
X61674339Y-117623123D01*
X61472127Y-117596500D01*
X61472120Y-117596500D01*
X61209880Y-117596500D01*
X61209872Y-117596500D01*
X60978772Y-117626926D01*
X60949884Y-117630730D01*
X60696585Y-117698601D01*
X60696581Y-117698602D01*
X60696565Y-117698607D01*
X60483019Y-117787061D01*
X60435567Y-117796500D01*
X59493129Y-117796500D01*
X59493123Y-117796501D01*
X59433516Y-117802908D01*
X59298671Y-117853202D01*
X59298664Y-117853206D01*
X59183455Y-117939452D01*
X59183452Y-117939455D01*
X59097206Y-118054664D01*
X59097202Y-118054671D01*
X59046908Y-118189517D01*
X59040501Y-118249116D01*
X59040501Y-118249123D01*
X59040500Y-118249135D01*
X46926600Y-118249135D01*
X46926600Y-115425778D01*
X90255500Y-115425778D01*
X90255500Y-115714221D01*
X90255501Y-115714238D01*
X90293149Y-116000206D01*
X90293150Y-116000211D01*
X90293151Y-116000217D01*
X90293152Y-116000219D01*
X90367809Y-116278844D01*
X90367814Y-116278860D01*
X90478191Y-116545336D01*
X90478199Y-116545352D01*
X90622420Y-116795148D01*
X90622431Y-116795164D01*
X90798024Y-117024002D01*
X90798030Y-117024009D01*
X91001990Y-117227969D01*
X91001997Y-117227975D01*
X91085194Y-117291814D01*
X91230844Y-117403575D01*
X91230851Y-117403579D01*
X91480647Y-117547800D01*
X91480663Y-117547808D01*
X91747139Y-117658185D01*
X91747145Y-117658186D01*
X91747155Y-117658191D01*
X92025783Y-117732849D01*
X92311772Y-117770500D01*
X92311779Y-117770500D01*
X92600221Y-117770500D01*
X92600228Y-117770500D01*
X92886217Y-117732849D01*
X93164845Y-117658191D01*
X93164857Y-117658185D01*
X93164860Y-117658185D01*
X93431336Y-117547808D01*
X93431339Y-117547806D01*
X93431345Y-117547804D01*
X93433734Y-117546425D01*
X93447039Y-117538742D01*
X93681156Y-117403575D01*
X93910004Y-117227974D01*
X94113974Y-117024004D01*
X94289575Y-116795156D01*
X94433804Y-116545345D01*
X94544191Y-116278845D01*
X94618849Y-116000217D01*
X94656500Y-115714228D01*
X94656500Y-115425772D01*
X94618849Y-115139783D01*
X94544191Y-114861155D01*
X94544186Y-114861145D01*
X94544185Y-114861139D01*
X94433808Y-114594663D01*
X94433800Y-114594647D01*
X94289579Y-114344851D01*
X94289575Y-114344844D01*
X94113974Y-114115996D01*
X94113969Y-114115990D01*
X93910009Y-113912030D01*
X93910002Y-113912024D01*
X93681164Y-113736431D01*
X93681162Y-113736429D01*
X93681156Y-113736425D01*
X93681151Y-113736422D01*
X93681148Y-113736420D01*
X93431352Y-113592199D01*
X93431336Y-113592191D01*
X93164860Y-113481814D01*
X93164848Y-113481810D01*
X93164845Y-113481809D01*
X92886217Y-113407151D01*
X92886211Y-113407150D01*
X92886206Y-113407149D01*
X92600238Y-113369501D01*
X92600233Y-113369500D01*
X92600228Y-113369500D01*
X92311772Y-113369500D01*
X92311766Y-113369500D01*
X92311761Y-113369501D01*
X92025793Y-113407149D01*
X92025786Y-113407150D01*
X92025783Y-113407151D01*
X91954852Y-113426157D01*
X91747155Y-113481809D01*
X91747139Y-113481814D01*
X91480663Y-113592191D01*
X91480647Y-113592199D01*
X91230851Y-113736420D01*
X91230835Y-113736431D01*
X91001997Y-113912024D01*
X91001990Y-113912030D01*
X90798030Y-114115990D01*
X90798024Y-114115997D01*
X90622431Y-114344835D01*
X90622420Y-114344851D01*
X90478199Y-114594647D01*
X90478191Y-114594663D01*
X90367814Y-114861139D01*
X90367809Y-114861155D01*
X90293152Y-115139780D01*
X90293149Y-115139793D01*
X90255501Y-115425761D01*
X90255500Y-115425778D01*
X46926600Y-115425778D01*
X46926600Y-111807483D01*
X97167000Y-111807483D01*
X97167000Y-113007501D01*
X97167001Y-113007518D01*
X97177500Y-113110296D01*
X97177501Y-113110299D01*
X97221214Y-113242213D01*
X97232686Y-113276834D01*
X97324788Y-113426156D01*
X97448844Y-113550212D01*
X97598166Y-113642314D01*
X97764703Y-113697499D01*
X97867491Y-113708000D01*
X99067508Y-113707999D01*
X99170297Y-113697499D01*
X99336834Y-113642314D01*
X99486156Y-113550212D01*
X99610212Y-113426156D01*
X99702314Y-113276834D01*
X99757499Y-113110297D01*
X99768000Y-113007509D01*
X99767999Y-112305148D01*
X104787000Y-112305148D01*
X104787000Y-112509851D01*
X104819022Y-112712034D01*
X104882281Y-112906723D01*
X104933635Y-113007509D01*
X104968845Y-113076613D01*
X104975215Y-113089113D01*
X105095528Y-113254713D01*
X105240286Y-113399471D01*
X105353617Y-113481809D01*
X105405890Y-113519787D01*
X105522107Y-113579003D01*
X105588276Y-113612718D01*
X105588278Y-113612718D01*
X105588281Y-113612720D01*
X105640885Y-113629812D01*
X105782965Y-113675977D01*
X105884057Y-113691988D01*
X105985148Y-113708000D01*
X105985149Y-113708000D01*
X106189851Y-113708000D01*
X106189852Y-113708000D01*
X106392034Y-113675977D01*
X106586719Y-113612720D01*
X106769110Y-113519787D01*
X106897982Y-113426157D01*
X106934713Y-113399471D01*
X106934715Y-113399468D01*
X106934719Y-113399466D01*
X107079466Y-113254719D01*
X107079468Y-113254715D01*
X107079471Y-113254713D01*
X107184392Y-113110299D01*
X107199787Y-113089110D01*
X107292720Y-112906719D01*
X107355977Y-112712034D01*
X107388000Y-112509852D01*
X107388000Y-112305148D01*
X107355977Y-112102966D01*
X107292720Y-111908281D01*
X107292718Y-111908278D01*
X107292718Y-111908276D01*
X107262071Y-111848129D01*
X107241365Y-111807491D01*
X107234992Y-111794983D01*
X130398500Y-111794983D01*
X130398500Y-112995001D01*
X130398501Y-112995018D01*
X130409000Y-113097796D01*
X130409001Y-113097799D01*
X130456856Y-113242213D01*
X130464186Y-113264334D01*
X130556288Y-113413656D01*
X130680344Y-113537712D01*
X130829666Y-113629814D01*
X130996203Y-113684999D01*
X131098991Y-113695500D01*
X132299008Y-113695499D01*
X132401797Y-113684999D01*
X132568334Y-113629814D01*
X132717656Y-113537712D01*
X132841712Y-113413656D01*
X132933814Y-113264334D01*
X132988999Y-113097797D01*
X132999500Y-112995009D01*
X132999499Y-112292648D01*
X138018500Y-112292648D01*
X138018500Y-112497351D01*
X138050522Y-112699534D01*
X138113781Y-112894223D01*
X138206715Y-113076613D01*
X138327028Y-113242213D01*
X138471786Y-113386971D01*
X138602322Y-113481809D01*
X138637390Y-113507287D01*
X138721635Y-113550212D01*
X138819776Y-113600218D01*
X138819778Y-113600218D01*
X138819781Y-113600220D01*
X138910856Y-113629812D01*
X139014465Y-113663477D01*
X139115557Y-113679488D01*
X139216648Y-113695500D01*
X139216649Y-113695500D01*
X139421351Y-113695500D01*
X139421352Y-113695500D01*
X139623534Y-113663477D01*
X139818219Y-113600220D01*
X140000610Y-113507287D01*
X140129482Y-113413657D01*
X140166213Y-113386971D01*
X140166215Y-113386968D01*
X140166219Y-113386966D01*
X140310966Y-113242219D01*
X140310968Y-113242215D01*
X140310971Y-113242213D01*
X140363732Y-113169590D01*
X140431287Y-113076610D01*
X140524220Y-112894219D01*
X140587477Y-112699534D01*
X140619500Y-112497352D01*
X140619500Y-112292648D01*
X140587477Y-112090466D01*
X140524220Y-111895781D01*
X140524218Y-111895778D01*
X140524218Y-111895776D01*
X140472865Y-111794991D01*
X140431287Y-111713390D01*
X140415892Y-111692200D01*
X140310971Y-111547786D01*
X140166213Y-111403028D01*
X140000613Y-111282715D01*
X140000612Y-111282714D01*
X140000610Y-111282713D01*
X139940898Y-111252288D01*
X139818223Y-111189781D01*
X139623534Y-111126522D01*
X139448995Y-111098878D01*
X139421352Y-111094500D01*
X139216648Y-111094500D01*
X139192329Y-111098351D01*
X139014465Y-111126522D01*
X138819776Y-111189781D01*
X138637386Y-111282715D01*
X138471786Y-111403028D01*
X138327028Y-111547786D01*
X138206715Y-111713386D01*
X138113781Y-111895776D01*
X138050522Y-112090465D01*
X138018500Y-112292648D01*
X132999499Y-112292648D01*
X132999499Y-111794992D01*
X132988999Y-111692203D01*
X132933814Y-111525666D01*
X132841712Y-111376344D01*
X132717656Y-111252288D01*
X132616314Y-111189780D01*
X132568336Y-111160187D01*
X132568331Y-111160185D01*
X132504465Y-111139022D01*
X132401797Y-111105001D01*
X132401795Y-111105000D01*
X132299010Y-111094500D01*
X131098998Y-111094500D01*
X131098981Y-111094501D01*
X130996203Y-111105000D01*
X130996200Y-111105001D01*
X130829668Y-111160185D01*
X130829663Y-111160187D01*
X130680342Y-111252289D01*
X130556289Y-111376342D01*
X130464187Y-111525663D01*
X130464186Y-111525666D01*
X130409001Y-111692203D01*
X130409001Y-111692204D01*
X130409000Y-111692204D01*
X130398500Y-111794983D01*
X107234992Y-111794983D01*
X107199787Y-111725890D01*
X107175310Y-111692200D01*
X107079471Y-111560286D01*
X106934713Y-111415528D01*
X106769113Y-111295215D01*
X106769112Y-111295214D01*
X106769110Y-111295213D01*
X106684867Y-111252289D01*
X106586723Y-111202281D01*
X106392034Y-111139022D01*
X106217495Y-111111378D01*
X106189852Y-111107000D01*
X105985148Y-111107000D01*
X105960829Y-111110851D01*
X105782965Y-111139022D01*
X105588276Y-111202281D01*
X105405886Y-111295215D01*
X105240286Y-111415528D01*
X105095528Y-111560286D01*
X104975215Y-111725886D01*
X104882281Y-111908276D01*
X104819022Y-112102965D01*
X104787000Y-112305148D01*
X99767999Y-112305148D01*
X99767999Y-111807492D01*
X99757499Y-111704703D01*
X99702314Y-111538166D01*
X99610212Y-111388844D01*
X99486156Y-111264788D01*
X99336834Y-111172686D01*
X99170297Y-111117501D01*
X99170295Y-111117500D01*
X99067510Y-111107000D01*
X97867498Y-111107000D01*
X97867481Y-111107001D01*
X97764703Y-111117500D01*
X97764700Y-111117501D01*
X97598168Y-111172685D01*
X97598163Y-111172687D01*
X97448842Y-111264789D01*
X97324789Y-111388842D01*
X97232687Y-111538163D01*
X97232686Y-111538166D01*
X97177501Y-111704703D01*
X97177501Y-111704704D01*
X97177500Y-111704704D01*
X97167000Y-111807483D01*
X46926600Y-111807483D01*
X46926600Y-98534778D01*
X108035500Y-98534778D01*
X108035500Y-98823221D01*
X108035501Y-98823238D01*
X108073149Y-99109206D01*
X108073150Y-99109211D01*
X108073151Y-99109217D01*
X108147529Y-99386800D01*
X108147809Y-99387844D01*
X108147814Y-99387860D01*
X108258191Y-99654336D01*
X108258199Y-99654352D01*
X108402420Y-99904148D01*
X108402431Y-99904164D01*
X108578024Y-100133002D01*
X108578030Y-100133009D01*
X108781990Y-100336969D01*
X108781996Y-100336974D01*
X109010844Y-100512575D01*
X109010851Y-100512579D01*
X109260647Y-100656800D01*
X109260663Y-100656808D01*
X109527139Y-100767185D01*
X109527145Y-100767186D01*
X109527155Y-100767191D01*
X109805783Y-100841849D01*
X110091772Y-100879500D01*
X110091779Y-100879500D01*
X110380221Y-100879500D01*
X110380228Y-100879500D01*
X110666217Y-100841849D01*
X110944845Y-100767191D01*
X110944857Y-100767185D01*
X110944860Y-100767185D01*
X111211336Y-100656808D01*
X111211339Y-100656806D01*
X111211345Y-100656804D01*
X111461156Y-100512575D01*
X111690004Y-100336974D01*
X111893974Y-100133004D01*
X112069575Y-99904156D01*
X112213804Y-99654345D01*
X112232380Y-99609500D01*
X112324185Y-99387860D01*
X112324185Y-99387857D01*
X112324191Y-99387845D01*
X112398849Y-99109217D01*
X112436500Y-98823228D01*
X112436500Y-98534772D01*
X112398849Y-98248783D01*
X112324191Y-97970155D01*
X112324186Y-97970145D01*
X112324185Y-97970139D01*
X112213808Y-97703663D01*
X112213800Y-97703647D01*
X112069579Y-97453851D01*
X112069575Y-97453844D01*
X111893974Y-97224996D01*
X111893969Y-97224990D01*
X111769862Y-97100883D01*
X178662900Y-97100883D01*
X178662900Y-98300901D01*
X178662901Y-98300918D01*
X178673400Y-98403696D01*
X178673401Y-98403699D01*
X178698876Y-98480575D01*
X178728586Y-98570234D01*
X178820688Y-98719556D01*
X178944744Y-98843612D01*
X179094066Y-98935714D01*
X179260603Y-98990899D01*
X179363391Y-99001400D01*
X180563408Y-99001399D01*
X180666197Y-98990899D01*
X180832734Y-98935714D01*
X180982056Y-98843612D01*
X181106112Y-98719556D01*
X181198214Y-98570234D01*
X181253399Y-98403697D01*
X181263900Y-98300909D01*
X181263899Y-97598548D01*
X186282900Y-97598548D01*
X186282900Y-97803251D01*
X186314922Y-98005434D01*
X186378181Y-98200123D01*
X186471115Y-98382513D01*
X186591428Y-98548113D01*
X186736186Y-98692871D01*
X186891149Y-98805456D01*
X186901790Y-98813187D01*
X186999571Y-98863009D01*
X187084176Y-98906118D01*
X187084178Y-98906118D01*
X187084181Y-98906120D01*
X187175256Y-98935712D01*
X187278865Y-98969377D01*
X187379957Y-98985388D01*
X187481048Y-99001400D01*
X187481049Y-99001400D01*
X187685751Y-99001400D01*
X187685752Y-99001400D01*
X187887934Y-98969377D01*
X188082619Y-98906120D01*
X188265010Y-98813187D01*
X188372365Y-98735190D01*
X188430613Y-98692871D01*
X188430615Y-98692868D01*
X188430619Y-98692866D01*
X188575366Y-98548119D01*
X188575368Y-98548115D01*
X188575371Y-98548113D01*
X188680292Y-98403699D01*
X188695687Y-98382510D01*
X188788620Y-98200119D01*
X188851877Y-98005434D01*
X188883900Y-97803252D01*
X188883900Y-97598548D01*
X188851877Y-97396365D01*
X188820251Y-97299032D01*
X188809121Y-97264778D01*
X190966500Y-97264778D01*
X190966500Y-97553221D01*
X190966501Y-97553238D01*
X191004149Y-97839206D01*
X191004150Y-97839211D01*
X191004151Y-97839217D01*
X191074298Y-98101009D01*
X191078809Y-98117844D01*
X191078814Y-98117860D01*
X191189191Y-98384336D01*
X191189199Y-98384352D01*
X191333420Y-98634148D01*
X191333431Y-98634164D01*
X191509024Y-98863002D01*
X191509030Y-98863009D01*
X191712990Y-99066969D01*
X191712996Y-99066974D01*
X191941844Y-99242575D01*
X191941851Y-99242579D01*
X192191647Y-99386800D01*
X192191663Y-99386808D01*
X192458139Y-99497185D01*
X192458145Y-99497186D01*
X192458155Y-99497191D01*
X192736783Y-99571849D01*
X193022772Y-99609500D01*
X193022779Y-99609500D01*
X193311221Y-99609500D01*
X193311228Y-99609500D01*
X193597217Y-99571849D01*
X193875845Y-99497191D01*
X193875857Y-99497185D01*
X193875860Y-99497185D01*
X194142336Y-99386808D01*
X194142339Y-99386806D01*
X194142345Y-99386804D01*
X194392156Y-99242575D01*
X194621004Y-99066974D01*
X194824974Y-98863004D01*
X195000575Y-98634156D01*
X195144804Y-98384345D01*
X195177681Y-98304974D01*
X195255185Y-98117860D01*
X195255185Y-98117857D01*
X195255191Y-98117845D01*
X195329849Y-97839217D01*
X195367500Y-97553228D01*
X195367500Y-97264772D01*
X195329849Y-96978783D01*
X195255191Y-96700155D01*
X195255186Y-96700145D01*
X195255185Y-96700139D01*
X195144808Y-96433663D01*
X195144800Y-96433647D01*
X195000579Y-96183851D01*
X195000575Y-96183844D01*
X194992357Y-96173134D01*
X194960656Y-96131820D01*
X194905150Y-96059483D01*
X205879000Y-96059483D01*
X205879000Y-97259501D01*
X205879001Y-97259518D01*
X205889500Y-97362296D01*
X205889501Y-97362299D01*
X205919839Y-97453851D01*
X205944686Y-97528834D01*
X206036788Y-97678156D01*
X206160844Y-97802212D01*
X206310166Y-97894314D01*
X206476703Y-97949499D01*
X206579491Y-97960000D01*
X207779508Y-97959999D01*
X207882297Y-97949499D01*
X208048834Y-97894314D01*
X208198156Y-97802212D01*
X208322212Y-97678156D01*
X208414314Y-97528834D01*
X208469499Y-97362297D01*
X208480000Y-97259509D01*
X208479999Y-96557148D01*
X213499000Y-96557148D01*
X213499000Y-96761851D01*
X213531022Y-96964034D01*
X213594281Y-97158723D01*
X213687215Y-97341113D01*
X213807528Y-97506713D01*
X213952286Y-97651471D01*
X214107249Y-97764056D01*
X214117890Y-97771787D01*
X214234107Y-97831003D01*
X214300276Y-97864718D01*
X214300278Y-97864718D01*
X214300281Y-97864720D01*
X214391356Y-97894312D01*
X214494965Y-97927977D01*
X214596057Y-97943988D01*
X214697148Y-97960000D01*
X214697149Y-97960000D01*
X214901851Y-97960000D01*
X214901852Y-97960000D01*
X215104034Y-97927977D01*
X215298719Y-97864720D01*
X215481110Y-97771787D01*
X215609982Y-97678157D01*
X215646713Y-97651471D01*
X215646715Y-97651468D01*
X215646719Y-97651466D01*
X215791466Y-97506719D01*
X215791468Y-97506715D01*
X215791471Y-97506713D01*
X215896392Y-97362299D01*
X215911787Y-97341110D01*
X216004720Y-97158719D01*
X216067977Y-96964034D01*
X216100000Y-96761852D01*
X216100000Y-96557148D01*
X216091388Y-96502778D01*
X239226500Y-96502778D01*
X239226500Y-96791221D01*
X239226501Y-96791238D01*
X239264149Y-97077206D01*
X239264150Y-97077211D01*
X239264151Y-97077217D01*
X239314403Y-97264761D01*
X239338809Y-97355844D01*
X239338814Y-97355860D01*
X239449191Y-97622336D01*
X239449199Y-97622352D01*
X239593420Y-97872148D01*
X239593431Y-97872164D01*
X239769024Y-98101002D01*
X239769030Y-98101009D01*
X239972990Y-98304969D01*
X239972997Y-98304975D01*
X240101652Y-98403695D01*
X240201844Y-98480575D01*
X240201851Y-98480579D01*
X240451647Y-98624800D01*
X240451663Y-98624808D01*
X240718139Y-98735185D01*
X240718145Y-98735186D01*
X240718155Y-98735191D01*
X240996783Y-98809849D01*
X241282772Y-98847500D01*
X241282779Y-98847500D01*
X241571221Y-98847500D01*
X241571228Y-98847500D01*
X241857217Y-98809849D01*
X242135845Y-98735191D01*
X242135857Y-98735185D01*
X242135860Y-98735185D01*
X242402336Y-98624808D01*
X242402339Y-98624806D01*
X242402345Y-98624804D01*
X242652156Y-98480575D01*
X242881004Y-98304974D01*
X243084974Y-98101004D01*
X243260575Y-97872156D01*
X243404804Y-97622345D01*
X243443537Y-97528836D01*
X243515185Y-97355860D01*
X243515185Y-97355857D01*
X243515191Y-97355845D01*
X243589849Y-97077217D01*
X243627500Y-96791228D01*
X243627500Y-96502772D01*
X243589849Y-96216783D01*
X243515191Y-95938155D01*
X243515186Y-95938145D01*
X243515185Y-95938139D01*
X243404808Y-95671663D01*
X243404800Y-95671647D01*
X243265974Y-95431196D01*
X243260575Y-95421844D01*
X243125760Y-95246149D01*
X243084975Y-95192997D01*
X243084969Y-95192990D01*
X242881009Y-94989030D01*
X242881002Y-94989024D01*
X242652164Y-94813431D01*
X242652162Y-94813429D01*
X242652156Y-94813425D01*
X242652151Y-94813422D01*
X242652148Y-94813420D01*
X242402352Y-94669199D01*
X242402336Y-94669191D01*
X242135860Y-94558814D01*
X242135848Y-94558810D01*
X242135845Y-94558809D01*
X241857217Y-94484151D01*
X241857211Y-94484150D01*
X241857206Y-94484149D01*
X241571238Y-94446501D01*
X241571233Y-94446500D01*
X241571228Y-94446500D01*
X241282772Y-94446500D01*
X241282766Y-94446500D01*
X241282761Y-94446501D01*
X240996793Y-94484149D01*
X240996786Y-94484150D01*
X240996783Y-94484151D01*
X240798779Y-94537206D01*
X240718155Y-94558809D01*
X240718139Y-94558814D01*
X240451663Y-94669191D01*
X240451647Y-94669199D01*
X240201851Y-94813420D01*
X240201835Y-94813431D01*
X239972997Y-94989024D01*
X239972990Y-94989030D01*
X239769030Y-95192990D01*
X239769024Y-95192997D01*
X239593431Y-95421835D01*
X239593420Y-95421851D01*
X239449199Y-95671647D01*
X239449191Y-95671663D01*
X239338814Y-95938139D01*
X239338809Y-95938155D01*
X239272980Y-96183835D01*
X239264152Y-96216780D01*
X239264149Y-96216793D01*
X239226501Y-96502761D01*
X239226500Y-96502778D01*
X216091388Y-96502778D01*
X216067977Y-96354966D01*
X216052554Y-96307500D01*
X216023082Y-96216793D01*
X216004720Y-96160281D01*
X216004718Y-96160278D01*
X216004718Y-96160276D01*
X215971003Y-96094107D01*
X215911787Y-95977890D01*
X215896392Y-95956700D01*
X215791471Y-95812286D01*
X215646713Y-95667528D01*
X215481113Y-95547215D01*
X215481112Y-95547214D01*
X215481110Y-95547213D01*
X215421398Y-95516788D01*
X215298723Y-95454281D01*
X215104034Y-95391022D01*
X214929495Y-95363378D01*
X214901852Y-95359000D01*
X214697148Y-95359000D01*
X214672829Y-95362851D01*
X214494965Y-95391022D01*
X214300276Y-95454281D01*
X214117886Y-95547215D01*
X213952286Y-95667528D01*
X213807528Y-95812286D01*
X213687215Y-95977886D01*
X213594281Y-96160276D01*
X213531022Y-96354965D01*
X213499000Y-96557148D01*
X208479999Y-96557148D01*
X208479999Y-96059492D01*
X208469499Y-95956703D01*
X208414314Y-95790166D01*
X208322212Y-95640844D01*
X208198156Y-95516788D01*
X208096814Y-95454280D01*
X208048836Y-95424687D01*
X208048831Y-95424685D01*
X208047362Y-95424198D01*
X207882297Y-95369501D01*
X207882295Y-95369500D01*
X207779510Y-95359000D01*
X206579498Y-95359000D01*
X206579481Y-95359001D01*
X206476703Y-95369500D01*
X206476700Y-95369501D01*
X206310168Y-95424685D01*
X206310163Y-95424687D01*
X206160842Y-95516789D01*
X206036789Y-95640842D01*
X205944687Y-95790163D01*
X205944686Y-95790166D01*
X205889501Y-95956703D01*
X205889501Y-95956704D01*
X205889500Y-95956704D01*
X205879000Y-96059483D01*
X194905150Y-96059483D01*
X194824975Y-95954997D01*
X194824969Y-95954990D01*
X194621009Y-95751030D01*
X194621002Y-95751024D01*
X194392164Y-95575431D01*
X194392162Y-95575429D01*
X194392156Y-95575425D01*
X194392151Y-95575422D01*
X194392148Y-95575420D01*
X194142352Y-95431199D01*
X194142336Y-95431191D01*
X193875860Y-95320814D01*
X193875848Y-95320810D01*
X193875845Y-95320809D01*
X193597217Y-95246151D01*
X193597211Y-95246150D01*
X193597206Y-95246149D01*
X193311238Y-95208501D01*
X193311233Y-95208500D01*
X193311228Y-95208500D01*
X193022772Y-95208500D01*
X193022766Y-95208500D01*
X193022761Y-95208501D01*
X192736793Y-95246149D01*
X192736786Y-95246150D01*
X192736783Y-95246151D01*
X192458155Y-95320809D01*
X192458139Y-95320814D01*
X192191663Y-95431191D01*
X192191647Y-95431199D01*
X191941851Y-95575420D01*
X191941835Y-95575431D01*
X191712997Y-95751024D01*
X191712990Y-95751030D01*
X191509030Y-95954990D01*
X191509024Y-95954997D01*
X191333431Y-96183835D01*
X191333420Y-96183851D01*
X191189199Y-96433647D01*
X191189191Y-96433663D01*
X191078814Y-96700139D01*
X191078809Y-96700155D01*
X191039883Y-96845431D01*
X191004152Y-96978780D01*
X191004149Y-96978793D01*
X190966501Y-97264761D01*
X190966500Y-97264778D01*
X188809121Y-97264778D01*
X188788620Y-97201681D01*
X188788618Y-97201678D01*
X188788618Y-97201676D01*
X188737265Y-97100891D01*
X188695687Y-97019290D01*
X188680292Y-96998100D01*
X188575371Y-96853686D01*
X188430613Y-96708928D01*
X188265013Y-96588615D01*
X188265012Y-96588614D01*
X188265010Y-96588613D01*
X188203257Y-96557148D01*
X188082623Y-96495681D01*
X187887934Y-96432422D01*
X187713395Y-96404778D01*
X187685752Y-96400400D01*
X187481048Y-96400400D01*
X187456729Y-96404251D01*
X187278865Y-96432422D01*
X187084176Y-96495681D01*
X186901786Y-96588615D01*
X186736186Y-96708928D01*
X186591428Y-96853686D01*
X186471115Y-97019286D01*
X186378181Y-97201676D01*
X186314922Y-97396365D01*
X186282900Y-97598548D01*
X181263899Y-97598548D01*
X181263899Y-97100892D01*
X181261479Y-97077206D01*
X181253399Y-96998103D01*
X181253398Y-96998100D01*
X181246996Y-96978780D01*
X181198214Y-96831566D01*
X181106112Y-96682244D01*
X180982056Y-96558188D01*
X180852862Y-96478501D01*
X180832736Y-96466087D01*
X180832731Y-96466085D01*
X180831262Y-96465598D01*
X180666197Y-96410901D01*
X180666195Y-96410900D01*
X180563410Y-96400400D01*
X179363398Y-96400400D01*
X179363381Y-96400401D01*
X179260603Y-96410900D01*
X179260600Y-96410901D01*
X179094068Y-96466085D01*
X179094063Y-96466087D01*
X178944742Y-96558189D01*
X178820689Y-96682242D01*
X178728587Y-96831563D01*
X178728585Y-96831568D01*
X178721258Y-96853681D01*
X178673401Y-96998103D01*
X178673401Y-96998104D01*
X178673400Y-96998104D01*
X178662900Y-97100883D01*
X111769862Y-97100883D01*
X111690009Y-97021030D01*
X111690002Y-97021024D01*
X111461164Y-96845431D01*
X111461162Y-96845429D01*
X111461156Y-96845425D01*
X111461151Y-96845422D01*
X111461148Y-96845420D01*
X111211352Y-96701199D01*
X111211336Y-96701191D01*
X110944860Y-96590814D01*
X110944848Y-96590810D01*
X110944845Y-96590809D01*
X110666217Y-96516151D01*
X110666211Y-96516150D01*
X110666206Y-96516149D01*
X110380238Y-96478501D01*
X110380233Y-96478500D01*
X110380228Y-96478500D01*
X110091772Y-96478500D01*
X110091766Y-96478500D01*
X110091761Y-96478501D01*
X109805793Y-96516149D01*
X109805786Y-96516150D01*
X109805783Y-96516151D01*
X109648895Y-96558189D01*
X109527155Y-96590809D01*
X109527139Y-96590814D01*
X109260663Y-96701191D01*
X109260647Y-96701199D01*
X109010851Y-96845420D01*
X109010835Y-96845431D01*
X108781997Y-97021024D01*
X108781990Y-97021030D01*
X108578030Y-97224990D01*
X108578024Y-97224997D01*
X108402431Y-97453835D01*
X108402420Y-97453851D01*
X108258199Y-97703647D01*
X108258191Y-97703663D01*
X108147814Y-97970139D01*
X108147809Y-97970155D01*
X108086190Y-98200123D01*
X108073152Y-98248780D01*
X108073149Y-98248793D01*
X108035501Y-98534761D01*
X108035500Y-98534778D01*
X46926600Y-98534778D01*
X46926600Y-93962778D01*
X90509500Y-93962778D01*
X90509500Y-94251221D01*
X90509501Y-94251238D01*
X90547149Y-94537206D01*
X90547150Y-94537211D01*
X90547151Y-94537217D01*
X90621159Y-94813420D01*
X90621809Y-94815844D01*
X90621814Y-94815860D01*
X90732191Y-95082336D01*
X90732199Y-95082352D01*
X90876420Y-95332148D01*
X90876431Y-95332164D01*
X91052024Y-95561002D01*
X91052030Y-95561009D01*
X91255990Y-95764969D01*
X91255997Y-95764975D01*
X91317648Y-95812281D01*
X91484844Y-95940575D01*
X91484851Y-95940579D01*
X91734647Y-96084800D01*
X91734663Y-96084808D01*
X92001139Y-96195185D01*
X92001145Y-96195186D01*
X92001155Y-96195191D01*
X92279783Y-96269849D01*
X92565772Y-96307500D01*
X92565779Y-96307500D01*
X92854221Y-96307500D01*
X92854228Y-96307500D01*
X93140217Y-96269849D01*
X93418845Y-96195191D01*
X93418857Y-96195185D01*
X93418860Y-96195185D01*
X93685336Y-96084808D01*
X93685339Y-96084806D01*
X93685345Y-96084804D01*
X93935156Y-95940575D01*
X94164004Y-95764974D01*
X94367974Y-95561004D01*
X94543575Y-95332156D01*
X94687804Y-95082345D01*
X94798191Y-94815845D01*
X94872849Y-94537217D01*
X94910500Y-94251228D01*
X94910500Y-93962772D01*
X94872849Y-93676783D01*
X94798191Y-93398155D01*
X94798186Y-93398145D01*
X94798185Y-93398139D01*
X94687808Y-93131663D01*
X94687800Y-93131647D01*
X94543579Y-92881851D01*
X94543575Y-92881844D01*
X94367974Y-92652996D01*
X94367969Y-92652990D01*
X94164009Y-92449030D01*
X94164002Y-92449024D01*
X93935164Y-92273431D01*
X93935162Y-92273429D01*
X93935156Y-92273425D01*
X93935151Y-92273422D01*
X93935148Y-92273420D01*
X93685352Y-92129199D01*
X93685336Y-92129191D01*
X93418860Y-92018814D01*
X93418848Y-92018810D01*
X93418845Y-92018809D01*
X93140217Y-91944151D01*
X93140211Y-91944150D01*
X93140206Y-91944149D01*
X92854238Y-91906501D01*
X92854233Y-91906500D01*
X92854228Y-91906500D01*
X92565772Y-91906500D01*
X92565766Y-91906500D01*
X92565761Y-91906501D01*
X92279793Y-91944149D01*
X92279786Y-91944150D01*
X92279783Y-91944151D01*
X92001155Y-92018809D01*
X92001139Y-92018814D01*
X91734663Y-92129191D01*
X91734647Y-92129199D01*
X91484851Y-92273420D01*
X91484835Y-92273431D01*
X91255997Y-92449024D01*
X91255990Y-92449030D01*
X91052030Y-92652990D01*
X91052024Y-92652997D01*
X90876431Y-92881835D01*
X90876420Y-92881851D01*
X90732199Y-93131647D01*
X90732191Y-93131663D01*
X90621814Y-93398139D01*
X90621809Y-93398155D01*
X90547152Y-93676780D01*
X90547149Y-93676793D01*
X90509501Y-93962761D01*
X90509500Y-93962778D01*
X46926600Y-93962778D01*
X46926600Y-91644844D01*
X59041000Y-91644844D01*
X59047401Y-91704372D01*
X59047403Y-91704379D01*
X59097645Y-91839086D01*
X59097649Y-91839093D01*
X59183809Y-91954187D01*
X59183812Y-91954190D01*
X59298906Y-92040350D01*
X59298913Y-92040354D01*
X59433620Y-92090596D01*
X59433627Y-92090598D01*
X59493155Y-92096999D01*
X59493172Y-92097000D01*
X61091000Y-92097000D01*
X61591000Y-92097000D01*
X63188828Y-92097000D01*
X63188844Y-92096999D01*
X63248372Y-92090598D01*
X63248379Y-92090596D01*
X63383086Y-92040354D01*
X63383093Y-92040350D01*
X63498187Y-91954190D01*
X63498190Y-91954187D01*
X63584350Y-91839093D01*
X63584354Y-91839086D01*
X63634596Y-91704379D01*
X63634598Y-91704372D01*
X63640999Y-91644844D01*
X63641000Y-91644827D01*
X63641000Y-90547000D01*
X61591000Y-90547000D01*
X61591000Y-92097000D01*
X61091000Y-92097000D01*
X61091000Y-90547000D01*
X59041000Y-90547000D01*
X59041000Y-91644844D01*
X46926600Y-91644844D01*
X46926600Y-88949155D01*
X59041000Y-88949155D01*
X59041000Y-90047000D01*
X61091000Y-90047000D01*
X61591000Y-90047000D01*
X63641000Y-90047000D01*
X63641000Y-88949172D01*
X63640999Y-88949155D01*
X63634598Y-88889627D01*
X63634596Y-88889620D01*
X63584354Y-88754913D01*
X63584350Y-88754906D01*
X63498190Y-88639812D01*
X63498187Y-88639809D01*
X63383093Y-88553649D01*
X63383086Y-88553645D01*
X63248379Y-88503403D01*
X63248372Y-88503401D01*
X63188844Y-88497000D01*
X61591000Y-88497000D01*
X61591000Y-90047000D01*
X61091000Y-90047000D01*
X61091000Y-88497000D01*
X59493155Y-88497000D01*
X59433627Y-88503401D01*
X59433620Y-88503403D01*
X59298913Y-88553645D01*
X59298906Y-88553649D01*
X59183812Y-88639809D01*
X59183809Y-88639812D01*
X59097649Y-88754906D01*
X59097645Y-88754913D01*
X59047403Y-88889620D01*
X59047401Y-88889627D01*
X59041000Y-88949155D01*
X46926600Y-88949155D01*
X46926600Y-88247778D01*
X118830500Y-88247778D01*
X118830500Y-88536221D01*
X118830501Y-88536238D01*
X118868149Y-88822206D01*
X118868150Y-88822211D01*
X118868151Y-88822217D01*
X118942809Y-89100844D01*
X118942814Y-89100860D01*
X119053191Y-89367336D01*
X119053199Y-89367352D01*
X119197420Y-89617148D01*
X119197431Y-89617164D01*
X119373024Y-89846002D01*
X119373030Y-89846009D01*
X119576990Y-90049969D01*
X119576996Y-90049974D01*
X119805844Y-90225575D01*
X119805851Y-90225579D01*
X120055647Y-90369800D01*
X120055663Y-90369808D01*
X120322139Y-90480185D01*
X120322145Y-90480186D01*
X120322155Y-90480191D01*
X120600783Y-90554849D01*
X120886772Y-90592500D01*
X120886779Y-90592500D01*
X121175221Y-90592500D01*
X121175228Y-90592500D01*
X121461217Y-90554849D01*
X121739845Y-90480191D01*
X121739857Y-90480185D01*
X121739860Y-90480185D01*
X122006336Y-90369808D01*
X122006339Y-90369806D01*
X122006345Y-90369804D01*
X122256156Y-90225575D01*
X122485004Y-90049974D01*
X122688974Y-89846004D01*
X122864575Y-89617156D01*
X123008804Y-89367345D01*
X123037016Y-89299236D01*
X123119185Y-89100860D01*
X123119185Y-89100857D01*
X123119191Y-89100845D01*
X123193849Y-88822217D01*
X123231500Y-88536228D01*
X123231500Y-88247772D01*
X123193849Y-87961783D01*
X123158507Y-87829883D01*
X124984656Y-87829883D01*
X124984656Y-89029901D01*
X124984657Y-89029918D01*
X124995156Y-89132696D01*
X124995157Y-89132699D01*
X125043012Y-89277113D01*
X125050342Y-89299234D01*
X125142444Y-89448556D01*
X125266500Y-89572612D01*
X125415822Y-89664714D01*
X125582359Y-89719899D01*
X125685147Y-89730400D01*
X126885164Y-89730399D01*
X126987953Y-89719899D01*
X127154490Y-89664714D01*
X127303812Y-89572612D01*
X127427868Y-89448556D01*
X127519970Y-89299234D01*
X127575155Y-89132697D01*
X127585656Y-89029909D01*
X127585655Y-88327548D01*
X132604656Y-88327548D01*
X132604656Y-88532251D01*
X132636678Y-88734434D01*
X132699937Y-88929123D01*
X132751291Y-89029909D01*
X132787434Y-89100844D01*
X132792871Y-89111513D01*
X132913184Y-89277113D01*
X133057942Y-89421871D01*
X133212905Y-89534456D01*
X133223546Y-89542187D01*
X133339763Y-89601403D01*
X133405932Y-89635118D01*
X133405934Y-89635118D01*
X133405937Y-89635120D01*
X133497012Y-89664712D01*
X133600621Y-89698377D01*
X133701713Y-89714388D01*
X133802804Y-89730400D01*
X133802805Y-89730400D01*
X134007507Y-89730400D01*
X134007508Y-89730400D01*
X134209690Y-89698377D01*
X134404375Y-89635120D01*
X134586766Y-89542187D01*
X134715638Y-89448557D01*
X134752369Y-89421871D01*
X134752371Y-89421868D01*
X134752375Y-89421866D01*
X134897122Y-89277119D01*
X134897124Y-89277115D01*
X134897127Y-89277113D01*
X135002048Y-89132699D01*
X135017443Y-89111510D01*
X135110376Y-88929119D01*
X135173633Y-88734434D01*
X135205656Y-88532252D01*
X135205656Y-88327548D01*
X135173633Y-88125365D01*
X135120485Y-87961793D01*
X135110376Y-87930681D01*
X135110374Y-87930678D01*
X135110374Y-87930676D01*
X135076659Y-87864507D01*
X135017443Y-87748290D01*
X134984281Y-87702646D01*
X134897127Y-87582686D01*
X134752369Y-87437928D01*
X134586769Y-87317615D01*
X134586768Y-87317614D01*
X134586766Y-87317613D01*
X134527054Y-87287188D01*
X134404379Y-87224681D01*
X134209690Y-87161422D01*
X134035151Y-87133778D01*
X134007508Y-87129400D01*
X133802804Y-87129400D01*
X133778485Y-87133251D01*
X133600621Y-87161422D01*
X133405932Y-87224681D01*
X133223542Y-87317615D01*
X133057942Y-87437928D01*
X132913184Y-87582686D01*
X132792871Y-87748286D01*
X132699937Y-87930676D01*
X132636678Y-88125365D01*
X132604656Y-88327548D01*
X127585655Y-88327548D01*
X127585655Y-87829892D01*
X127575155Y-87727103D01*
X127519970Y-87560566D01*
X127427868Y-87411244D01*
X127303812Y-87287188D01*
X127154490Y-87195086D01*
X126987953Y-87139901D01*
X126987951Y-87139900D01*
X126885166Y-87129400D01*
X125685154Y-87129400D01*
X125685137Y-87129401D01*
X125582359Y-87139900D01*
X125582356Y-87139901D01*
X125415824Y-87195085D01*
X125415819Y-87195087D01*
X125266498Y-87287189D01*
X125142445Y-87411242D01*
X125050343Y-87560563D01*
X125050342Y-87560566D01*
X124995157Y-87727103D01*
X124995157Y-87727104D01*
X124995156Y-87727104D01*
X124984656Y-87829883D01*
X123158507Y-87829883D01*
X123119191Y-87683155D01*
X123119186Y-87683144D01*
X123119185Y-87683139D01*
X123008808Y-87416663D01*
X123008800Y-87416647D01*
X122864579Y-87166851D01*
X122864575Y-87166844D01*
X122688974Y-86937996D01*
X122688969Y-86937990D01*
X122485009Y-86734030D01*
X122485002Y-86734024D01*
X122256164Y-86558431D01*
X122256162Y-86558429D01*
X122256156Y-86558425D01*
X122256151Y-86558422D01*
X122256148Y-86558420D01*
X122006352Y-86414199D01*
X122006336Y-86414191D01*
X121739860Y-86303814D01*
X121739848Y-86303810D01*
X121739845Y-86303809D01*
X121461217Y-86229151D01*
X121461211Y-86229150D01*
X121461206Y-86229149D01*
X121175238Y-86191501D01*
X121175233Y-86191500D01*
X121175228Y-86191500D01*
X120886772Y-86191500D01*
X120886766Y-86191500D01*
X120886761Y-86191501D01*
X120600793Y-86229149D01*
X120600786Y-86229150D01*
X120600783Y-86229151D01*
X120414322Y-86279113D01*
X120322155Y-86303809D01*
X120322139Y-86303814D01*
X120055663Y-86414191D01*
X120055647Y-86414199D01*
X119805851Y-86558420D01*
X119805835Y-86558431D01*
X119576997Y-86734024D01*
X119576990Y-86734030D01*
X119373030Y-86937990D01*
X119373024Y-86937997D01*
X119197431Y-87166835D01*
X119197420Y-87166851D01*
X119053199Y-87416647D01*
X119053191Y-87416663D01*
X118942814Y-87683139D01*
X118942810Y-87683152D01*
X118942809Y-87683155D01*
X118895988Y-87857896D01*
X118868152Y-87961780D01*
X118868149Y-87961793D01*
X118830501Y-88247761D01*
X118830500Y-88247778D01*
X46926600Y-88247778D01*
X46926600Y-78214778D01*
X118830500Y-78214778D01*
X118830500Y-78503221D01*
X118830501Y-78503238D01*
X118868149Y-78789206D01*
X118868150Y-78789211D01*
X118868151Y-78789217D01*
X118942318Y-79066013D01*
X118942809Y-79067844D01*
X118942814Y-79067860D01*
X119053191Y-79334336D01*
X119053199Y-79334352D01*
X119197420Y-79584148D01*
X119197431Y-79584164D01*
X119373024Y-79813002D01*
X119373030Y-79813009D01*
X119576990Y-80016969D01*
X119576996Y-80016974D01*
X119805844Y-80192575D01*
X119805851Y-80192579D01*
X120055647Y-80336800D01*
X120055663Y-80336808D01*
X120322139Y-80447185D01*
X120322145Y-80447186D01*
X120322155Y-80447191D01*
X120600783Y-80521849D01*
X120886772Y-80559500D01*
X120886779Y-80559500D01*
X121175221Y-80559500D01*
X121175228Y-80559500D01*
X121461217Y-80521849D01*
X121739845Y-80447191D01*
X121739857Y-80447185D01*
X121739860Y-80447185D01*
X121835584Y-80407535D01*
X173109400Y-80407535D01*
X173109400Y-82203270D01*
X173109401Y-82203276D01*
X173115808Y-82262883D01*
X173166102Y-82397728D01*
X173166106Y-82397735D01*
X173252352Y-82512944D01*
X173252355Y-82512947D01*
X173367564Y-82599193D01*
X173367571Y-82599197D01*
X173498982Y-82648210D01*
X173554916Y-82690081D01*
X173579333Y-82755545D01*
X173564482Y-82823818D01*
X173543331Y-82852073D01*
X173429789Y-82965615D01*
X173304851Y-83137579D01*
X173208344Y-83326985D01*
X173142653Y-83529160D01*
X173109400Y-83739113D01*
X173109400Y-83951686D01*
X173142653Y-84161639D01*
X173208344Y-84363814D01*
X173304851Y-84553220D01*
X173429790Y-84725186D01*
X173580113Y-84875509D01*
X173752082Y-85000450D01*
X173760846Y-85004916D01*
X173811642Y-85052891D01*
X173828436Y-85120712D01*
X173805898Y-85186847D01*
X173760846Y-85225884D01*
X173752082Y-85230349D01*
X173580113Y-85355290D01*
X173429790Y-85505613D01*
X173304851Y-85677579D01*
X173208344Y-85866985D01*
X173142653Y-86069160D01*
X173117313Y-86229151D01*
X173109400Y-86279113D01*
X173109400Y-86491687D01*
X173142654Y-86701643D01*
X173153177Y-86734030D01*
X173208344Y-86903814D01*
X173304851Y-87093220D01*
X173429790Y-87265186D01*
X173580113Y-87415509D01*
X173752079Y-87540448D01*
X173752081Y-87540449D01*
X173752084Y-87540451D01*
X173941488Y-87636957D01*
X174143657Y-87702646D01*
X174353613Y-87735900D01*
X174353614Y-87735900D01*
X174566186Y-87735900D01*
X174566187Y-87735900D01*
X174776143Y-87702646D01*
X174978312Y-87636957D01*
X175167716Y-87540451D01*
X175193687Y-87521582D01*
X175339686Y-87415509D01*
X175339688Y-87415506D01*
X175339692Y-87415504D01*
X175490004Y-87265192D01*
X175490006Y-87265188D01*
X175490009Y-87265186D01*
X175614948Y-87093220D01*
X175614947Y-87093220D01*
X175614951Y-87093216D01*
X175711457Y-86903812D01*
X175777146Y-86701643D01*
X175810400Y-86491687D01*
X175810400Y-86279113D01*
X175777146Y-86069157D01*
X175761185Y-86020035D01*
X192374400Y-86020035D01*
X192374400Y-87461970D01*
X192374401Y-87461976D01*
X192380808Y-87521583D01*
X192431102Y-87656428D01*
X192431106Y-87656435D01*
X192517352Y-87771644D01*
X192517355Y-87771647D01*
X192632564Y-87857893D01*
X192632571Y-87857897D01*
X192767417Y-87908191D01*
X192767416Y-87908191D01*
X192774344Y-87908935D01*
X192827027Y-87914600D01*
X194268972Y-87914599D01*
X194328583Y-87908191D01*
X194463431Y-87857896D01*
X194578646Y-87771646D01*
X194664896Y-87656431D01*
X194715191Y-87521583D01*
X194721600Y-87461973D01*
X194721599Y-86020028D01*
X194715191Y-85960417D01*
X194680344Y-85866988D01*
X194664897Y-85825571D01*
X194664893Y-85825564D01*
X194578647Y-85710355D01*
X194578644Y-85710352D01*
X194483377Y-85639035D01*
X240253400Y-85639035D01*
X240253400Y-87080970D01*
X240253401Y-87080976D01*
X240259808Y-87140583D01*
X240310102Y-87275428D01*
X240310106Y-87275435D01*
X240396352Y-87390644D01*
X240396355Y-87390647D01*
X240511564Y-87476893D01*
X240511571Y-87476897D01*
X240646417Y-87527191D01*
X240646416Y-87527191D01*
X240653344Y-87527935D01*
X240706027Y-87533600D01*
X242147972Y-87533599D01*
X242207583Y-87527191D01*
X242342431Y-87476896D01*
X242457646Y-87390646D01*
X242543896Y-87275431D01*
X242594191Y-87140583D01*
X242600600Y-87080973D01*
X242600599Y-85639028D01*
X242594191Y-85579417D01*
X242592099Y-85573809D01*
X242543897Y-85444571D01*
X242543893Y-85444564D01*
X242457647Y-85329355D01*
X242457644Y-85329352D01*
X242342435Y-85243106D01*
X242342428Y-85243102D01*
X242207582Y-85192808D01*
X242207583Y-85192808D01*
X242147983Y-85186401D01*
X242147981Y-85186400D01*
X242147973Y-85186400D01*
X242147964Y-85186400D01*
X240706029Y-85186400D01*
X240706023Y-85186401D01*
X240646416Y-85192808D01*
X240511571Y-85243102D01*
X240511564Y-85243106D01*
X240396355Y-85329352D01*
X240396352Y-85329355D01*
X240310106Y-85444564D01*
X240310102Y-85444571D01*
X240259808Y-85579417D01*
X240255004Y-85624104D01*
X240253401Y-85639023D01*
X240253400Y-85639035D01*
X194483377Y-85639035D01*
X194463435Y-85624106D01*
X194463428Y-85624102D01*
X194328582Y-85573808D01*
X194328583Y-85573808D01*
X194268983Y-85567401D01*
X194268981Y-85567400D01*
X194268973Y-85567400D01*
X194268964Y-85567400D01*
X192827029Y-85567400D01*
X192827023Y-85567401D01*
X192767416Y-85573808D01*
X192632571Y-85624102D01*
X192632564Y-85624106D01*
X192517355Y-85710352D01*
X192517352Y-85710355D01*
X192431106Y-85825564D01*
X192431102Y-85825571D01*
X192380808Y-85960417D01*
X192374401Y-86020016D01*
X192374401Y-86020023D01*
X192374400Y-86020035D01*
X175761185Y-86020035D01*
X175711457Y-85866988D01*
X175711455Y-85866985D01*
X175711455Y-85866983D01*
X175658605Y-85763261D01*
X175614951Y-85677584D01*
X175614949Y-85677581D01*
X175614948Y-85677579D01*
X175490009Y-85505613D01*
X175339686Y-85355290D01*
X175167720Y-85230351D01*
X175167015Y-85229991D01*
X175158954Y-85225885D01*
X175108159Y-85177912D01*
X175091363Y-85110092D01*
X175113899Y-85043956D01*
X175158954Y-85004915D01*
X175167716Y-85000451D01*
X175215752Y-84965551D01*
X175339686Y-84875509D01*
X175339688Y-84875506D01*
X175339692Y-84875504D01*
X175490004Y-84725192D01*
X175490006Y-84725188D01*
X175490009Y-84725186D01*
X175614948Y-84553220D01*
X175614947Y-84553220D01*
X175614951Y-84553216D01*
X175711457Y-84363812D01*
X175777146Y-84161643D01*
X175785542Y-84108636D01*
X175785543Y-84108630D01*
X189834400Y-84108630D01*
X189834400Y-84293369D01*
X189863298Y-84475820D01*
X189863298Y-84475823D01*
X189920380Y-84651503D01*
X189957924Y-84725186D01*
X190004247Y-84816100D01*
X190112828Y-84965549D01*
X190243451Y-85096172D01*
X190392900Y-85204753D01*
X190468168Y-85243104D01*
X190557496Y-85288619D01*
X190682867Y-85329354D01*
X190733181Y-85345702D01*
X190805901Y-85357219D01*
X190915631Y-85374600D01*
X190915636Y-85374600D01*
X191100369Y-85374600D01*
X191188819Y-85360590D01*
X191282819Y-85345702D01*
X191282822Y-85345701D01*
X191282823Y-85345701D01*
X191458503Y-85288619D01*
X191458503Y-85288618D01*
X191458506Y-85288618D01*
X191623100Y-85204753D01*
X191772549Y-85096172D01*
X191903172Y-84965549D01*
X192011753Y-84816100D01*
X192095618Y-84651506D01*
X192152702Y-84475819D01*
X192170442Y-84363812D01*
X192181600Y-84293369D01*
X192181600Y-84108630D01*
X192164788Y-84002489D01*
X192152702Y-83926181D01*
X192152701Y-83926177D01*
X192152701Y-83926176D01*
X192099059Y-83761082D01*
X192096648Y-83753664D01*
X192095618Y-83750494D01*
X192083968Y-83727630D01*
X237713400Y-83727630D01*
X237713400Y-83912369D01*
X237742298Y-84094820D01*
X237742298Y-84094823D01*
X237799380Y-84270503D01*
X237811031Y-84293369D01*
X237883247Y-84435100D01*
X237991828Y-84584549D01*
X238122451Y-84715172D01*
X238271900Y-84823753D01*
X238373467Y-84875504D01*
X238436496Y-84907619D01*
X238600364Y-84960862D01*
X238612181Y-84964702D01*
X238684901Y-84976219D01*
X238794631Y-84993600D01*
X238794636Y-84993600D01*
X238979369Y-84993600D01*
X239067819Y-84979590D01*
X239161819Y-84964702D01*
X239161822Y-84964701D01*
X239161823Y-84964701D01*
X239337503Y-84907619D01*
X239337503Y-84907618D01*
X239337506Y-84907618D01*
X239502100Y-84823753D01*
X239651549Y-84715172D01*
X239782172Y-84584549D01*
X239890753Y-84435100D01*
X239974618Y-84270506D01*
X240031702Y-84094819D01*
X240058412Y-83926181D01*
X240060600Y-83912369D01*
X240060600Y-83727630D01*
X240038151Y-83585899D01*
X240031702Y-83545181D01*
X240031701Y-83545177D01*
X240031701Y-83545176D01*
X239974619Y-83369496D01*
X239952960Y-83326988D01*
X239890753Y-83204900D01*
X239782172Y-83055451D01*
X239651549Y-82924828D01*
X239502100Y-82816247D01*
X239481402Y-82805701D01*
X239337503Y-82732380D01*
X239161821Y-82675298D01*
X238979369Y-82646400D01*
X238979364Y-82646400D01*
X238794636Y-82646400D01*
X238794631Y-82646400D01*
X238612179Y-82675298D01*
X238612176Y-82675298D01*
X238436496Y-82732380D01*
X238271899Y-82816247D01*
X238186633Y-82878196D01*
X238122451Y-82924828D01*
X238122449Y-82924830D01*
X238122448Y-82924830D01*
X237991830Y-83055448D01*
X237991830Y-83055449D01*
X237991828Y-83055451D01*
X237991213Y-83056298D01*
X237883247Y-83204899D01*
X237799380Y-83369496D01*
X237742298Y-83545176D01*
X237742298Y-83545179D01*
X237713400Y-83727630D01*
X192083968Y-83727630D01*
X192011753Y-83585900D01*
X191903172Y-83436451D01*
X191772549Y-83305828D01*
X191623100Y-83197247D01*
X191458503Y-83113380D01*
X191282821Y-83056298D01*
X191100369Y-83027400D01*
X191100364Y-83027400D01*
X190915636Y-83027400D01*
X190915631Y-83027400D01*
X190733179Y-83056298D01*
X190733176Y-83056298D01*
X190557496Y-83113380D01*
X190392899Y-83197247D01*
X190307633Y-83259196D01*
X190243451Y-83305828D01*
X190243449Y-83305830D01*
X190243448Y-83305830D01*
X190112830Y-83436448D01*
X190112830Y-83436449D01*
X190112828Y-83436451D01*
X190066196Y-83500633D01*
X190004247Y-83585899D01*
X189920380Y-83750496D01*
X189863298Y-83926176D01*
X189863298Y-83926179D01*
X189834400Y-84108630D01*
X175785543Y-84108630D01*
X175789386Y-84084366D01*
X175789386Y-84084365D01*
X175810400Y-83951687D01*
X175810400Y-83739113D01*
X175779684Y-83545181D01*
X175777146Y-83529157D01*
X175711457Y-83326988D01*
X175614951Y-83137584D01*
X175614949Y-83137581D01*
X175614948Y-83137579D01*
X175490009Y-82965613D01*
X175376469Y-82852073D01*
X175342984Y-82790750D01*
X175347968Y-82721058D01*
X175389840Y-82665125D01*
X175420815Y-82648210D01*
X175552231Y-82599196D01*
X175667446Y-82512946D01*
X175753696Y-82397731D01*
X175803991Y-82262883D01*
X175810400Y-82203273D01*
X175810399Y-81568630D01*
X192374400Y-81568630D01*
X192374400Y-81753369D01*
X192403298Y-81935820D01*
X192403298Y-81935823D01*
X192460380Y-82111503D01*
X192507135Y-82203264D01*
X192544247Y-82276100D01*
X192652828Y-82425549D01*
X192783451Y-82556172D01*
X192932900Y-82664753D01*
X193043405Y-82721058D01*
X193097496Y-82748619D01*
X193227163Y-82790750D01*
X193273181Y-82805702D01*
X193339760Y-82816247D01*
X193455631Y-82834600D01*
X193455636Y-82834600D01*
X193640369Y-82834600D01*
X193728819Y-82820590D01*
X193822819Y-82805702D01*
X193822822Y-82805701D01*
X193822823Y-82805701D01*
X193998503Y-82748619D01*
X193998503Y-82748618D01*
X193998506Y-82748618D01*
X194163100Y-82664753D01*
X194312549Y-82556172D01*
X194443172Y-82425549D01*
X194551753Y-82276100D01*
X194635618Y-82111506D01*
X194692702Y-81935819D01*
X194707590Y-81841819D01*
X194721600Y-81753369D01*
X194721600Y-81568630D01*
X194704788Y-81462489D01*
X194692702Y-81386181D01*
X194692701Y-81386177D01*
X194692701Y-81386176D01*
X194639059Y-81221082D01*
X194636648Y-81213664D01*
X194635618Y-81210494D01*
X194623968Y-81187630D01*
X240253400Y-81187630D01*
X240253400Y-81372369D01*
X240282298Y-81554820D01*
X240282298Y-81554823D01*
X240339380Y-81730503D01*
X240351031Y-81753369D01*
X240423247Y-81895100D01*
X240531828Y-82044549D01*
X240662451Y-82175172D01*
X240811900Y-82283753D01*
X240976494Y-82367618D01*
X240976496Y-82367619D01*
X241140364Y-82420862D01*
X241152181Y-82424702D01*
X241224901Y-82436219D01*
X241334631Y-82453600D01*
X241334636Y-82453600D01*
X241519369Y-82453600D01*
X241607819Y-82439590D01*
X241701819Y-82424702D01*
X241701822Y-82424701D01*
X241701823Y-82424701D01*
X241877503Y-82367619D01*
X241877503Y-82367618D01*
X241877506Y-82367618D01*
X242042100Y-82283753D01*
X242191549Y-82175172D01*
X242322172Y-82044549D01*
X242430753Y-81895100D01*
X242514618Y-81730506D01*
X242571702Y-81554819D01*
X242598412Y-81386181D01*
X242600600Y-81372369D01*
X242600600Y-81187630D01*
X242578151Y-81045899D01*
X242571702Y-81005181D01*
X242571701Y-81005177D01*
X242571701Y-81005176D01*
X242514619Y-80829496D01*
X242514618Y-80829494D01*
X242430753Y-80664900D01*
X242322172Y-80515451D01*
X242191549Y-80384828D01*
X242042100Y-80276247D01*
X241877503Y-80192380D01*
X241701821Y-80135298D01*
X241519369Y-80106400D01*
X241519364Y-80106400D01*
X241334636Y-80106400D01*
X241334631Y-80106400D01*
X241152179Y-80135298D01*
X241152176Y-80135298D01*
X240976496Y-80192380D01*
X240811899Y-80276247D01*
X240728556Y-80336800D01*
X240662451Y-80384828D01*
X240662449Y-80384830D01*
X240662448Y-80384830D01*
X240531830Y-80515448D01*
X240531830Y-80515449D01*
X240531828Y-80515451D01*
X240527180Y-80521849D01*
X240423247Y-80664899D01*
X240339380Y-80829496D01*
X240282298Y-81005176D01*
X240282298Y-81005179D01*
X240253400Y-81187630D01*
X194623968Y-81187630D01*
X194551753Y-81045900D01*
X194443172Y-80896451D01*
X194312549Y-80765828D01*
X194163100Y-80657247D01*
X193998503Y-80573380D01*
X193822821Y-80516298D01*
X193640369Y-80487400D01*
X193640364Y-80487400D01*
X193455636Y-80487400D01*
X193455631Y-80487400D01*
X193273179Y-80516298D01*
X193273176Y-80516298D01*
X193097496Y-80573380D01*
X192932899Y-80657247D01*
X192847633Y-80719196D01*
X192783451Y-80765828D01*
X192783449Y-80765830D01*
X192783448Y-80765830D01*
X192652830Y-80896448D01*
X192652830Y-80896449D01*
X192652828Y-80896451D01*
X192606196Y-80960633D01*
X192544247Y-81045899D01*
X192460380Y-81210496D01*
X192403298Y-81386176D01*
X192403298Y-81386179D01*
X192374400Y-81568630D01*
X175810399Y-81568630D01*
X175810399Y-81221082D01*
X175810399Y-80407529D01*
X175810398Y-80407523D01*
X175810397Y-80407516D01*
X175803991Y-80347917D01*
X175753696Y-80213069D01*
X175753695Y-80213068D01*
X175753693Y-80213064D01*
X175667447Y-80097855D01*
X175667444Y-80097852D01*
X175552235Y-80011606D01*
X175552228Y-80011602D01*
X175417382Y-79961308D01*
X175417383Y-79961308D01*
X175357783Y-79954901D01*
X175357781Y-79954900D01*
X175357773Y-79954900D01*
X175357764Y-79954900D01*
X173562029Y-79954900D01*
X173562023Y-79954901D01*
X173502416Y-79961308D01*
X173367571Y-80011602D01*
X173367564Y-80011606D01*
X173252355Y-80097852D01*
X173252352Y-80097855D01*
X173166106Y-80213064D01*
X173166102Y-80213071D01*
X173115808Y-80347917D01*
X173111840Y-80384828D01*
X173109401Y-80407523D01*
X173109400Y-80407535D01*
X121835584Y-80407535D01*
X122006336Y-80336808D01*
X122006339Y-80336806D01*
X122006345Y-80336804D01*
X122006352Y-80336800D01*
X122075602Y-80296819D01*
X122171470Y-80241468D01*
X122256156Y-80192575D01*
X122485004Y-80016974D01*
X122688974Y-79813004D01*
X122864575Y-79584156D01*
X123008804Y-79334345D01*
X123041681Y-79254974D01*
X123119185Y-79067860D01*
X123119185Y-79067857D01*
X123119191Y-79067845D01*
X123193849Y-78789217D01*
X123231500Y-78503228D01*
X123231500Y-78214772D01*
X123193849Y-77928783D01*
X123155157Y-77784383D01*
X124942156Y-77784383D01*
X124942156Y-78984401D01*
X124942157Y-78984418D01*
X124952656Y-79087196D01*
X124952657Y-79087199D01*
X124977609Y-79162498D01*
X125007842Y-79253734D01*
X125099944Y-79403056D01*
X125224000Y-79527112D01*
X125373322Y-79619214D01*
X125539859Y-79674399D01*
X125642647Y-79684900D01*
X126842664Y-79684899D01*
X126945453Y-79674399D01*
X127111990Y-79619214D01*
X127261312Y-79527112D01*
X127385368Y-79403056D01*
X127477470Y-79253734D01*
X127532655Y-79087197D01*
X127543156Y-78984409D01*
X127543155Y-78282048D01*
X132562156Y-78282048D01*
X132562156Y-78486752D01*
X132564766Y-78503228D01*
X132594178Y-78688934D01*
X132657437Y-78883623D01*
X132708791Y-78984409D01*
X132742308Y-79050190D01*
X132750371Y-79066013D01*
X132870684Y-79231613D01*
X133015442Y-79376371D01*
X133170405Y-79488956D01*
X133181046Y-79496687D01*
X133297263Y-79555903D01*
X133363432Y-79589618D01*
X133363434Y-79589618D01*
X133363437Y-79589620D01*
X133454512Y-79619212D01*
X133558121Y-79652877D01*
X133659213Y-79668888D01*
X133760304Y-79684900D01*
X133760305Y-79684900D01*
X133965007Y-79684900D01*
X133965008Y-79684900D01*
X134167190Y-79652877D01*
X134361875Y-79589620D01*
X134544266Y-79496687D01*
X134673138Y-79403057D01*
X134709869Y-79376371D01*
X134709871Y-79376368D01*
X134709875Y-79376366D01*
X134854622Y-79231619D01*
X134854624Y-79231615D01*
X134854627Y-79231613D01*
X134907388Y-79158990D01*
X134974943Y-79066010D01*
X135067876Y-78883619D01*
X135131133Y-78688934D01*
X135163156Y-78486752D01*
X135163156Y-78282048D01*
X135131133Y-78079866D01*
X135067876Y-77885181D01*
X135067874Y-77885178D01*
X135067874Y-77885176D01*
X135031265Y-77813328D01*
X134974943Y-77702790D01*
X134936690Y-77650139D01*
X134854627Y-77537186D01*
X134770219Y-77452778D01*
X191474500Y-77452778D01*
X191474500Y-77741221D01*
X191474501Y-77741238D01*
X191512149Y-78027206D01*
X191512150Y-78027211D01*
X191512151Y-78027217D01*
X191555009Y-78187164D01*
X191586809Y-78305844D01*
X191586814Y-78305860D01*
X191697191Y-78572336D01*
X191697199Y-78572352D01*
X191841420Y-78822148D01*
X191841431Y-78822164D01*
X192017024Y-79051002D01*
X192017030Y-79051009D01*
X192220990Y-79254969D01*
X192220997Y-79254975D01*
X192379197Y-79376366D01*
X192449844Y-79430575D01*
X192449851Y-79430579D01*
X192699647Y-79574800D01*
X192699663Y-79574808D01*
X192966139Y-79685185D01*
X192966145Y-79685186D01*
X192966155Y-79685191D01*
X193244783Y-79759849D01*
X193530772Y-79797500D01*
X193530779Y-79797500D01*
X193819221Y-79797500D01*
X193819228Y-79797500D01*
X194105217Y-79759849D01*
X194383845Y-79685191D01*
X194383857Y-79685185D01*
X194383860Y-79685185D01*
X194650336Y-79574808D01*
X194650339Y-79574806D01*
X194650345Y-79574804D01*
X194900156Y-79430575D01*
X195129004Y-79254974D01*
X195332974Y-79051004D01*
X195508575Y-78822156D01*
X195652804Y-78572345D01*
X195688258Y-78486752D01*
X195763185Y-78305860D01*
X195763185Y-78305857D01*
X195763191Y-78305845D01*
X195837849Y-78027217D01*
X195875500Y-77741228D01*
X195875500Y-77452772D01*
X195837849Y-77166783D01*
X195763191Y-76888155D01*
X195763184Y-76888139D01*
X195752012Y-76861166D01*
X195752011Y-76861164D01*
X195734040Y-76817778D01*
X218017500Y-76817778D01*
X218017500Y-77106221D01*
X218017501Y-77106238D01*
X218055149Y-77392206D01*
X218055150Y-77392211D01*
X218055151Y-77392217D01*
X218124261Y-77650139D01*
X218129809Y-77670844D01*
X218129814Y-77670860D01*
X218240191Y-77937336D01*
X218240199Y-77937352D01*
X218384420Y-78187148D01*
X218384431Y-78187164D01*
X218560024Y-78416002D01*
X218560030Y-78416009D01*
X218763990Y-78619969D01*
X218763997Y-78619975D01*
X218926953Y-78745015D01*
X218992844Y-78795575D01*
X218992851Y-78795579D01*
X219242647Y-78939800D01*
X219242663Y-78939808D01*
X219509139Y-79050185D01*
X219509145Y-79050186D01*
X219509155Y-79050191D01*
X219787783Y-79124849D01*
X220073772Y-79162500D01*
X220073779Y-79162500D01*
X220362221Y-79162500D01*
X220362228Y-79162500D01*
X220648217Y-79124849D01*
X220926845Y-79050191D01*
X220926857Y-79050185D01*
X220926860Y-79050185D01*
X221193336Y-78939808D01*
X221193339Y-78939806D01*
X221193345Y-78939804D01*
X221443156Y-78795575D01*
X221672004Y-78619974D01*
X221875974Y-78416004D01*
X222051575Y-78187156D01*
X222195804Y-77937345D01*
X222199347Y-77928793D01*
X222306185Y-77670860D01*
X222306185Y-77670857D01*
X222306191Y-77670845D01*
X222380849Y-77392217D01*
X222418500Y-77106228D01*
X222418500Y-76817772D01*
X222380849Y-76531783D01*
X222306191Y-76253155D01*
X222306186Y-76253145D01*
X222306185Y-76253139D01*
X222195808Y-75986663D01*
X222195800Y-75986647D01*
X222051579Y-75736851D01*
X222051575Y-75736844D01*
X221875974Y-75507996D01*
X221875969Y-75507990D01*
X221672009Y-75304030D01*
X221672002Y-75304024D01*
X221616048Y-75261089D01*
X221493139Y-75166778D01*
X239226500Y-75166778D01*
X239226500Y-75455221D01*
X239226501Y-75455238D01*
X239264149Y-75741206D01*
X239264150Y-75741211D01*
X239264151Y-75741217D01*
X239317153Y-75939024D01*
X239338809Y-76019844D01*
X239338814Y-76019860D01*
X239449191Y-76286336D01*
X239449199Y-76286352D01*
X239593420Y-76536148D01*
X239593431Y-76536164D01*
X239769024Y-76765002D01*
X239769030Y-76765009D01*
X239972990Y-76968969D01*
X239972996Y-76968974D01*
X240201844Y-77144575D01*
X240201851Y-77144579D01*
X240451647Y-77288800D01*
X240451663Y-77288808D01*
X240718139Y-77399185D01*
X240718145Y-77399186D01*
X240718155Y-77399191D01*
X240996783Y-77473849D01*
X241282772Y-77511500D01*
X241282779Y-77511500D01*
X241571221Y-77511500D01*
X241571228Y-77511500D01*
X241857217Y-77473849D01*
X242135845Y-77399191D01*
X242135857Y-77399185D01*
X242135860Y-77399185D01*
X242402336Y-77288808D01*
X242402339Y-77288806D01*
X242402345Y-77288804D01*
X242652156Y-77144575D01*
X242881004Y-76968974D01*
X243084974Y-76765004D01*
X243260575Y-76536156D01*
X243404804Y-76286345D01*
X243418559Y-76253139D01*
X243515185Y-76019860D01*
X243515185Y-76019857D01*
X243515191Y-76019845D01*
X243589849Y-75741217D01*
X243627500Y-75455228D01*
X243627500Y-75166772D01*
X243589849Y-74880783D01*
X243515191Y-74602155D01*
X243515186Y-74602145D01*
X243515185Y-74602139D01*
X243404808Y-74335663D01*
X243404800Y-74335647D01*
X243260579Y-74085851D01*
X243260575Y-74085844D01*
X243084974Y-73856996D01*
X243084969Y-73856990D01*
X242881009Y-73653030D01*
X242881002Y-73653024D01*
X242652164Y-73477431D01*
X242652162Y-73477429D01*
X242652156Y-73477425D01*
X242652151Y-73477422D01*
X242652148Y-73477420D01*
X242402352Y-73333199D01*
X242402336Y-73333191D01*
X242135860Y-73222814D01*
X242135848Y-73222810D01*
X242135845Y-73222809D01*
X241857217Y-73148151D01*
X241857211Y-73148150D01*
X241857206Y-73148149D01*
X241571238Y-73110501D01*
X241571233Y-73110500D01*
X241571228Y-73110500D01*
X241282772Y-73110500D01*
X241282766Y-73110500D01*
X241282761Y-73110501D01*
X240996793Y-73148149D01*
X240996786Y-73148150D01*
X240996783Y-73148151D01*
X240718155Y-73222809D01*
X240718139Y-73222814D01*
X240451663Y-73333191D01*
X240451647Y-73333199D01*
X240201851Y-73477420D01*
X240201835Y-73477431D01*
X239972997Y-73653024D01*
X239972990Y-73653030D01*
X239769030Y-73856990D01*
X239769024Y-73856997D01*
X239593431Y-74085835D01*
X239593420Y-74085851D01*
X239449199Y-74335647D01*
X239449191Y-74335663D01*
X239338814Y-74602139D01*
X239338809Y-74602155D01*
X239266019Y-74873814D01*
X239264152Y-74880780D01*
X239264149Y-74880793D01*
X239226501Y-75166761D01*
X239226500Y-75166778D01*
X221493139Y-75166778D01*
X221443164Y-75128431D01*
X221443162Y-75128429D01*
X221443156Y-75128425D01*
X221443151Y-75128422D01*
X221443148Y-75128420D01*
X221193352Y-74984199D01*
X221193336Y-74984191D01*
X220926860Y-74873814D01*
X220926848Y-74873810D01*
X220926845Y-74873809D01*
X220648217Y-74799151D01*
X220648211Y-74799150D01*
X220648206Y-74799149D01*
X220362238Y-74761501D01*
X220362233Y-74761500D01*
X220362228Y-74761500D01*
X220073772Y-74761500D01*
X220073766Y-74761500D01*
X220073761Y-74761501D01*
X219787793Y-74799149D01*
X219787786Y-74799150D01*
X219787783Y-74799151D01*
X219775975Y-74802315D01*
X219509155Y-74873809D01*
X219509139Y-74873814D01*
X219242663Y-74984191D01*
X219242647Y-74984199D01*
X218992851Y-75128420D01*
X218992835Y-75128431D01*
X218763997Y-75304024D01*
X218763990Y-75304030D01*
X218560030Y-75507990D01*
X218560024Y-75507997D01*
X218384431Y-75736835D01*
X218384420Y-75736851D01*
X218240199Y-75986647D01*
X218240191Y-75986663D01*
X218129814Y-76253139D01*
X218129809Y-76253155D01*
X218098007Y-76371844D01*
X218055152Y-76531780D01*
X218055149Y-76531793D01*
X218017501Y-76817761D01*
X218017500Y-76817778D01*
X195734040Y-76817778D01*
X195652808Y-76621663D01*
X195652800Y-76621647D01*
X195513974Y-76381196D01*
X195508575Y-76371844D01*
X195442969Y-76286345D01*
X195332975Y-76142997D01*
X195332969Y-76142990D01*
X195129009Y-75939030D01*
X195129002Y-75939024D01*
X194900164Y-75763431D01*
X194900162Y-75763429D01*
X194900156Y-75763425D01*
X194900151Y-75763422D01*
X194900148Y-75763420D01*
X194650352Y-75619199D01*
X194650336Y-75619191D01*
X194383860Y-75508814D01*
X194383848Y-75508810D01*
X194383845Y-75508809D01*
X194105217Y-75434151D01*
X194105211Y-75434150D01*
X194105206Y-75434149D01*
X193819238Y-75396501D01*
X193819233Y-75396500D01*
X193819228Y-75396500D01*
X193530772Y-75396500D01*
X193530766Y-75396500D01*
X193530761Y-75396501D01*
X193244793Y-75434149D01*
X193244786Y-75434150D01*
X193244783Y-75434151D01*
X192969212Y-75507990D01*
X192966155Y-75508809D01*
X192966139Y-75508814D01*
X192699663Y-75619191D01*
X192699647Y-75619199D01*
X192449851Y-75763420D01*
X192449835Y-75763431D01*
X192220997Y-75939024D01*
X192220990Y-75939030D01*
X192017030Y-76142990D01*
X192017024Y-76142997D01*
X191841431Y-76371835D01*
X191841420Y-76371851D01*
X191697199Y-76621647D01*
X191697191Y-76621663D01*
X191586814Y-76888139D01*
X191586809Y-76888155D01*
X191518104Y-77144568D01*
X191512152Y-77166780D01*
X191512149Y-77166793D01*
X191474501Y-77452761D01*
X191474500Y-77452778D01*
X134770219Y-77452778D01*
X134709869Y-77392428D01*
X134544269Y-77272115D01*
X134544268Y-77272114D01*
X134544266Y-77272113D01*
X134484554Y-77241688D01*
X134361879Y-77179181D01*
X134167190Y-77115922D01*
X133992651Y-77088278D01*
X133965008Y-77083900D01*
X133760304Y-77083900D01*
X133735985Y-77087751D01*
X133558121Y-77115922D01*
X133363432Y-77179181D01*
X133181042Y-77272115D01*
X133015442Y-77392428D01*
X132870684Y-77537186D01*
X132750371Y-77702786D01*
X132657437Y-77885176D01*
X132594178Y-78079865D01*
X132562156Y-78282048D01*
X127543155Y-78282048D01*
X127543155Y-77784392D01*
X127532655Y-77681603D01*
X127477470Y-77515066D01*
X127385368Y-77365744D01*
X127261312Y-77241688D01*
X127111990Y-77149586D01*
X126945453Y-77094401D01*
X126945451Y-77094400D01*
X126842666Y-77083900D01*
X125642654Y-77083900D01*
X125642637Y-77083901D01*
X125539859Y-77094400D01*
X125539856Y-77094401D01*
X125373324Y-77149585D01*
X125373319Y-77149587D01*
X125223998Y-77241689D01*
X125099945Y-77365742D01*
X125007843Y-77515063D01*
X125007842Y-77515066D01*
X124952657Y-77681603D01*
X124952657Y-77681604D01*
X124952656Y-77681604D01*
X124942156Y-77784383D01*
X123155157Y-77784383D01*
X123119191Y-77650155D01*
X123119186Y-77650145D01*
X123119185Y-77650139D01*
X123008808Y-77383663D01*
X123008800Y-77383647D01*
X122864579Y-77133851D01*
X122864575Y-77133844D01*
X122688974Y-76904996D01*
X122688969Y-76904990D01*
X122485009Y-76701030D01*
X122485002Y-76701024D01*
X122256164Y-76525431D01*
X122256162Y-76525429D01*
X122256156Y-76525425D01*
X122256151Y-76525422D01*
X122256148Y-76525420D01*
X122006352Y-76381199D01*
X122006336Y-76381191D01*
X121739860Y-76270814D01*
X121739848Y-76270810D01*
X121739845Y-76270809D01*
X121461217Y-76196151D01*
X121461211Y-76196150D01*
X121461206Y-76196149D01*
X121175238Y-76158501D01*
X121175233Y-76158500D01*
X121175228Y-76158500D01*
X120886772Y-76158500D01*
X120886766Y-76158500D01*
X120886761Y-76158501D01*
X120600793Y-76196149D01*
X120600786Y-76196150D01*
X120600783Y-76196151D01*
X120388041Y-76253155D01*
X120322155Y-76270809D01*
X120322139Y-76270814D01*
X120055663Y-76381191D01*
X120055647Y-76381199D01*
X119805851Y-76525420D01*
X119805835Y-76525431D01*
X119576997Y-76701024D01*
X119576990Y-76701030D01*
X119373030Y-76904990D01*
X119373024Y-76904997D01*
X119197431Y-77133835D01*
X119197420Y-77133851D01*
X119053199Y-77383647D01*
X119053191Y-77383663D01*
X118942814Y-77650139D01*
X118942809Y-77650155D01*
X118879836Y-77885176D01*
X118868152Y-77928780D01*
X118868149Y-77928793D01*
X118830501Y-78214761D01*
X118830500Y-78214778D01*
X46926600Y-78214778D01*
X46926600Y-73060013D01*
X55469000Y-73060013D01*
X55469000Y-73410000D01*
X56453314Y-73410000D01*
X56448920Y-73414394D01*
X56396259Y-73505606D01*
X56369000Y-73607339D01*
X56369000Y-73712661D01*
X56396259Y-73814394D01*
X56448920Y-73905606D01*
X56453314Y-73910000D01*
X55469001Y-73910000D01*
X55469001Y-74259986D01*
X55479494Y-74362697D01*
X55534641Y-74529119D01*
X55534643Y-74529124D01*
X55626684Y-74678345D01*
X55750654Y-74802315D01*
X55899875Y-74894356D01*
X55899880Y-74894358D01*
X56066302Y-74949505D01*
X56066309Y-74949506D01*
X56169019Y-74959999D01*
X56518999Y-74959999D01*
X56519000Y-74959998D01*
X56519000Y-73975686D01*
X56523394Y-73980080D01*
X56614606Y-74032741D01*
X56716339Y-74060000D01*
X56821661Y-74060000D01*
X56923394Y-74032741D01*
X57014606Y-73980080D01*
X57019000Y-73975686D01*
X57019000Y-74959999D01*
X57368972Y-74959999D01*
X57368986Y-74959998D01*
X57471697Y-74949505D01*
X57638119Y-74894358D01*
X57638124Y-74894356D01*
X57787345Y-74802315D01*
X57911315Y-74678345D01*
X58003356Y-74529124D01*
X58003358Y-74529119D01*
X58058505Y-74362697D01*
X58058506Y-74362690D01*
X58068999Y-74259986D01*
X58069000Y-74259973D01*
X58069000Y-73910000D01*
X57084686Y-73910000D01*
X57089080Y-73905606D01*
X57141741Y-73814394D01*
X57169000Y-73712661D01*
X57169000Y-73607339D01*
X57155685Y-73557648D01*
X63088500Y-73557648D01*
X63088500Y-73762351D01*
X63120522Y-73964534D01*
X63183781Y-74159223D01*
X63276715Y-74341613D01*
X63397028Y-74507213D01*
X63541786Y-74651971D01*
X63696749Y-74764556D01*
X63707390Y-74772287D01*
X63823607Y-74831503D01*
X63889776Y-74865218D01*
X63889778Y-74865218D01*
X63889781Y-74865220D01*
X63979459Y-74894358D01*
X64084465Y-74928477D01*
X64185557Y-74944488D01*
X64286648Y-74960500D01*
X64286649Y-74960500D01*
X64491351Y-74960500D01*
X64491352Y-74960500D01*
X64693534Y-74928477D01*
X64888219Y-74865220D01*
X65070610Y-74772287D01*
X65163590Y-74704732D01*
X65236213Y-74651971D01*
X65236215Y-74651968D01*
X65236219Y-74651966D01*
X65380966Y-74507219D01*
X65380968Y-74507215D01*
X65380971Y-74507213D01*
X65433732Y-74434590D01*
X65501287Y-74341610D01*
X65594220Y-74159219D01*
X65657477Y-73964534D01*
X65689500Y-73762352D01*
X65689500Y-73642778D01*
X86699500Y-73642778D01*
X86699500Y-73931221D01*
X86699501Y-73931238D01*
X86737149Y-74217206D01*
X86737150Y-74217211D01*
X86737151Y-74217217D01*
X86811809Y-74495844D01*
X86811814Y-74495860D01*
X86922191Y-74762336D01*
X86922199Y-74762352D01*
X87066420Y-75012148D01*
X87066431Y-75012164D01*
X87242024Y-75241002D01*
X87242030Y-75241009D01*
X87445990Y-75444969D01*
X87445997Y-75444975D01*
X87529194Y-75508814D01*
X87674844Y-75620575D01*
X87674851Y-75620579D01*
X87924647Y-75764800D01*
X87924663Y-75764808D01*
X88191139Y-75875185D01*
X88191145Y-75875186D01*
X88191155Y-75875191D01*
X88469783Y-75949849D01*
X88755772Y-75987500D01*
X88755779Y-75987500D01*
X89044221Y-75987500D01*
X89044228Y-75987500D01*
X89330217Y-75949849D01*
X89608845Y-75875191D01*
X89608857Y-75875185D01*
X89608860Y-75875185D01*
X89875336Y-75764808D01*
X89875339Y-75764806D01*
X89875345Y-75764804D01*
X89877734Y-75763425D01*
X89923773Y-75736844D01*
X90125156Y-75620575D01*
X90354004Y-75444974D01*
X90557974Y-75241004D01*
X90733575Y-75012156D01*
X90877804Y-74762345D01*
X90944157Y-74602155D01*
X90988185Y-74495860D01*
X90988185Y-74495857D01*
X90988191Y-74495845D01*
X91062849Y-74217217D01*
X91100500Y-73931228D01*
X91100500Y-73642772D01*
X91062849Y-73356783D01*
X90988191Y-73078155D01*
X90988186Y-73078145D01*
X90988185Y-73078139D01*
X90877808Y-72811663D01*
X90877803Y-72811654D01*
X90871146Y-72800123D01*
X90733575Y-72561844D01*
X90651422Y-72454780D01*
X90606443Y-72396162D01*
X90557975Y-72332997D01*
X90557969Y-72332990D01*
X90354009Y-72129030D01*
X90354002Y-72129024D01*
X90125164Y-71953431D01*
X90125162Y-71953430D01*
X90125156Y-71953425D01*
X90088307Y-71932150D01*
X90088306Y-71932149D01*
X89907765Y-71827913D01*
X155422400Y-71827913D01*
X155422400Y-72177900D01*
X156406714Y-72177900D01*
X156402320Y-72182294D01*
X156349659Y-72273506D01*
X156322400Y-72375239D01*
X156322400Y-72480561D01*
X156349659Y-72582294D01*
X156402320Y-72673506D01*
X156406714Y-72677900D01*
X155422401Y-72677900D01*
X155422401Y-73027886D01*
X155432894Y-73130597D01*
X155488041Y-73297019D01*
X155488043Y-73297024D01*
X155580084Y-73446245D01*
X155704054Y-73570215D01*
X155853275Y-73662256D01*
X155853280Y-73662258D01*
X156019702Y-73717405D01*
X156019709Y-73717406D01*
X156122419Y-73727899D01*
X156472399Y-73727899D01*
X156472400Y-73727898D01*
X156472400Y-72743586D01*
X156476794Y-72747980D01*
X156568006Y-72800641D01*
X156669739Y-72827900D01*
X156775061Y-72827900D01*
X156876794Y-72800641D01*
X156968006Y-72747980D01*
X156972400Y-72743586D01*
X156972400Y-73727899D01*
X157322372Y-73727899D01*
X157322386Y-73727898D01*
X157425097Y-73717405D01*
X157591519Y-73662258D01*
X157591524Y-73662256D01*
X157740745Y-73570215D01*
X157864715Y-73446245D01*
X157956756Y-73297024D01*
X157956758Y-73297019D01*
X158011905Y-73130597D01*
X158011906Y-73130590D01*
X158022399Y-73027886D01*
X158022400Y-73027873D01*
X158022400Y-72677900D01*
X157038086Y-72677900D01*
X157042480Y-72673506D01*
X157095141Y-72582294D01*
X157122400Y-72480561D01*
X157122400Y-72375239D01*
X157109085Y-72325548D01*
X163041900Y-72325548D01*
X163041900Y-72530252D01*
X163046278Y-72557895D01*
X163073922Y-72732434D01*
X163137181Y-72927123D01*
X163230115Y-73109513D01*
X163350428Y-73275113D01*
X163495186Y-73419871D01*
X163613900Y-73506120D01*
X163660790Y-73540187D01*
X163760316Y-73590898D01*
X163843176Y-73633118D01*
X163843178Y-73633118D01*
X163843181Y-73633120D01*
X163932859Y-73662258D01*
X164037865Y-73696377D01*
X164138957Y-73712388D01*
X164240048Y-73728400D01*
X164240049Y-73728400D01*
X164444751Y-73728400D01*
X164444752Y-73728400D01*
X164646934Y-73696377D01*
X164841619Y-73633120D01*
X165024010Y-73540187D01*
X165116990Y-73472632D01*
X165189613Y-73419871D01*
X165189615Y-73419868D01*
X165189619Y-73419866D01*
X165334366Y-73275119D01*
X165334368Y-73275115D01*
X165334371Y-73275113D01*
X165410571Y-73170231D01*
X165454687Y-73109510D01*
X165547620Y-72927119D01*
X165610877Y-72732434D01*
X165642900Y-72530252D01*
X165642900Y-72325548D01*
X165631166Y-72251466D01*
X165610877Y-72123365D01*
X165558543Y-71962299D01*
X165547620Y-71928681D01*
X165547618Y-71928678D01*
X165547618Y-71928676D01*
X165458630Y-71754029D01*
X165458629Y-71754027D01*
X165454686Y-71746288D01*
X165421698Y-71700883D01*
X182811400Y-71700883D01*
X182811400Y-72900901D01*
X182811401Y-72900918D01*
X182821900Y-73003696D01*
X182821901Y-73003699D01*
X182869756Y-73148113D01*
X182877086Y-73170234D01*
X182969188Y-73319556D01*
X183093244Y-73443612D01*
X183242566Y-73535714D01*
X183409103Y-73590899D01*
X183511891Y-73601400D01*
X184711908Y-73601399D01*
X184814697Y-73590899D01*
X184981234Y-73535714D01*
X185130556Y-73443612D01*
X185254612Y-73319556D01*
X185346714Y-73170234D01*
X185401899Y-73003697D01*
X185412400Y-72900909D01*
X185412399Y-72198548D01*
X190431400Y-72198548D01*
X190431400Y-72403251D01*
X190463422Y-72605434D01*
X190526681Y-72800123D01*
X190578035Y-72900909D01*
X190606772Y-72957309D01*
X190619615Y-72982513D01*
X190739928Y-73148113D01*
X190884686Y-73292871D01*
X191039649Y-73405456D01*
X191050290Y-73413187D01*
X191166507Y-73472403D01*
X191232676Y-73506118D01*
X191232678Y-73506118D01*
X191232681Y-73506120D01*
X191323756Y-73535712D01*
X191427365Y-73569377D01*
X191528457Y-73585388D01*
X191629548Y-73601400D01*
X191629549Y-73601400D01*
X191834251Y-73601400D01*
X191834252Y-73601400D01*
X192036434Y-73569377D01*
X192231119Y-73506120D01*
X192413510Y-73413187D01*
X192542382Y-73319557D01*
X192579113Y-73292871D01*
X192579115Y-73292868D01*
X192579119Y-73292866D01*
X192723866Y-73148119D01*
X192723868Y-73148115D01*
X192723871Y-73148113D01*
X192787878Y-73060013D01*
X192844187Y-72982510D01*
X192937120Y-72800119D01*
X193000377Y-72605434D01*
X193032400Y-72403252D01*
X193032400Y-72198548D01*
X193018030Y-72107820D01*
X193000377Y-71996365D01*
X192945643Y-71827913D01*
X192937120Y-71801681D01*
X192937118Y-71801678D01*
X192937118Y-71801676D01*
X192885760Y-71700881D01*
X192844187Y-71619290D01*
X192844186Y-71619288D01*
X192723871Y-71453686D01*
X192579113Y-71308928D01*
X192413513Y-71188615D01*
X192413512Y-71188614D01*
X192413510Y-71188613D01*
X192351757Y-71157148D01*
X192231123Y-71095681D01*
X192036434Y-71032422D01*
X191861895Y-71004778D01*
X191834252Y-71000400D01*
X191629548Y-71000400D01*
X191605229Y-71004251D01*
X191427365Y-71032422D01*
X191232676Y-71095681D01*
X191050286Y-71188615D01*
X190884686Y-71308928D01*
X190739928Y-71453686D01*
X190619615Y-71619286D01*
X190526681Y-71801676D01*
X190463422Y-71996365D01*
X190431400Y-72198548D01*
X185412399Y-72198548D01*
X185412399Y-71700892D01*
X185401899Y-71598103D01*
X185346714Y-71431566D01*
X185254612Y-71282244D01*
X185130556Y-71158188D01*
X184981234Y-71066086D01*
X184814697Y-71010901D01*
X184814695Y-71010900D01*
X184711910Y-71000400D01*
X183511898Y-71000400D01*
X183511881Y-71000401D01*
X183409103Y-71010900D01*
X183409100Y-71010901D01*
X183242568Y-71066085D01*
X183242563Y-71066087D01*
X183093242Y-71158189D01*
X182969189Y-71282242D01*
X182877087Y-71431563D01*
X182877085Y-71431568D01*
X182858103Y-71488852D01*
X182821901Y-71598103D01*
X182821901Y-71598104D01*
X182821900Y-71598104D01*
X182811400Y-71700883D01*
X165421698Y-71700883D01*
X165334371Y-71580686D01*
X165189613Y-71435928D01*
X165024013Y-71315615D01*
X165024012Y-71315614D01*
X165024010Y-71315613D01*
X164958516Y-71282242D01*
X164841623Y-71222681D01*
X164646934Y-71159422D01*
X164472395Y-71131778D01*
X164444752Y-71127400D01*
X164240048Y-71127400D01*
X164215729Y-71131251D01*
X164037865Y-71159422D01*
X163843176Y-71222681D01*
X163660786Y-71315615D01*
X163495186Y-71435928D01*
X163350428Y-71580686D01*
X163230115Y-71746286D01*
X163137181Y-71928676D01*
X163073922Y-72123365D01*
X163049406Y-72278156D01*
X163041900Y-72325548D01*
X157109085Y-72325548D01*
X157095141Y-72273506D01*
X157042480Y-72182294D01*
X157038086Y-72177900D01*
X158022399Y-72177900D01*
X158022399Y-71827928D01*
X158022398Y-71827913D01*
X158011905Y-71725202D01*
X157956758Y-71558780D01*
X157956756Y-71558775D01*
X157864715Y-71409554D01*
X157740745Y-71285584D01*
X157591524Y-71193543D01*
X157591519Y-71193541D01*
X157425097Y-71138394D01*
X157425090Y-71138393D01*
X157322386Y-71127900D01*
X156972400Y-71127900D01*
X156972400Y-72112214D01*
X156968006Y-72107820D01*
X156876794Y-72055159D01*
X156775061Y-72027900D01*
X156669739Y-72027900D01*
X156568006Y-72055159D01*
X156476794Y-72107820D01*
X156472400Y-72112214D01*
X156472400Y-71127900D01*
X156122428Y-71127900D01*
X156122412Y-71127901D01*
X156019702Y-71138394D01*
X155853280Y-71193541D01*
X155853275Y-71193543D01*
X155704054Y-71285584D01*
X155580084Y-71409554D01*
X155488043Y-71558775D01*
X155488041Y-71558780D01*
X155432894Y-71725202D01*
X155432893Y-71725209D01*
X155422400Y-71827913D01*
X89907765Y-71827913D01*
X89875352Y-71809199D01*
X89875336Y-71809191D01*
X89608860Y-71698814D01*
X89608848Y-71698810D01*
X89608845Y-71698809D01*
X89330217Y-71624151D01*
X89330211Y-71624150D01*
X89330206Y-71624149D01*
X89044238Y-71586501D01*
X89044233Y-71586500D01*
X89044228Y-71586500D01*
X88755772Y-71586500D01*
X88755766Y-71586500D01*
X88755761Y-71586501D01*
X88469793Y-71624149D01*
X88469786Y-71624150D01*
X88469783Y-71624151D01*
X88300538Y-71669500D01*
X88191155Y-71698809D01*
X88191139Y-71698814D01*
X87924663Y-71809191D01*
X87924647Y-71809199D01*
X87674851Y-71953420D01*
X87674835Y-71953431D01*
X87445997Y-72129024D01*
X87445990Y-72129030D01*
X87242030Y-72332990D01*
X87242024Y-72332997D01*
X87066431Y-72561835D01*
X87066420Y-72561851D01*
X86922199Y-72811647D01*
X86922191Y-72811663D01*
X86811814Y-73078139D01*
X86811809Y-73078155D01*
X86741670Y-73339920D01*
X86737152Y-73356780D01*
X86737149Y-73356793D01*
X86699501Y-73642761D01*
X86699500Y-73642778D01*
X65689500Y-73642778D01*
X65689500Y-73557648D01*
X65667677Y-73419866D01*
X65657477Y-73355465D01*
X65594218Y-73160776D01*
X65552112Y-73078139D01*
X65501287Y-72978390D01*
X65445001Y-72900918D01*
X65380971Y-72812786D01*
X65236213Y-72668028D01*
X65070613Y-72547715D01*
X65070612Y-72547714D01*
X65070610Y-72547713D01*
X65011675Y-72517684D01*
X64888223Y-72454781D01*
X64693534Y-72391522D01*
X64518995Y-72363878D01*
X64491352Y-72359500D01*
X64286648Y-72359500D01*
X64262329Y-72363351D01*
X64084465Y-72391522D01*
X63889776Y-72454781D01*
X63707386Y-72547715D01*
X63541786Y-72668028D01*
X63397028Y-72812786D01*
X63276715Y-72978386D01*
X63183781Y-73160776D01*
X63120522Y-73355465D01*
X63088500Y-73557648D01*
X57155685Y-73557648D01*
X57141741Y-73505606D01*
X57089080Y-73414394D01*
X57084686Y-73410000D01*
X58068999Y-73410000D01*
X58068999Y-73060028D01*
X58068998Y-73060013D01*
X58058505Y-72957302D01*
X58003358Y-72790880D01*
X58003356Y-72790875D01*
X57911315Y-72641654D01*
X57787345Y-72517684D01*
X57638124Y-72425643D01*
X57638119Y-72425641D01*
X57471697Y-72370494D01*
X57471690Y-72370493D01*
X57368986Y-72360000D01*
X57019000Y-72360000D01*
X57019000Y-73344314D01*
X57014606Y-73339920D01*
X56923394Y-73287259D01*
X56821661Y-73260000D01*
X56716339Y-73260000D01*
X56614606Y-73287259D01*
X56523394Y-73339920D01*
X56519000Y-73344314D01*
X56519000Y-72360000D01*
X56169028Y-72360000D01*
X56169012Y-72360001D01*
X56066302Y-72370494D01*
X55899880Y-72425641D01*
X55899875Y-72425643D01*
X55750654Y-72517684D01*
X55626684Y-72641654D01*
X55534643Y-72790875D01*
X55534641Y-72790880D01*
X55479494Y-72957302D01*
X55479493Y-72957309D01*
X55469000Y-73060013D01*
X46926600Y-73060013D01*
X46926600Y-67292778D01*
X64220500Y-67292778D01*
X64220500Y-67581221D01*
X64220501Y-67581238D01*
X64258149Y-67867206D01*
X64258150Y-67867211D01*
X64258151Y-67867217D01*
X64332529Y-68144800D01*
X64332809Y-68145844D01*
X64332814Y-68145860D01*
X64443191Y-68412336D01*
X64443199Y-68412352D01*
X64587420Y-68662148D01*
X64587431Y-68662164D01*
X64763024Y-68891002D01*
X64763030Y-68891009D01*
X64966990Y-69094969D01*
X64966997Y-69094975D01*
X65090662Y-69189866D01*
X65195844Y-69270575D01*
X65195851Y-69270579D01*
X65445647Y-69414800D01*
X65445663Y-69414808D01*
X65712139Y-69525185D01*
X65712145Y-69525186D01*
X65712155Y-69525191D01*
X65990783Y-69599849D01*
X66276772Y-69637500D01*
X66276779Y-69637500D01*
X66565221Y-69637500D01*
X66565228Y-69637500D01*
X66851217Y-69599849D01*
X67129845Y-69525191D01*
X67129857Y-69525185D01*
X67129860Y-69525185D01*
X67396336Y-69414808D01*
X67396339Y-69414806D01*
X67396345Y-69414804D01*
X67646156Y-69270575D01*
X67875004Y-69094974D01*
X68078974Y-68891004D01*
X68254575Y-68662156D01*
X68398804Y-68412345D01*
X68411327Y-68382113D01*
X68509185Y-68145860D01*
X68509185Y-68145857D01*
X68509191Y-68145845D01*
X68583849Y-67867217D01*
X68621500Y-67581228D01*
X68621500Y-67292778D01*
X86699500Y-67292778D01*
X86699500Y-67581221D01*
X86699501Y-67581238D01*
X86737149Y-67867206D01*
X86737150Y-67867211D01*
X86737151Y-67867217D01*
X86811529Y-68144800D01*
X86811809Y-68145844D01*
X86811814Y-68145860D01*
X86922191Y-68412336D01*
X86922199Y-68412352D01*
X87066420Y-68662148D01*
X87066431Y-68662164D01*
X87242024Y-68891002D01*
X87242030Y-68891009D01*
X87445990Y-69094969D01*
X87445997Y-69094975D01*
X87569662Y-69189866D01*
X87674844Y-69270575D01*
X87674851Y-69270579D01*
X87924647Y-69414800D01*
X87924663Y-69414808D01*
X88191139Y-69525185D01*
X88191145Y-69525186D01*
X88191155Y-69525191D01*
X88469783Y-69599849D01*
X88755772Y-69637500D01*
X88755779Y-69637500D01*
X89044221Y-69637500D01*
X89044228Y-69637500D01*
X89330217Y-69599849D01*
X89608845Y-69525191D01*
X89608858Y-69525185D01*
X89608860Y-69525185D01*
X89875336Y-69414808D01*
X89875339Y-69414806D01*
X89875345Y-69414804D01*
X90004899Y-69340006D01*
X90109197Y-69279789D01*
X90109976Y-69279338D01*
X90125156Y-69270575D01*
X90354004Y-69094974D01*
X90554565Y-68894413D01*
X104368656Y-68894413D01*
X104368656Y-69244400D01*
X105352970Y-69244400D01*
X105348576Y-69248794D01*
X105295915Y-69340006D01*
X105268656Y-69441739D01*
X105268656Y-69547061D01*
X105295915Y-69648794D01*
X105348576Y-69740006D01*
X105352970Y-69744400D01*
X104368657Y-69744400D01*
X104368657Y-70094386D01*
X104379150Y-70197097D01*
X104434297Y-70363519D01*
X104434299Y-70363524D01*
X104526340Y-70512745D01*
X104650310Y-70636715D01*
X104799531Y-70728756D01*
X104799536Y-70728758D01*
X104965958Y-70783905D01*
X104965965Y-70783906D01*
X105068675Y-70794399D01*
X105418655Y-70794399D01*
X105418656Y-70794398D01*
X105418656Y-69810086D01*
X105423050Y-69814480D01*
X105514262Y-69867141D01*
X105615995Y-69894400D01*
X105721317Y-69894400D01*
X105823050Y-69867141D01*
X105914262Y-69814480D01*
X105918656Y-69810086D01*
X105918656Y-70794399D01*
X106268628Y-70794399D01*
X106268642Y-70794398D01*
X106371353Y-70783905D01*
X106537775Y-70728758D01*
X106537780Y-70728756D01*
X106687001Y-70636715D01*
X106810971Y-70512745D01*
X106903012Y-70363524D01*
X106903014Y-70363519D01*
X106958161Y-70197097D01*
X106958162Y-70197090D01*
X106968655Y-70094386D01*
X106968656Y-70094373D01*
X106968656Y-69744400D01*
X105984342Y-69744400D01*
X105988736Y-69740006D01*
X106041397Y-69648794D01*
X106068656Y-69547061D01*
X106068656Y-69441739D01*
X106055341Y-69392048D01*
X111988156Y-69392048D01*
X111988156Y-69596752D01*
X111990766Y-69613228D01*
X112020178Y-69798934D01*
X112083437Y-69993623D01*
X112176371Y-70176013D01*
X112296684Y-70341613D01*
X112441442Y-70486371D01*
X112567410Y-70577890D01*
X112607046Y-70606687D01*
X112710693Y-70659498D01*
X112789432Y-70699618D01*
X112789434Y-70699618D01*
X112789437Y-70699620D01*
X112879115Y-70728758D01*
X112984121Y-70762877D01*
X113085213Y-70778888D01*
X113186304Y-70794900D01*
X113186305Y-70794900D01*
X113391007Y-70794900D01*
X113391008Y-70794900D01*
X113593190Y-70762877D01*
X113787875Y-70699620D01*
X113970266Y-70606687D01*
X114093188Y-70517380D01*
X114135869Y-70486371D01*
X114135871Y-70486368D01*
X114135875Y-70486366D01*
X114280622Y-70341619D01*
X114280624Y-70341615D01*
X114280627Y-70341613D01*
X114351412Y-70244184D01*
X114400943Y-70176010D01*
X114493876Y-69993619D01*
X114557133Y-69798934D01*
X114589156Y-69596752D01*
X114589156Y-69392048D01*
X114578501Y-69324778D01*
X115147500Y-69324778D01*
X115147500Y-69613221D01*
X115147501Y-69613238D01*
X115185149Y-69899206D01*
X115185150Y-69899211D01*
X115185151Y-69899217D01*
X115259318Y-70176013D01*
X115259809Y-70177844D01*
X115259814Y-70177860D01*
X115370191Y-70444336D01*
X115370199Y-70444352D01*
X115514420Y-70694148D01*
X115514431Y-70694164D01*
X115690024Y-70923002D01*
X115690030Y-70923009D01*
X115893990Y-71126969D01*
X115893997Y-71126975D01*
X116018723Y-71222680D01*
X116122844Y-71302575D01*
X116122851Y-71302579D01*
X116372647Y-71446800D01*
X116372663Y-71446808D01*
X116639139Y-71557185D01*
X116639145Y-71557186D01*
X116639155Y-71557191D01*
X116917783Y-71631849D01*
X117203772Y-71669500D01*
X117203779Y-71669500D01*
X117492221Y-71669500D01*
X117492228Y-71669500D01*
X117778217Y-71631849D01*
X118056845Y-71557191D01*
X118056857Y-71557185D01*
X118056860Y-71557185D01*
X118323336Y-71446808D01*
X118323339Y-71446806D01*
X118323345Y-71446804D01*
X118573156Y-71302575D01*
X118802004Y-71126974D01*
X119005974Y-70923004D01*
X119110707Y-70786513D01*
X202450500Y-70786513D01*
X202450500Y-71136500D01*
X203434814Y-71136500D01*
X203430420Y-71140894D01*
X203377759Y-71232106D01*
X203350500Y-71333839D01*
X203350500Y-71439161D01*
X203377759Y-71540894D01*
X203430420Y-71632106D01*
X203434814Y-71636500D01*
X202450501Y-71636500D01*
X202450501Y-71986486D01*
X202460994Y-72089197D01*
X202516141Y-72255619D01*
X202516143Y-72255624D01*
X202608184Y-72404845D01*
X202732154Y-72528815D01*
X202881375Y-72620856D01*
X202881380Y-72620858D01*
X203047802Y-72676005D01*
X203047809Y-72676006D01*
X203150519Y-72686499D01*
X203500499Y-72686499D01*
X203500500Y-72686498D01*
X203500500Y-71702186D01*
X203504894Y-71706580D01*
X203596106Y-71759241D01*
X203697839Y-71786500D01*
X203803161Y-71786500D01*
X203904894Y-71759241D01*
X203996106Y-71706580D01*
X204000500Y-71702186D01*
X204000500Y-72686499D01*
X204350472Y-72686499D01*
X204350486Y-72686498D01*
X204453197Y-72676005D01*
X204619619Y-72620858D01*
X204619624Y-72620856D01*
X204768845Y-72528815D01*
X204892815Y-72404845D01*
X204984856Y-72255624D01*
X204984858Y-72255619D01*
X205040005Y-72089197D01*
X205040006Y-72089190D01*
X205050499Y-71986486D01*
X205050500Y-71986473D01*
X205050500Y-71636500D01*
X204066186Y-71636500D01*
X204070580Y-71632106D01*
X204123241Y-71540894D01*
X204150500Y-71439161D01*
X204150500Y-71333839D01*
X204137185Y-71284148D01*
X210070000Y-71284148D01*
X210070000Y-71488851D01*
X210102022Y-71691034D01*
X210165281Y-71885723D01*
X210258215Y-72068113D01*
X210378528Y-72233713D01*
X210523286Y-72378471D01*
X210642000Y-72464720D01*
X210688890Y-72498787D01*
X210788416Y-72549498D01*
X210871276Y-72591718D01*
X210871278Y-72591718D01*
X210871281Y-72591720D01*
X210960959Y-72620858D01*
X211065965Y-72654977D01*
X211148365Y-72668028D01*
X211268148Y-72687000D01*
X211268149Y-72687000D01*
X211472851Y-72687000D01*
X211472852Y-72687000D01*
X211675034Y-72654977D01*
X211869719Y-72591720D01*
X212052110Y-72498787D01*
X212152788Y-72425641D01*
X212217713Y-72378471D01*
X212217715Y-72378468D01*
X212217719Y-72378466D01*
X212362466Y-72233719D01*
X212362468Y-72233715D01*
X212362471Y-72233713D01*
X212438529Y-72129026D01*
X212482787Y-72068110D01*
X212575720Y-71885719D01*
X212638977Y-71691034D01*
X212671000Y-71488852D01*
X212671000Y-71284148D01*
X212655869Y-71188615D01*
X212638977Y-71081965D01*
X212597712Y-70954965D01*
X212575720Y-70887281D01*
X212575718Y-70887278D01*
X212575718Y-70887276D01*
X212486730Y-70712629D01*
X212486729Y-70712627D01*
X212482786Y-70704888D01*
X212449798Y-70659483D01*
X228739000Y-70659483D01*
X228739000Y-71859501D01*
X228739001Y-71859518D01*
X228749500Y-71962296D01*
X228749501Y-71962299D01*
X228797356Y-72106713D01*
X228804686Y-72128834D01*
X228896788Y-72278156D01*
X229020844Y-72402212D01*
X229170166Y-72494314D01*
X229336703Y-72549499D01*
X229439491Y-72560000D01*
X230639508Y-72559999D01*
X230742297Y-72549499D01*
X230908834Y-72494314D01*
X231058156Y-72402212D01*
X231182212Y-72278156D01*
X231274314Y-72128834D01*
X231329499Y-71962297D01*
X231340000Y-71859509D01*
X231339999Y-71157148D01*
X236359000Y-71157148D01*
X236359000Y-71361851D01*
X236391022Y-71564034D01*
X236454281Y-71758723D01*
X236505635Y-71859509D01*
X236542648Y-71932151D01*
X236547215Y-71941113D01*
X236667528Y-72106713D01*
X236812286Y-72251471D01*
X236960978Y-72359500D01*
X236977890Y-72371787D01*
X237083584Y-72425641D01*
X237160276Y-72464718D01*
X237160278Y-72464718D01*
X237160281Y-72464720D01*
X237209035Y-72480561D01*
X237354965Y-72527977D01*
X237456057Y-72543988D01*
X237557148Y-72560000D01*
X237557149Y-72560000D01*
X237761851Y-72560000D01*
X237761852Y-72560000D01*
X237964034Y-72527977D01*
X238158719Y-72464720D01*
X238341110Y-72371787D01*
X238469982Y-72278157D01*
X238506713Y-72251471D01*
X238506715Y-72251468D01*
X238506719Y-72251466D01*
X238651466Y-72106719D01*
X238651468Y-72106715D01*
X238651471Y-72106713D01*
X238731642Y-71996365D01*
X238771787Y-71941110D01*
X238864720Y-71758719D01*
X238927977Y-71564034D01*
X238960000Y-71361852D01*
X238960000Y-71157148D01*
X238955368Y-71127901D01*
X238927977Y-70954965D01*
X238875968Y-70794900D01*
X238864720Y-70760281D01*
X238864718Y-70760278D01*
X238864718Y-70760276D01*
X238831003Y-70694107D01*
X238771787Y-70577890D01*
X238743736Y-70539281D01*
X238651471Y-70412286D01*
X238506713Y-70267528D01*
X238341113Y-70147215D01*
X238341112Y-70147214D01*
X238341110Y-70147213D01*
X238242550Y-70096994D01*
X238158723Y-70054281D01*
X237964034Y-69991022D01*
X237789495Y-69963378D01*
X237761852Y-69959000D01*
X237557148Y-69959000D01*
X237532829Y-69962851D01*
X237354965Y-69991022D01*
X237160276Y-70054281D01*
X236977886Y-70147215D01*
X236812286Y-70267528D01*
X236667528Y-70412286D01*
X236547215Y-70577886D01*
X236454281Y-70760276D01*
X236391022Y-70954965D01*
X236359000Y-71157148D01*
X231339999Y-71157148D01*
X231339999Y-70659492D01*
X231329499Y-70556703D01*
X231274314Y-70390166D01*
X231182212Y-70240844D01*
X231058156Y-70116788D01*
X230908834Y-70024686D01*
X230742297Y-69969501D01*
X230742295Y-69969500D01*
X230639510Y-69959000D01*
X229439498Y-69959000D01*
X229439481Y-69959001D01*
X229336703Y-69969500D01*
X229336700Y-69969501D01*
X229170168Y-70024685D01*
X229170163Y-70024687D01*
X229020842Y-70116789D01*
X228896789Y-70240842D01*
X228804687Y-70390163D01*
X228804685Y-70390168D01*
X228776849Y-70474170D01*
X228749501Y-70556703D01*
X228749501Y-70556704D01*
X228749500Y-70556704D01*
X228739000Y-70659483D01*
X212449798Y-70659483D01*
X212362471Y-70539286D01*
X212217713Y-70394528D01*
X212052113Y-70274215D01*
X212052112Y-70274214D01*
X212052110Y-70274213D01*
X211986616Y-70240842D01*
X211869723Y-70181281D01*
X211675034Y-70118022D01*
X211500495Y-70090378D01*
X211472852Y-70086000D01*
X211268148Y-70086000D01*
X211243829Y-70089851D01*
X211065965Y-70118022D01*
X210871276Y-70181281D01*
X210688886Y-70274215D01*
X210523286Y-70394528D01*
X210378528Y-70539286D01*
X210258215Y-70704886D01*
X210165281Y-70887276D01*
X210102022Y-71081965D01*
X210070000Y-71284148D01*
X204137185Y-71284148D01*
X204123241Y-71232106D01*
X204070580Y-71140894D01*
X204066186Y-71136500D01*
X205050499Y-71136500D01*
X205050499Y-70786528D01*
X205050498Y-70786513D01*
X205040005Y-70683802D01*
X204984858Y-70517380D01*
X204984856Y-70517375D01*
X204892815Y-70368154D01*
X204768845Y-70244184D01*
X204619624Y-70152143D01*
X204619619Y-70152141D01*
X204453197Y-70096994D01*
X204453190Y-70096993D01*
X204350486Y-70086500D01*
X204000500Y-70086500D01*
X204000500Y-71070814D01*
X203996106Y-71066420D01*
X203904894Y-71013759D01*
X203803161Y-70986500D01*
X203697839Y-70986500D01*
X203596106Y-71013759D01*
X203504894Y-71066420D01*
X203500500Y-71070814D01*
X203500500Y-70086500D01*
X203150528Y-70086500D01*
X203150512Y-70086501D01*
X203047802Y-70096994D01*
X202881380Y-70152141D01*
X202881375Y-70152143D01*
X202732154Y-70244184D01*
X202608184Y-70368154D01*
X202516143Y-70517375D01*
X202516141Y-70517380D01*
X202460994Y-70683802D01*
X202460993Y-70683809D01*
X202450500Y-70786513D01*
X119110707Y-70786513D01*
X119181575Y-70694156D01*
X119325804Y-70444345D01*
X119348246Y-70390166D01*
X119436185Y-70177860D01*
X119436185Y-70177857D01*
X119436191Y-70177845D01*
X119510849Y-69899217D01*
X119548500Y-69613228D01*
X119548500Y-69324772D01*
X119510849Y-69038783D01*
X119436191Y-68760155D01*
X119436186Y-68760145D01*
X119436185Y-68760139D01*
X119325808Y-68493663D01*
X119325800Y-68493647D01*
X119181579Y-68243851D01*
X119181575Y-68243844D01*
X119005974Y-68014996D01*
X119005969Y-68014990D01*
X118802009Y-67811030D01*
X118802002Y-67811024D01*
X118573164Y-67635431D01*
X118573162Y-67635429D01*
X118573156Y-67635425D01*
X118573151Y-67635422D01*
X118573148Y-67635420D01*
X118323352Y-67491199D01*
X118323336Y-67491191D01*
X118056860Y-67380814D01*
X118056848Y-67380810D01*
X118056845Y-67380809D01*
X117778217Y-67306151D01*
X117778211Y-67306150D01*
X117778206Y-67306149D01*
X117492238Y-67268501D01*
X117492233Y-67268500D01*
X117492228Y-67268500D01*
X117203772Y-67268500D01*
X117203766Y-67268500D01*
X117203761Y-67268501D01*
X116917793Y-67306149D01*
X116917786Y-67306150D01*
X116917783Y-67306151D01*
X116639155Y-67380809D01*
X116639139Y-67380814D01*
X116372663Y-67491191D01*
X116372647Y-67491199D01*
X116122851Y-67635420D01*
X116122835Y-67635431D01*
X115893997Y-67811024D01*
X115893990Y-67811030D01*
X115690030Y-68014990D01*
X115690024Y-68014997D01*
X115514431Y-68243835D01*
X115514420Y-68243851D01*
X115370199Y-68493647D01*
X115370191Y-68493663D01*
X115259814Y-68760139D01*
X115259809Y-68760155D01*
X115196836Y-68995176D01*
X115185152Y-69038780D01*
X115185149Y-69038793D01*
X115147501Y-69324761D01*
X115147500Y-69324778D01*
X114578501Y-69324778D01*
X114557133Y-69189865D01*
X114493874Y-68995176D01*
X114460159Y-68929007D01*
X114400943Y-68812790D01*
X114362690Y-68760139D01*
X114280627Y-68647186D01*
X114135869Y-68502428D01*
X113970269Y-68382115D01*
X113970268Y-68382114D01*
X113970266Y-68382113D01*
X113911331Y-68352084D01*
X113787879Y-68289181D01*
X113593190Y-68225922D01*
X113418651Y-68198278D01*
X113391008Y-68193900D01*
X113186304Y-68193900D01*
X113161985Y-68197751D01*
X112984121Y-68225922D01*
X112789432Y-68289181D01*
X112607042Y-68382115D01*
X112441442Y-68502428D01*
X112296684Y-68647186D01*
X112176371Y-68812786D01*
X112083437Y-68995176D01*
X112020178Y-69189865D01*
X111996382Y-69340111D01*
X111988156Y-69392048D01*
X106055341Y-69392048D01*
X106041397Y-69340006D01*
X105988736Y-69248794D01*
X105984342Y-69244400D01*
X106968655Y-69244400D01*
X106968655Y-68894428D01*
X106968654Y-68894413D01*
X106958161Y-68791702D01*
X106903014Y-68625280D01*
X106903012Y-68625275D01*
X106810971Y-68476054D01*
X106687001Y-68352084D01*
X106537780Y-68260043D01*
X106537775Y-68260041D01*
X106371353Y-68204894D01*
X106371346Y-68204893D01*
X106268642Y-68194400D01*
X105918656Y-68194400D01*
X105918656Y-69178714D01*
X105914262Y-69174320D01*
X105823050Y-69121659D01*
X105721317Y-69094400D01*
X105615995Y-69094400D01*
X105514262Y-69121659D01*
X105423050Y-69174320D01*
X105418656Y-69178714D01*
X105418656Y-68194400D01*
X105068684Y-68194400D01*
X105068668Y-68194401D01*
X104965958Y-68204894D01*
X104799536Y-68260041D01*
X104799531Y-68260043D01*
X104650310Y-68352084D01*
X104526340Y-68476054D01*
X104434299Y-68625275D01*
X104434297Y-68625280D01*
X104379150Y-68791702D01*
X104379149Y-68791709D01*
X104368656Y-68894413D01*
X90554565Y-68894413D01*
X90557974Y-68891004D01*
X90733575Y-68662156D01*
X90877804Y-68412345D01*
X90890327Y-68382113D01*
X90988185Y-68145860D01*
X90988185Y-68145857D01*
X90988191Y-68145845D01*
X91062849Y-67867217D01*
X91100500Y-67581228D01*
X91100500Y-67292772D01*
X91062849Y-67006783D01*
X90988191Y-66728155D01*
X90988186Y-66728145D01*
X90988185Y-66728139D01*
X90877808Y-66461663D01*
X90877800Y-66461647D01*
X90733579Y-66211851D01*
X90733575Y-66211844D01*
X90588500Y-66022778D01*
X164677500Y-66022778D01*
X164677500Y-66311221D01*
X164677501Y-66311238D01*
X164715149Y-66597206D01*
X164715150Y-66597211D01*
X164715151Y-66597217D01*
X164750236Y-66728155D01*
X164789809Y-66875844D01*
X164789814Y-66875860D01*
X164900191Y-67142336D01*
X164900199Y-67142352D01*
X165044420Y-67392148D01*
X165044431Y-67392164D01*
X165220024Y-67621002D01*
X165220030Y-67621009D01*
X165423990Y-67824969D01*
X165423996Y-67824974D01*
X165652844Y-68000575D01*
X165652851Y-68000579D01*
X165902647Y-68144800D01*
X165902663Y-68144808D01*
X166169139Y-68255185D01*
X166169145Y-68255186D01*
X166169155Y-68255191D01*
X166447783Y-68329849D01*
X166733772Y-68367500D01*
X166733779Y-68367500D01*
X167022221Y-68367500D01*
X167022228Y-68367500D01*
X167308217Y-68329849D01*
X167586845Y-68255191D01*
X167586857Y-68255185D01*
X167586860Y-68255185D01*
X167853336Y-68144808D01*
X167853339Y-68144806D01*
X167853345Y-68144804D01*
X168103156Y-68000575D01*
X168332004Y-67824974D01*
X168535974Y-67621004D01*
X168711575Y-67392156D01*
X168855804Y-67142345D01*
X168911957Y-67006780D01*
X168966185Y-66875860D01*
X168966185Y-66875857D01*
X168966191Y-66875845D01*
X169040849Y-66597217D01*
X169078500Y-66311228D01*
X169078500Y-66022772D01*
X169040849Y-65736783D01*
X168966191Y-65458155D01*
X168966186Y-65458145D01*
X168966185Y-65458139D01*
X168855808Y-65191663D01*
X168855800Y-65191647D01*
X168711579Y-64941851D01*
X168711575Y-64941844D01*
X168535974Y-64712996D01*
X168535969Y-64712990D01*
X168332009Y-64509030D01*
X168332002Y-64509024D01*
X168103164Y-64333431D01*
X168103162Y-64333429D01*
X168103156Y-64333425D01*
X168103151Y-64333422D01*
X168103148Y-64333420D01*
X167853352Y-64189199D01*
X167853336Y-64189191D01*
X167586860Y-64078814D01*
X167586848Y-64078810D01*
X167586845Y-64078809D01*
X167308217Y-64004151D01*
X167308211Y-64004150D01*
X167308206Y-64004149D01*
X167022238Y-63966501D01*
X167022233Y-63966500D01*
X167022228Y-63966500D01*
X166733772Y-63966500D01*
X166733766Y-63966500D01*
X166733761Y-63966501D01*
X166447793Y-64004149D01*
X166447786Y-64004150D01*
X166447783Y-64004151D01*
X166169155Y-64078809D01*
X166169139Y-64078814D01*
X165902663Y-64189191D01*
X165902647Y-64189199D01*
X165652851Y-64333420D01*
X165652835Y-64333431D01*
X165423997Y-64509024D01*
X165423990Y-64509030D01*
X165220030Y-64712990D01*
X165220024Y-64712997D01*
X165044431Y-64941835D01*
X165044420Y-64941851D01*
X164900199Y-65191647D01*
X164900191Y-65191663D01*
X164789814Y-65458139D01*
X164789809Y-65458155D01*
X164750883Y-65603431D01*
X164715152Y-65736780D01*
X164715149Y-65736793D01*
X164677501Y-66022761D01*
X164677500Y-66022778D01*
X90588500Y-66022778D01*
X90557974Y-65982996D01*
X90557969Y-65982990D01*
X90354009Y-65779030D01*
X90354002Y-65779024D01*
X90125164Y-65603431D01*
X90125162Y-65603429D01*
X90125156Y-65603425D01*
X90125151Y-65603422D01*
X90125148Y-65603420D01*
X89875352Y-65459199D01*
X89875336Y-65459191D01*
X89608860Y-65348814D01*
X89608848Y-65348810D01*
X89608845Y-65348809D01*
X89330217Y-65274151D01*
X89330211Y-65274150D01*
X89330206Y-65274149D01*
X89044238Y-65236501D01*
X89044233Y-65236500D01*
X89044228Y-65236500D01*
X88755772Y-65236500D01*
X88755766Y-65236500D01*
X88755761Y-65236501D01*
X88469793Y-65274149D01*
X88469786Y-65274150D01*
X88469783Y-65274151D01*
X88191155Y-65348809D01*
X88191139Y-65348814D01*
X87924663Y-65459191D01*
X87924647Y-65459199D01*
X87674851Y-65603420D01*
X87674835Y-65603431D01*
X87445997Y-65779024D01*
X87445990Y-65779030D01*
X87242030Y-65982990D01*
X87242024Y-65982997D01*
X87066431Y-66211835D01*
X87066420Y-66211851D01*
X86922199Y-66461647D01*
X86922191Y-66461663D01*
X86811814Y-66728139D01*
X86811809Y-66728155D01*
X86737152Y-67006780D01*
X86737149Y-67006793D01*
X86699501Y-67292761D01*
X86699500Y-67292778D01*
X68621500Y-67292778D01*
X68621500Y-67292772D01*
X68583849Y-67006783D01*
X68509191Y-66728155D01*
X68509186Y-66728145D01*
X68509185Y-66728139D01*
X68398808Y-66461663D01*
X68398800Y-66461647D01*
X68254579Y-66211851D01*
X68254575Y-66211844D01*
X68078974Y-65982996D01*
X68078969Y-65982990D01*
X67875009Y-65779030D01*
X67875002Y-65779024D01*
X67646164Y-65603431D01*
X67646162Y-65603429D01*
X67646156Y-65603425D01*
X67646151Y-65603422D01*
X67646148Y-65603420D01*
X67396352Y-65459199D01*
X67396336Y-65459191D01*
X67129860Y-65348814D01*
X67129848Y-65348810D01*
X67129845Y-65348809D01*
X66851217Y-65274151D01*
X66851211Y-65274150D01*
X66851206Y-65274149D01*
X66565238Y-65236501D01*
X66565233Y-65236500D01*
X66565228Y-65236500D01*
X66276772Y-65236500D01*
X66276766Y-65236500D01*
X66276761Y-65236501D01*
X65990793Y-65274149D01*
X65990786Y-65274150D01*
X65990783Y-65274151D01*
X65712155Y-65348809D01*
X65712139Y-65348814D01*
X65445663Y-65459191D01*
X65445647Y-65459199D01*
X65195851Y-65603420D01*
X65195835Y-65603431D01*
X64966997Y-65779024D01*
X64966990Y-65779030D01*
X64763030Y-65982990D01*
X64763024Y-65982997D01*
X64587431Y-66211835D01*
X64587420Y-66211851D01*
X64443199Y-66461647D01*
X64443191Y-66461663D01*
X64332814Y-66728139D01*
X64332809Y-66728155D01*
X64258152Y-67006780D01*
X64258149Y-67006793D01*
X64220501Y-67292761D01*
X64220500Y-67292778D01*
X46926600Y-67292778D01*
X46926600Y-54353100D01*
X46946285Y-54286061D01*
X46999089Y-54240306D01*
X47050600Y-54229100D01*
X249951600Y-54229100D01*
X250018639Y-54248785D01*
G37*
G04 #@! TD.AperFunction*
M02*
