%TF.GenerationSoftware,KiCad,Pcbnew,9.0.4*%
%TF.CreationDate,2026-04-13T20:00:51-04:00*%
%TF.ProjectId,Analog_Sandbox_PCB,416e616c-6f67-45f5-9361-6e64626f785f,rev?*%
%TF.SameCoordinates,Original*%
%TF.FileFunction,Drillmap*%
%TF.FilePolarity,Positive*%
%FSLAX45Y45*%
G04 Gerber Fmt 4.5, Leading zero omitted, Abs format (unit mm)*
G04 Created by KiCad (PCBNEW 9.0.4) date 2026-04-13 20:00:51*
%MOMM*%
%LPD*%
G01*
G04 APERTURE LIST*
%ADD10C,0.050000*%
%ADD11C,0.200000*%
%ADD12C,0.100000*%
%ADD13C,0.185000*%
G04 APERTURE END LIST*
D10*
X25010110Y-5420360D02*
X4690110Y-5420360D01*
X25010110Y-15580360D02*
X25010110Y-5420360D01*
X4690110Y-15580360D02*
X25010110Y-15580360D01*
X4690110Y-5420360D02*
X4690110Y-15580360D01*
D11*
D12*
X6474700Y-15161500D02*
X6504700Y-15191500D01*
X6504700Y-15161500D02*
X6474700Y-15191500D01*
X6474700Y-15250400D02*
X6504700Y-15280400D01*
X6504700Y-15250400D02*
X6474700Y-15280400D01*
X6474700Y-15339300D02*
X6504700Y-15369300D01*
X6504700Y-15339300D02*
X6474700Y-15369300D01*
X6601700Y-15161500D02*
X6631700Y-15191500D01*
X6631700Y-15161500D02*
X6601700Y-15191500D01*
X6601700Y-15250400D02*
X6631700Y-15280400D01*
X6631700Y-15250400D02*
X6601700Y-15280400D01*
X6601700Y-15339300D02*
X6631700Y-15369300D01*
X6631700Y-15339300D02*
X6601700Y-15369300D01*
X6728700Y-15161500D02*
X6758700Y-15191500D01*
X6758700Y-15161500D02*
X6728700Y-15191500D01*
X6728700Y-15250400D02*
X6758700Y-15280400D01*
X6758700Y-15250400D02*
X6728700Y-15280400D01*
X6728700Y-15339300D02*
X6758700Y-15369300D01*
X6758700Y-15339300D02*
X6728700Y-15369300D01*
X6855700Y-15161500D02*
X6885700Y-15191500D01*
X6885700Y-15161500D02*
X6855700Y-15191500D01*
X6855700Y-15250400D02*
X6885700Y-15280400D01*
X6885700Y-15250400D02*
X6855700Y-15280400D01*
X6855700Y-15339300D02*
X6885700Y-15369300D01*
X6885700Y-15339300D02*
X6855700Y-15369300D01*
X5716900Y-7366000D02*
G75*
G02*
X5636900Y-7366000I-40000J0D01*
G01*
X5636900Y-7366000D02*
G75*
G02*
X5716900Y-7366000I40000J0D01*
G01*
X6478900Y-7366000D02*
G75*
G02*
X6398900Y-7366000I-40000J0D01*
G01*
X6398900Y-7366000D02*
G75*
G02*
X6478900Y-7366000I40000J0D01*
G01*
X7765850Y-12028150D02*
G75*
G02*
X7685850Y-12028150I-40000J0D01*
G01*
X7685850Y-12028150D02*
G75*
G02*
X7765850Y-12028150I40000J0D01*
G01*
X7977500Y-14579600D02*
G75*
G02*
X7897500Y-14579600I-40000J0D01*
G01*
X7897500Y-14579600D02*
G75*
G02*
X7977500Y-14579600I40000J0D01*
G01*
X8527850Y-12028150D02*
G75*
G02*
X8447850Y-12028150I-40000J0D01*
G01*
X8447850Y-12028150D02*
G75*
G02*
X8527850Y-12028150I40000J0D01*
G01*
X8739500Y-14579600D02*
G75*
G02*
X8659500Y-14579600I-40000J0D01*
G01*
X8659500Y-14579600D02*
G75*
G02*
X8739500Y-14579600I40000J0D01*
G01*
X9886750Y-11240750D02*
G75*
G02*
X9806750Y-11240750I-40000J0D01*
G01*
X9806750Y-11240750D02*
G75*
G02*
X9886750Y-11240750I40000J0D01*
G01*
X10606866Y-6949440D02*
G75*
G02*
X10526866Y-6949440I-40000J0D01*
G01*
X10526866Y-6949440D02*
G75*
G02*
X10606866Y-6949440I40000J0D01*
G01*
X10648750Y-11240750D02*
G75*
G02*
X10568750Y-11240750I-40000J0D01*
G01*
X10568750Y-11240750D02*
G75*
G02*
X10648750Y-11240750I40000J0D01*
G01*
X11368866Y-6949440D02*
G75*
G02*
X11288866Y-6949440I-40000J0D01*
G01*
X11288866Y-6949440D02*
G75*
G02*
X11368866Y-6949440I40000J0D01*
G01*
X12548250Y-12831250D02*
G75*
G02*
X12468250Y-12831250I-40000J0D01*
G01*
X12468250Y-12831250D02*
G75*
G02*
X12548250Y-12831250I40000J0D01*
G01*
X12548250Y-13593250D02*
G75*
G02*
X12468250Y-13593250I-40000J0D01*
G01*
X12468250Y-13593250D02*
G75*
G02*
X12548250Y-13593250I40000J0D01*
G01*
X12664266Y-7838440D02*
G75*
G02*
X12584266Y-7838440I-40000J0D01*
G01*
X12584266Y-7838440D02*
G75*
G02*
X12664266Y-7838440I40000J0D01*
G01*
X12668516Y-8842990D02*
G75*
G02*
X12588516Y-8842990I-40000J0D01*
G01*
X12588516Y-8842990D02*
G75*
G02*
X12668516Y-8842990I40000J0D01*
G01*
X13201400Y-13778250D02*
G75*
G02*
X13121400Y-13778250I-40000J0D01*
G01*
X13121400Y-13778250D02*
G75*
G02*
X13201400Y-13778250I40000J0D01*
G01*
X13209900Y-11239500D02*
G75*
G02*
X13129900Y-11239500I-40000J0D01*
G01*
X13129900Y-11239500D02*
G75*
G02*
X13209900Y-11239500I40000J0D01*
G01*
X13426266Y-7838440D02*
G75*
G02*
X13346266Y-7838440I-40000J0D01*
G01*
X13346266Y-7838440D02*
G75*
G02*
X13426266Y-7838440I40000J0D01*
G01*
X13430516Y-8842990D02*
G75*
G02*
X13350516Y-8842990I-40000J0D01*
G01*
X13350516Y-8842990D02*
G75*
G02*
X13430516Y-8842990I40000J0D01*
G01*
X13963400Y-13778250D02*
G75*
G02*
X13883400Y-13778250I-40000J0D01*
G01*
X13883400Y-13778250D02*
G75*
G02*
X13963400Y-13778250I40000J0D01*
G01*
X13971900Y-11239500D02*
G75*
G02*
X13891900Y-11239500I-40000J0D01*
G01*
X13891900Y-11239500D02*
G75*
G02*
X13971900Y-11239500I40000J0D01*
G01*
X15712240Y-7242790D02*
G75*
G02*
X15632240Y-7242790I-40000J0D01*
G01*
X15632240Y-7242790D02*
G75*
G02*
X15712240Y-7242790I40000J0D01*
G01*
X16008150Y-12180550D02*
G75*
G02*
X15928150Y-12180550I-40000J0D01*
G01*
X15928150Y-12180550D02*
G75*
G02*
X16008150Y-12180550I40000J0D01*
G01*
X16474240Y-7242790D02*
G75*
G02*
X16394240Y-7242790I-40000J0D01*
G01*
X16394240Y-7242790D02*
G75*
G02*
X16474240Y-7242790I40000J0D01*
G01*
X16770150Y-12180550D02*
G75*
G02*
X16690150Y-12180550I-40000J0D01*
G01*
X16690150Y-12180550D02*
G75*
G02*
X16770150Y-12180550I40000J0D01*
G01*
X17807800Y-12700000D02*
G75*
G02*
X17727800Y-12700000I-40000J0D01*
G01*
X17727800Y-12700000D02*
G75*
G02*
X17807800Y-12700000I40000J0D01*
G01*
X17807800Y-12954000D02*
G75*
G02*
X17727800Y-12954000I-40000J0D01*
G01*
X17727800Y-12954000D02*
G75*
G02*
X17807800Y-12954000I40000J0D01*
G01*
X17807800Y-13208000D02*
G75*
G02*
X17727800Y-13208000I-40000J0D01*
G01*
X17727800Y-13208000D02*
G75*
G02*
X17807800Y-13208000I40000J0D01*
G01*
X17807800Y-13462000D02*
G75*
G02*
X17727800Y-13462000I-40000J0D01*
G01*
X17727800Y-13462000D02*
G75*
G02*
X17807800Y-13462000I40000J0D01*
G01*
X18036340Y-9770090D02*
G75*
G02*
X17956340Y-9770090I-40000J0D01*
G01*
X17956340Y-9770090D02*
G75*
G02*
X18036340Y-9770090I40000J0D01*
G01*
X18451190Y-7230090D02*
G75*
G02*
X18371190Y-7230090I-40000J0D01*
G01*
X18371190Y-7230090D02*
G75*
G02*
X18451190Y-7230090I40000J0D01*
G01*
X18569800Y-12700000D02*
G75*
G02*
X18489800Y-12700000I-40000J0D01*
G01*
X18489800Y-12700000D02*
G75*
G02*
X18569800Y-12700000I40000J0D01*
G01*
X18569800Y-12954000D02*
G75*
G02*
X18489800Y-12954000I-40000J0D01*
G01*
X18489800Y-12954000D02*
G75*
G02*
X18569800Y-12954000I40000J0D01*
G01*
X18569800Y-13208000D02*
G75*
G02*
X18489800Y-13208000I-40000J0D01*
G01*
X18489800Y-13208000D02*
G75*
G02*
X18569800Y-13208000I40000J0D01*
G01*
X18569800Y-13462000D02*
G75*
G02*
X18489800Y-13462000I-40000J0D01*
G01*
X18489800Y-13462000D02*
G75*
G02*
X18569800Y-13462000I40000J0D01*
G01*
X18798340Y-9770090D02*
G75*
G02*
X18718340Y-9770090I-40000J0D01*
G01*
X18718340Y-9770090D02*
G75*
G02*
X18798340Y-9770090I40000J0D01*
G01*
X19213190Y-7230090D02*
G75*
G02*
X19133190Y-7230090I-40000J0D01*
G01*
X19133190Y-7230090D02*
G75*
G02*
X19213190Y-7230090I40000J0D01*
G01*
X20415050Y-7138650D02*
G75*
G02*
X20335050Y-7138650I-40000J0D01*
G01*
X20335050Y-7138650D02*
G75*
G02*
X20415050Y-7138650I40000J0D01*
G01*
X20757950Y-9665950D02*
G75*
G02*
X20677950Y-9665950I-40000J0D01*
G01*
X20677950Y-9665950D02*
G75*
G02*
X20757950Y-9665950I40000J0D01*
G01*
X20868000Y-12496800D02*
G75*
G02*
X20788000Y-12496800I-40000J0D01*
G01*
X20788000Y-12496800D02*
G75*
G02*
X20868000Y-12496800I40000J0D01*
G01*
X21177050Y-7138650D02*
G75*
G02*
X21097050Y-7138650I-40000J0D01*
G01*
X21097050Y-7138650D02*
G75*
G02*
X21177050Y-7138650I40000J0D01*
G01*
X21519950Y-9665950D02*
G75*
G02*
X21439950Y-9665950I-40000J0D01*
G01*
X21439950Y-9665950D02*
G75*
G02*
X21519950Y-9665950I40000J0D01*
G01*
X21630000Y-12496800D02*
G75*
G02*
X21550000Y-12496800I-40000J0D01*
G01*
X21550000Y-12496800D02*
G75*
G02*
X21630000Y-12496800I40000J0D01*
G01*
X23043950Y-7125950D02*
G75*
G02*
X22963950Y-7125950I-40000J0D01*
G01*
X22963950Y-7125950D02*
G75*
G02*
X23043950Y-7125950I40000J0D01*
G01*
X23805950Y-7125950D02*
G75*
G02*
X23725950Y-7125950I-40000J0D01*
G01*
X23725950Y-7125950D02*
G75*
G02*
X23805950Y-7125950I40000J0D01*
G01*
X9982200Y-12000230D02*
X9982200Y-12084050D01*
X9940290Y-12042140D02*
X10024110Y-12042140D01*
X10236200Y-11746230D02*
X10236200Y-11830050D01*
X10194290Y-11788140D02*
X10278110Y-11788140D01*
X10490200Y-12000230D02*
X10490200Y-12084050D01*
X10448290Y-12042140D02*
X10532110Y-12042140D01*
X11656060Y-12924790D02*
X11656060Y-13008610D01*
X11614150Y-12966700D02*
X11697970Y-12966700D01*
X11656060Y-13432790D02*
X11656060Y-13516610D01*
X11614150Y-13474700D02*
X11697970Y-13474700D01*
X11910060Y-13178790D02*
X11910060Y-13262610D01*
X11868150Y-13220700D02*
X11951970Y-13220700D01*
X13292650Y-14512290D02*
X13292650Y-14596110D01*
X13250740Y-14554200D02*
X13334560Y-14554200D01*
X13322300Y-12000230D02*
X13322300Y-12084050D01*
X13280390Y-12042140D02*
X13364210Y-12042140D01*
X13546650Y-14766290D02*
X13546650Y-14850110D01*
X13504740Y-14808200D02*
X13588560Y-14808200D01*
X13576300Y-11746230D02*
X13576300Y-11830050D01*
X13534390Y-11788140D02*
X13618210Y-11788140D01*
X13800650Y-14512290D02*
X13800650Y-14596110D01*
X13758740Y-14554200D02*
X13842560Y-14554200D01*
X13830300Y-12000230D02*
X13830300Y-12084050D01*
X13788390Y-12042140D02*
X13872210Y-12042140D01*
X18999200Y-13381990D02*
X18999200Y-13465810D01*
X18957290Y-13423900D02*
X19041110Y-13423900D01*
X19100800Y-8378190D02*
X19100800Y-8462010D01*
X19058890Y-8420100D02*
X19142710Y-8420100D01*
X19253200Y-13127990D02*
X19253200Y-13211810D01*
X19211290Y-13169900D02*
X19295110Y-13169900D01*
X19253200Y-13635990D02*
X19253200Y-13719810D01*
X19211290Y-13677900D02*
X19295110Y-13677900D01*
X19354800Y-8124190D02*
X19354800Y-8208010D01*
X19312890Y-8166100D02*
X19396710Y-8166100D01*
X19354800Y-8632190D02*
X19354800Y-8716010D01*
X19312890Y-8674100D02*
X19396710Y-8674100D01*
X22174200Y-13115290D02*
X22174200Y-13199110D01*
X22132290Y-13157200D02*
X22216110Y-13157200D01*
X22174200Y-13623290D02*
X22174200Y-13707110D01*
X22132290Y-13665200D02*
X22216110Y-13665200D01*
X22428200Y-13369290D02*
X22428200Y-13453110D01*
X22386290Y-13411200D02*
X22470110Y-13411200D01*
X23888700Y-8340090D02*
X23888700Y-8423910D01*
X23846790Y-8382000D02*
X23930610Y-8382000D01*
X24142700Y-8086090D02*
X24142700Y-8169910D01*
X24100790Y-8128000D02*
X24184610Y-8128000D01*
X24142700Y-8594090D02*
X24142700Y-8677910D01*
X24100790Y-8636000D02*
X24184610Y-8636000D01*
X17481346Y-8165896D02*
X17481346Y-8095184D01*
X17410634Y-8095184D01*
X17410634Y-8165896D01*
X17481346Y-8165896D01*
X17481346Y-8419896D02*
X17481346Y-8349184D01*
X17410634Y-8349184D01*
X17410634Y-8419896D01*
X17481346Y-8419896D01*
X17481346Y-8673896D02*
X17481346Y-8603184D01*
X17410634Y-8603184D01*
X17410634Y-8673896D01*
X17481346Y-8673896D01*
X24127256Y-13192556D02*
X24127256Y-13121844D01*
X24056544Y-13121844D01*
X24056544Y-13192556D01*
X24127256Y-13192556D01*
X24127256Y-13446556D02*
X24127256Y-13375844D01*
X24056544Y-13375844D01*
X24056544Y-13446556D01*
X24127256Y-13446556D01*
X24127256Y-13700556D02*
X24127256Y-13629844D01*
X24056544Y-13629844D01*
X24056544Y-13700556D01*
X24127256Y-13700556D01*
D13*
X6642100Y-6836200D02*
X6734600Y-6743700D01*
X6642100Y-6651200D01*
X6549600Y-6743700D01*
X6642100Y-6836200D01*
X8890000Y-6836200D02*
X8982500Y-6743700D01*
X8890000Y-6651200D01*
X8797500Y-6743700D01*
X8890000Y-6836200D01*
X8890000Y-7471200D02*
X8982500Y-7378700D01*
X8890000Y-7286200D01*
X8797500Y-7378700D01*
X8890000Y-7471200D01*
X9245600Y-11649500D02*
X9338100Y-11557000D01*
X9245600Y-11464500D01*
X9153100Y-11557000D01*
X9245600Y-11649500D01*
X9271000Y-9503200D02*
X9363500Y-9410700D01*
X9271000Y-9318200D01*
X9178500Y-9410700D01*
X9271000Y-9503200D01*
X9613900Y-14672100D02*
X9706400Y-14579600D01*
X9613900Y-14487100D01*
X9521400Y-14579600D01*
X9613900Y-14672100D01*
X11023600Y-9960400D02*
X11116100Y-9867900D01*
X11023600Y-9775400D01*
X10931100Y-9867900D01*
X11023600Y-9960400D01*
X11658600Y-12030500D02*
X11751100Y-11938000D01*
X11658600Y-11845500D01*
X11566100Y-11938000D01*
X11658600Y-12030500D01*
X11734800Y-7039400D02*
X11827300Y-6946900D01*
X11734800Y-6854400D01*
X11642300Y-6946900D01*
X11734800Y-7039400D01*
X12103100Y-7928400D02*
X12195600Y-7835900D01*
X12103100Y-7743400D01*
X12010600Y-7835900D01*
X12103100Y-7928400D01*
X12103100Y-8931700D02*
X12195600Y-8839200D01*
X12103100Y-8746700D01*
X12010600Y-8839200D01*
X12103100Y-8931700D01*
X14490700Y-12843300D02*
X14583200Y-12750800D01*
X14490700Y-12658300D01*
X14398200Y-12750800D01*
X14490700Y-12843300D01*
X16687800Y-6709200D02*
X16780300Y-6616700D01*
X16687800Y-6524200D01*
X16595300Y-6616700D01*
X16687800Y-6709200D01*
X17399000Y-13872000D02*
X17491500Y-13779500D01*
X17399000Y-13687000D01*
X17306500Y-13779500D01*
X17399000Y-13872000D01*
X19316700Y-9833400D02*
X19409200Y-9740900D01*
X19316700Y-9648400D01*
X19224200Y-9740900D01*
X19316700Y-9833400D01*
X19367500Y-7852200D02*
X19460000Y-7759700D01*
X19367500Y-7667200D01*
X19275000Y-7759700D01*
X19367500Y-7852200D01*
X19685000Y-12805200D02*
X19777500Y-12712700D01*
X19685000Y-12620200D01*
X19592500Y-12712700D01*
X19685000Y-12805200D01*
X22021800Y-7788700D02*
X22114300Y-7696200D01*
X22021800Y-7603700D01*
X21929300Y-7696200D01*
X22021800Y-7788700D01*
X22174200Y-12589300D02*
X22266700Y-12496800D01*
X22174200Y-12404300D01*
X22081700Y-12496800D01*
X22174200Y-12589300D01*
X22821900Y-13021100D02*
X22914400Y-12928600D01*
X22821900Y-12836100D01*
X22729400Y-12928600D01*
X22821900Y-13021100D01*
X23583900Y-13021100D02*
X23676400Y-12928600D01*
X23583900Y-12836100D01*
X23491400Y-12928600D01*
X23583900Y-13021100D01*
X23622000Y-14100600D02*
X23714500Y-14008100D01*
X23622000Y-13915600D01*
X23529500Y-14008100D01*
X23622000Y-14100600D01*
X24142700Y-7623600D02*
X24235200Y-7531100D01*
X24142700Y-7438600D01*
X24050200Y-7531100D01*
X24142700Y-7623600D01*
X24142700Y-9757200D02*
X24235200Y-9664700D01*
X24142700Y-9572200D01*
X24050200Y-9664700D01*
X24142700Y-9757200D01*
D11*
X4948387Y-15894344D02*
X4948387Y-15694344D01*
X4948387Y-15694344D02*
X4996006Y-15694344D01*
X4996006Y-15694344D02*
X5024577Y-15703868D01*
X5024577Y-15703868D02*
X5043625Y-15722915D01*
X5043625Y-15722915D02*
X5053149Y-15741963D01*
X5053149Y-15741963D02*
X5062673Y-15780058D01*
X5062673Y-15780058D02*
X5062673Y-15808629D01*
X5062673Y-15808629D02*
X5053149Y-15846725D01*
X5053149Y-15846725D02*
X5043625Y-15865772D01*
X5043625Y-15865772D02*
X5024577Y-15884820D01*
X5024577Y-15884820D02*
X4996006Y-15894344D01*
X4996006Y-15894344D02*
X4948387Y-15894344D01*
X5148387Y-15894344D02*
X5148387Y-15761010D01*
X5148387Y-15799106D02*
X5157911Y-15780058D01*
X5157911Y-15780058D02*
X5167434Y-15770534D01*
X5167434Y-15770534D02*
X5186482Y-15761010D01*
X5186482Y-15761010D02*
X5205530Y-15761010D01*
X5272196Y-15894344D02*
X5272196Y-15761010D01*
X5272196Y-15694344D02*
X5262673Y-15703868D01*
X5262673Y-15703868D02*
X5272196Y-15713391D01*
X5272196Y-15713391D02*
X5281720Y-15703868D01*
X5281720Y-15703868D02*
X5272196Y-15694344D01*
X5272196Y-15694344D02*
X5272196Y-15713391D01*
X5396006Y-15894344D02*
X5376958Y-15884820D01*
X5376958Y-15884820D02*
X5367434Y-15865772D01*
X5367434Y-15865772D02*
X5367434Y-15694344D01*
X5500768Y-15894344D02*
X5481720Y-15884820D01*
X5481720Y-15884820D02*
X5472196Y-15865772D01*
X5472196Y-15865772D02*
X5472196Y-15694344D01*
X5729339Y-15894344D02*
X5729339Y-15694344D01*
X5729339Y-15694344D02*
X5796006Y-15837201D01*
X5796006Y-15837201D02*
X5862672Y-15694344D01*
X5862672Y-15694344D02*
X5862672Y-15894344D01*
X6043625Y-15894344D02*
X6043625Y-15789582D01*
X6043625Y-15789582D02*
X6034101Y-15770534D01*
X6034101Y-15770534D02*
X6015053Y-15761010D01*
X6015053Y-15761010D02*
X5976958Y-15761010D01*
X5976958Y-15761010D02*
X5957911Y-15770534D01*
X6043625Y-15884820D02*
X6024577Y-15894344D01*
X6024577Y-15894344D02*
X5976958Y-15894344D01*
X5976958Y-15894344D02*
X5957911Y-15884820D01*
X5957911Y-15884820D02*
X5948387Y-15865772D01*
X5948387Y-15865772D02*
X5948387Y-15846725D01*
X5948387Y-15846725D02*
X5957911Y-15827677D01*
X5957911Y-15827677D02*
X5976958Y-15818153D01*
X5976958Y-15818153D02*
X6024577Y-15818153D01*
X6024577Y-15818153D02*
X6043625Y-15808629D01*
X6138863Y-15761010D02*
X6138863Y-15961010D01*
X6138863Y-15770534D02*
X6157911Y-15761010D01*
X6157911Y-15761010D02*
X6196006Y-15761010D01*
X6196006Y-15761010D02*
X6215053Y-15770534D01*
X6215053Y-15770534D02*
X6224577Y-15780058D01*
X6224577Y-15780058D02*
X6234101Y-15799106D01*
X6234101Y-15799106D02*
X6234101Y-15856248D01*
X6234101Y-15856248D02*
X6224577Y-15875296D01*
X6224577Y-15875296D02*
X6215053Y-15884820D01*
X6215053Y-15884820D02*
X6196006Y-15894344D01*
X6196006Y-15894344D02*
X6157911Y-15894344D01*
X6157911Y-15894344D02*
X6138863Y-15884820D01*
X6319815Y-15875296D02*
X6329339Y-15884820D01*
X6329339Y-15884820D02*
X6319815Y-15894344D01*
X6319815Y-15894344D02*
X6310292Y-15884820D01*
X6310292Y-15884820D02*
X6319815Y-15875296D01*
X6319815Y-15875296D02*
X6319815Y-15894344D01*
X6319815Y-15770534D02*
X6329339Y-15780058D01*
X6329339Y-15780058D02*
X6319815Y-15789582D01*
X6319815Y-15789582D02*
X6310292Y-15780058D01*
X6310292Y-15780058D02*
X6319815Y-15770534D01*
X6319815Y-15770534D02*
X6319815Y-15789582D01*
D12*
X4657610Y-16207860D02*
X4687610Y-16237860D01*
X4687610Y-16207860D02*
X4657610Y-16237860D01*
D11*
X4986482Y-16114344D02*
X5005530Y-16114344D01*
X5005530Y-16114344D02*
X5024577Y-16123868D01*
X5024577Y-16123868D02*
X5034101Y-16133391D01*
X5034101Y-16133391D02*
X5043625Y-16152439D01*
X5043625Y-16152439D02*
X5053149Y-16190534D01*
X5053149Y-16190534D02*
X5053149Y-16238153D01*
X5053149Y-16238153D02*
X5043625Y-16276248D01*
X5043625Y-16276248D02*
X5034101Y-16295296D01*
X5034101Y-16295296D02*
X5024577Y-16304820D01*
X5024577Y-16304820D02*
X5005530Y-16314344D01*
X5005530Y-16314344D02*
X4986482Y-16314344D01*
X4986482Y-16314344D02*
X4967434Y-16304820D01*
X4967434Y-16304820D02*
X4957911Y-16295296D01*
X4957911Y-16295296D02*
X4948387Y-16276248D01*
X4948387Y-16276248D02*
X4938863Y-16238153D01*
X4938863Y-16238153D02*
X4938863Y-16190534D01*
X4938863Y-16190534D02*
X4948387Y-16152439D01*
X4948387Y-16152439D02*
X4957911Y-16133391D01*
X4957911Y-16133391D02*
X4967434Y-16123868D01*
X4967434Y-16123868D02*
X4986482Y-16114344D01*
X5138863Y-16295296D02*
X5148387Y-16304820D01*
X5148387Y-16304820D02*
X5138863Y-16314344D01*
X5138863Y-16314344D02*
X5129339Y-16304820D01*
X5129339Y-16304820D02*
X5138863Y-16295296D01*
X5138863Y-16295296D02*
X5138863Y-16314344D01*
X5215054Y-16114344D02*
X5338863Y-16114344D01*
X5338863Y-16114344D02*
X5272196Y-16190534D01*
X5272196Y-16190534D02*
X5300768Y-16190534D01*
X5300768Y-16190534D02*
X5319815Y-16200058D01*
X5319815Y-16200058D02*
X5329339Y-16209582D01*
X5329339Y-16209582D02*
X5338863Y-16228629D01*
X5338863Y-16228629D02*
X5338863Y-16276248D01*
X5338863Y-16276248D02*
X5329339Y-16295296D01*
X5329339Y-16295296D02*
X5319815Y-16304820D01*
X5319815Y-16304820D02*
X5300768Y-16314344D01*
X5300768Y-16314344D02*
X5243625Y-16314344D01*
X5243625Y-16314344D02*
X5224577Y-16304820D01*
X5224577Y-16304820D02*
X5215054Y-16295296D01*
X5462673Y-16114344D02*
X5481720Y-16114344D01*
X5481720Y-16114344D02*
X5500768Y-16123868D01*
X5500768Y-16123868D02*
X5510292Y-16133391D01*
X5510292Y-16133391D02*
X5519815Y-16152439D01*
X5519815Y-16152439D02*
X5529339Y-16190534D01*
X5529339Y-16190534D02*
X5529339Y-16238153D01*
X5529339Y-16238153D02*
X5519815Y-16276248D01*
X5519815Y-16276248D02*
X5510292Y-16295296D01*
X5510292Y-16295296D02*
X5500768Y-16304820D01*
X5500768Y-16304820D02*
X5481720Y-16314344D01*
X5481720Y-16314344D02*
X5462673Y-16314344D01*
X5462673Y-16314344D02*
X5443625Y-16304820D01*
X5443625Y-16304820D02*
X5434101Y-16295296D01*
X5434101Y-16295296D02*
X5424577Y-16276248D01*
X5424577Y-16276248D02*
X5415054Y-16238153D01*
X5415054Y-16238153D02*
X5415054Y-16190534D01*
X5415054Y-16190534D02*
X5424577Y-16152439D01*
X5424577Y-16152439D02*
X5434101Y-16133391D01*
X5434101Y-16133391D02*
X5443625Y-16123868D01*
X5443625Y-16123868D02*
X5462673Y-16114344D01*
X5653149Y-16114344D02*
X5672196Y-16114344D01*
X5672196Y-16114344D02*
X5691244Y-16123868D01*
X5691244Y-16123868D02*
X5700768Y-16133391D01*
X5700768Y-16133391D02*
X5710292Y-16152439D01*
X5710292Y-16152439D02*
X5719815Y-16190534D01*
X5719815Y-16190534D02*
X5719815Y-16238153D01*
X5719815Y-16238153D02*
X5710292Y-16276248D01*
X5710292Y-16276248D02*
X5700768Y-16295296D01*
X5700768Y-16295296D02*
X5691244Y-16304820D01*
X5691244Y-16304820D02*
X5672196Y-16314344D01*
X5672196Y-16314344D02*
X5653149Y-16314344D01*
X5653149Y-16314344D02*
X5634101Y-16304820D01*
X5634101Y-16304820D02*
X5624577Y-16295296D01*
X5624577Y-16295296D02*
X5615053Y-16276248D01*
X5615053Y-16276248D02*
X5605530Y-16238153D01*
X5605530Y-16238153D02*
X5605530Y-16190534D01*
X5605530Y-16190534D02*
X5615053Y-16152439D01*
X5615053Y-16152439D02*
X5624577Y-16133391D01*
X5624577Y-16133391D02*
X5634101Y-16123868D01*
X5634101Y-16123868D02*
X5653149Y-16114344D01*
X5805530Y-16314344D02*
X5805530Y-16181010D01*
X5805530Y-16200058D02*
X5815053Y-16190534D01*
X5815053Y-16190534D02*
X5834101Y-16181010D01*
X5834101Y-16181010D02*
X5862673Y-16181010D01*
X5862673Y-16181010D02*
X5881720Y-16190534D01*
X5881720Y-16190534D02*
X5891244Y-16209582D01*
X5891244Y-16209582D02*
X5891244Y-16314344D01*
X5891244Y-16209582D02*
X5900768Y-16190534D01*
X5900768Y-16190534D02*
X5919815Y-16181010D01*
X5919815Y-16181010D02*
X5948387Y-16181010D01*
X5948387Y-16181010D02*
X5967434Y-16190534D01*
X5967434Y-16190534D02*
X5976958Y-16209582D01*
X5976958Y-16209582D02*
X5976958Y-16314344D01*
X6072196Y-16314344D02*
X6072196Y-16181010D01*
X6072196Y-16200058D02*
X6081720Y-16190534D01*
X6081720Y-16190534D02*
X6100768Y-16181010D01*
X6100768Y-16181010D02*
X6129339Y-16181010D01*
X6129339Y-16181010D02*
X6148387Y-16190534D01*
X6148387Y-16190534D02*
X6157911Y-16209582D01*
X6157911Y-16209582D02*
X6157911Y-16314344D01*
X6157911Y-16209582D02*
X6167434Y-16190534D01*
X6167434Y-16190534D02*
X6186482Y-16181010D01*
X6186482Y-16181010D02*
X6215053Y-16181010D01*
X6215053Y-16181010D02*
X6234101Y-16190534D01*
X6234101Y-16190534D02*
X6243625Y-16209582D01*
X6243625Y-16209582D02*
X6243625Y-16314344D01*
X6634101Y-16104820D02*
X6462673Y-16361963D01*
X6891244Y-16114344D02*
X6910292Y-16114344D01*
X6910292Y-16114344D02*
X6929339Y-16123868D01*
X6929339Y-16123868D02*
X6938863Y-16133391D01*
X6938863Y-16133391D02*
X6948387Y-16152439D01*
X6948387Y-16152439D02*
X6957911Y-16190534D01*
X6957911Y-16190534D02*
X6957911Y-16238153D01*
X6957911Y-16238153D02*
X6948387Y-16276248D01*
X6948387Y-16276248D02*
X6938863Y-16295296D01*
X6938863Y-16295296D02*
X6929339Y-16304820D01*
X6929339Y-16304820D02*
X6910292Y-16314344D01*
X6910292Y-16314344D02*
X6891244Y-16314344D01*
X6891244Y-16314344D02*
X6872196Y-16304820D01*
X6872196Y-16304820D02*
X6862673Y-16295296D01*
X6862673Y-16295296D02*
X6853149Y-16276248D01*
X6853149Y-16276248D02*
X6843625Y-16238153D01*
X6843625Y-16238153D02*
X6843625Y-16190534D01*
X6843625Y-16190534D02*
X6853149Y-16152439D01*
X6853149Y-16152439D02*
X6862673Y-16133391D01*
X6862673Y-16133391D02*
X6872196Y-16123868D01*
X6872196Y-16123868D02*
X6891244Y-16114344D01*
X7043625Y-16295296D02*
X7053149Y-16304820D01*
X7053149Y-16304820D02*
X7043625Y-16314344D01*
X7043625Y-16314344D02*
X7034101Y-16304820D01*
X7034101Y-16304820D02*
X7043625Y-16295296D01*
X7043625Y-16295296D02*
X7043625Y-16314344D01*
X7176958Y-16114344D02*
X7196006Y-16114344D01*
X7196006Y-16114344D02*
X7215054Y-16123868D01*
X7215054Y-16123868D02*
X7224577Y-16133391D01*
X7224577Y-16133391D02*
X7234101Y-16152439D01*
X7234101Y-16152439D02*
X7243625Y-16190534D01*
X7243625Y-16190534D02*
X7243625Y-16238153D01*
X7243625Y-16238153D02*
X7234101Y-16276248D01*
X7234101Y-16276248D02*
X7224577Y-16295296D01*
X7224577Y-16295296D02*
X7215054Y-16304820D01*
X7215054Y-16304820D02*
X7196006Y-16314344D01*
X7196006Y-16314344D02*
X7176958Y-16314344D01*
X7176958Y-16314344D02*
X7157911Y-16304820D01*
X7157911Y-16304820D02*
X7148387Y-16295296D01*
X7148387Y-16295296D02*
X7138863Y-16276248D01*
X7138863Y-16276248D02*
X7129339Y-16238153D01*
X7129339Y-16238153D02*
X7129339Y-16190534D01*
X7129339Y-16190534D02*
X7138863Y-16152439D01*
X7138863Y-16152439D02*
X7148387Y-16133391D01*
X7148387Y-16133391D02*
X7157911Y-16123868D01*
X7157911Y-16123868D02*
X7176958Y-16114344D01*
X7434101Y-16314344D02*
X7319816Y-16314344D01*
X7376958Y-16314344D02*
X7376958Y-16114344D01*
X7376958Y-16114344D02*
X7357911Y-16142915D01*
X7357911Y-16142915D02*
X7338863Y-16161963D01*
X7338863Y-16161963D02*
X7319816Y-16171487D01*
X7624577Y-16314344D02*
X7510292Y-16314344D01*
X7567435Y-16314344D02*
X7567435Y-16114344D01*
X7567435Y-16114344D02*
X7548387Y-16142915D01*
X7548387Y-16142915D02*
X7529339Y-16161963D01*
X7529339Y-16161963D02*
X7510292Y-16171487D01*
X7738863Y-16200058D02*
X7719816Y-16190534D01*
X7719816Y-16190534D02*
X7710292Y-16181010D01*
X7710292Y-16181010D02*
X7700768Y-16161963D01*
X7700768Y-16161963D02*
X7700768Y-16152439D01*
X7700768Y-16152439D02*
X7710292Y-16133391D01*
X7710292Y-16133391D02*
X7719816Y-16123868D01*
X7719816Y-16123868D02*
X7738863Y-16114344D01*
X7738863Y-16114344D02*
X7776958Y-16114344D01*
X7776958Y-16114344D02*
X7796006Y-16123868D01*
X7796006Y-16123868D02*
X7805530Y-16133391D01*
X7805530Y-16133391D02*
X7815054Y-16152439D01*
X7815054Y-16152439D02*
X7815054Y-16161963D01*
X7815054Y-16161963D02*
X7805530Y-16181010D01*
X7805530Y-16181010D02*
X7796006Y-16190534D01*
X7796006Y-16190534D02*
X7776958Y-16200058D01*
X7776958Y-16200058D02*
X7738863Y-16200058D01*
X7738863Y-16200058D02*
X7719816Y-16209582D01*
X7719816Y-16209582D02*
X7710292Y-16219106D01*
X7710292Y-16219106D02*
X7700768Y-16238153D01*
X7700768Y-16238153D02*
X7700768Y-16276248D01*
X7700768Y-16276248D02*
X7710292Y-16295296D01*
X7710292Y-16295296D02*
X7719816Y-16304820D01*
X7719816Y-16304820D02*
X7738863Y-16314344D01*
X7738863Y-16314344D02*
X7776958Y-16314344D01*
X7776958Y-16314344D02*
X7796006Y-16304820D01*
X7796006Y-16304820D02*
X7805530Y-16295296D01*
X7805530Y-16295296D02*
X7815054Y-16276248D01*
X7815054Y-16276248D02*
X7815054Y-16238153D01*
X7815054Y-16238153D02*
X7805530Y-16219106D01*
X7805530Y-16219106D02*
X7796006Y-16209582D01*
X7796006Y-16209582D02*
X7776958Y-16200058D01*
X7891244Y-16114344D02*
X7891244Y-16152439D01*
X7967435Y-16114344D02*
X7967435Y-16152439D01*
X8262673Y-16390534D02*
X8253149Y-16381010D01*
X8253149Y-16381010D02*
X8234101Y-16352439D01*
X8234101Y-16352439D02*
X8224578Y-16333391D01*
X8224578Y-16333391D02*
X8215054Y-16304820D01*
X8215054Y-16304820D02*
X8205530Y-16257201D01*
X8205530Y-16257201D02*
X8205530Y-16219106D01*
X8205530Y-16219106D02*
X8215054Y-16171487D01*
X8215054Y-16171487D02*
X8224578Y-16142915D01*
X8224578Y-16142915D02*
X8234101Y-16123868D01*
X8234101Y-16123868D02*
X8253149Y-16095296D01*
X8253149Y-16095296D02*
X8262673Y-16085772D01*
X8443625Y-16314344D02*
X8329339Y-16314344D01*
X8386482Y-16314344D02*
X8386482Y-16114344D01*
X8386482Y-16114344D02*
X8367435Y-16142915D01*
X8367435Y-16142915D02*
X8348387Y-16161963D01*
X8348387Y-16161963D02*
X8329339Y-16171487D01*
X8519816Y-16133391D02*
X8529340Y-16123868D01*
X8529340Y-16123868D02*
X8548387Y-16114344D01*
X8548387Y-16114344D02*
X8596006Y-16114344D01*
X8596006Y-16114344D02*
X8615054Y-16123868D01*
X8615054Y-16123868D02*
X8624578Y-16133391D01*
X8624578Y-16133391D02*
X8634101Y-16152439D01*
X8634101Y-16152439D02*
X8634101Y-16171487D01*
X8634101Y-16171487D02*
X8624578Y-16200058D01*
X8624578Y-16200058D02*
X8510292Y-16314344D01*
X8510292Y-16314344D02*
X8634101Y-16314344D01*
X8872197Y-16314344D02*
X8872197Y-16114344D01*
X8957911Y-16314344D02*
X8957911Y-16209582D01*
X8957911Y-16209582D02*
X8948387Y-16190534D01*
X8948387Y-16190534D02*
X8929340Y-16181010D01*
X8929340Y-16181010D02*
X8900768Y-16181010D01*
X8900768Y-16181010D02*
X8881721Y-16190534D01*
X8881721Y-16190534D02*
X8872197Y-16200058D01*
X9081721Y-16314344D02*
X9062673Y-16304820D01*
X9062673Y-16304820D02*
X9053149Y-16295296D01*
X9053149Y-16295296D02*
X9043625Y-16276248D01*
X9043625Y-16276248D02*
X9043625Y-16219106D01*
X9043625Y-16219106D02*
X9053149Y-16200058D01*
X9053149Y-16200058D02*
X9062673Y-16190534D01*
X9062673Y-16190534D02*
X9081721Y-16181010D01*
X9081721Y-16181010D02*
X9110292Y-16181010D01*
X9110292Y-16181010D02*
X9129340Y-16190534D01*
X9129340Y-16190534D02*
X9138863Y-16200058D01*
X9138863Y-16200058D02*
X9148387Y-16219106D01*
X9148387Y-16219106D02*
X9148387Y-16276248D01*
X9148387Y-16276248D02*
X9138863Y-16295296D01*
X9138863Y-16295296D02*
X9129340Y-16304820D01*
X9129340Y-16304820D02*
X9110292Y-16314344D01*
X9110292Y-16314344D02*
X9081721Y-16314344D01*
X9262673Y-16314344D02*
X9243625Y-16304820D01*
X9243625Y-16304820D02*
X9234102Y-16285772D01*
X9234102Y-16285772D02*
X9234102Y-16114344D01*
X9415054Y-16304820D02*
X9396006Y-16314344D01*
X9396006Y-16314344D02*
X9357911Y-16314344D01*
X9357911Y-16314344D02*
X9338863Y-16304820D01*
X9338863Y-16304820D02*
X9329340Y-16285772D01*
X9329340Y-16285772D02*
X9329340Y-16209582D01*
X9329340Y-16209582D02*
X9338863Y-16190534D01*
X9338863Y-16190534D02*
X9357911Y-16181010D01*
X9357911Y-16181010D02*
X9396006Y-16181010D01*
X9396006Y-16181010D02*
X9415054Y-16190534D01*
X9415054Y-16190534D02*
X9424578Y-16209582D01*
X9424578Y-16209582D02*
X9424578Y-16228629D01*
X9424578Y-16228629D02*
X9329340Y-16247677D01*
X9500768Y-16304820D02*
X9519816Y-16314344D01*
X9519816Y-16314344D02*
X9557911Y-16314344D01*
X9557911Y-16314344D02*
X9576959Y-16304820D01*
X9576959Y-16304820D02*
X9586483Y-16285772D01*
X9586483Y-16285772D02*
X9586483Y-16276248D01*
X9586483Y-16276248D02*
X9576959Y-16257201D01*
X9576959Y-16257201D02*
X9557911Y-16247677D01*
X9557911Y-16247677D02*
X9529340Y-16247677D01*
X9529340Y-16247677D02*
X9510292Y-16238153D01*
X9510292Y-16238153D02*
X9500768Y-16219106D01*
X9500768Y-16219106D02*
X9500768Y-16209582D01*
X9500768Y-16209582D02*
X9510292Y-16190534D01*
X9510292Y-16190534D02*
X9529340Y-16181010D01*
X9529340Y-16181010D02*
X9557911Y-16181010D01*
X9557911Y-16181010D02*
X9576959Y-16190534D01*
X9653149Y-16390534D02*
X9662673Y-16381010D01*
X9662673Y-16381010D02*
X9681721Y-16352439D01*
X9681721Y-16352439D02*
X9691244Y-16333391D01*
X9691244Y-16333391D02*
X9700768Y-16304820D01*
X9700768Y-16304820D02*
X9710292Y-16257201D01*
X9710292Y-16257201D02*
X9710292Y-16219106D01*
X9710292Y-16219106D02*
X9700768Y-16171487D01*
X9700768Y-16171487D02*
X9691244Y-16142915D01*
X9691244Y-16142915D02*
X9681721Y-16123868D01*
X9681721Y-16123868D02*
X9662673Y-16095296D01*
X9662673Y-16095296D02*
X9653149Y-16085772D01*
D12*
X4687610Y-16486860D02*
G75*
G02*
X4607610Y-16486860I-40000J0D01*
G01*
X4607610Y-16486860D02*
G75*
G02*
X4687610Y-16486860I40000J0D01*
G01*
D11*
X4986482Y-16378344D02*
X5005530Y-16378344D01*
X5005530Y-16378344D02*
X5024577Y-16387868D01*
X5024577Y-16387868D02*
X5034101Y-16397391D01*
X5034101Y-16397391D02*
X5043625Y-16416439D01*
X5043625Y-16416439D02*
X5053149Y-16454534D01*
X5053149Y-16454534D02*
X5053149Y-16502153D01*
X5053149Y-16502153D02*
X5043625Y-16540248D01*
X5043625Y-16540248D02*
X5034101Y-16559296D01*
X5034101Y-16559296D02*
X5024577Y-16568820D01*
X5024577Y-16568820D02*
X5005530Y-16578344D01*
X5005530Y-16578344D02*
X4986482Y-16578344D01*
X4986482Y-16578344D02*
X4967434Y-16568820D01*
X4967434Y-16568820D02*
X4957911Y-16559296D01*
X4957911Y-16559296D02*
X4948387Y-16540248D01*
X4948387Y-16540248D02*
X4938863Y-16502153D01*
X4938863Y-16502153D02*
X4938863Y-16454534D01*
X4938863Y-16454534D02*
X4948387Y-16416439D01*
X4948387Y-16416439D02*
X4957911Y-16397391D01*
X4957911Y-16397391D02*
X4967434Y-16387868D01*
X4967434Y-16387868D02*
X4986482Y-16378344D01*
X5138863Y-16559296D02*
X5148387Y-16568820D01*
X5148387Y-16568820D02*
X5138863Y-16578344D01*
X5138863Y-16578344D02*
X5129339Y-16568820D01*
X5129339Y-16568820D02*
X5138863Y-16559296D01*
X5138863Y-16559296D02*
X5138863Y-16578344D01*
X5262673Y-16464058D02*
X5243625Y-16454534D01*
X5243625Y-16454534D02*
X5234101Y-16445010D01*
X5234101Y-16445010D02*
X5224577Y-16425963D01*
X5224577Y-16425963D02*
X5224577Y-16416439D01*
X5224577Y-16416439D02*
X5234101Y-16397391D01*
X5234101Y-16397391D02*
X5243625Y-16387868D01*
X5243625Y-16387868D02*
X5262673Y-16378344D01*
X5262673Y-16378344D02*
X5300768Y-16378344D01*
X5300768Y-16378344D02*
X5319815Y-16387868D01*
X5319815Y-16387868D02*
X5329339Y-16397391D01*
X5329339Y-16397391D02*
X5338863Y-16416439D01*
X5338863Y-16416439D02*
X5338863Y-16425963D01*
X5338863Y-16425963D02*
X5329339Y-16445010D01*
X5329339Y-16445010D02*
X5319815Y-16454534D01*
X5319815Y-16454534D02*
X5300768Y-16464058D01*
X5300768Y-16464058D02*
X5262673Y-16464058D01*
X5262673Y-16464058D02*
X5243625Y-16473582D01*
X5243625Y-16473582D02*
X5234101Y-16483106D01*
X5234101Y-16483106D02*
X5224577Y-16502153D01*
X5224577Y-16502153D02*
X5224577Y-16540248D01*
X5224577Y-16540248D02*
X5234101Y-16559296D01*
X5234101Y-16559296D02*
X5243625Y-16568820D01*
X5243625Y-16568820D02*
X5262673Y-16578344D01*
X5262673Y-16578344D02*
X5300768Y-16578344D01*
X5300768Y-16578344D02*
X5319815Y-16568820D01*
X5319815Y-16568820D02*
X5329339Y-16559296D01*
X5329339Y-16559296D02*
X5338863Y-16540248D01*
X5338863Y-16540248D02*
X5338863Y-16502153D01*
X5338863Y-16502153D02*
X5329339Y-16483106D01*
X5329339Y-16483106D02*
X5319815Y-16473582D01*
X5319815Y-16473582D02*
X5300768Y-16464058D01*
X5462673Y-16378344D02*
X5481720Y-16378344D01*
X5481720Y-16378344D02*
X5500768Y-16387868D01*
X5500768Y-16387868D02*
X5510292Y-16397391D01*
X5510292Y-16397391D02*
X5519815Y-16416439D01*
X5519815Y-16416439D02*
X5529339Y-16454534D01*
X5529339Y-16454534D02*
X5529339Y-16502153D01*
X5529339Y-16502153D02*
X5519815Y-16540248D01*
X5519815Y-16540248D02*
X5510292Y-16559296D01*
X5510292Y-16559296D02*
X5500768Y-16568820D01*
X5500768Y-16568820D02*
X5481720Y-16578344D01*
X5481720Y-16578344D02*
X5462673Y-16578344D01*
X5462673Y-16578344D02*
X5443625Y-16568820D01*
X5443625Y-16568820D02*
X5434101Y-16559296D01*
X5434101Y-16559296D02*
X5424577Y-16540248D01*
X5424577Y-16540248D02*
X5415054Y-16502153D01*
X5415054Y-16502153D02*
X5415054Y-16454534D01*
X5415054Y-16454534D02*
X5424577Y-16416439D01*
X5424577Y-16416439D02*
X5434101Y-16397391D01*
X5434101Y-16397391D02*
X5443625Y-16387868D01*
X5443625Y-16387868D02*
X5462673Y-16378344D01*
X5653149Y-16378344D02*
X5672196Y-16378344D01*
X5672196Y-16378344D02*
X5691244Y-16387868D01*
X5691244Y-16387868D02*
X5700768Y-16397391D01*
X5700768Y-16397391D02*
X5710292Y-16416439D01*
X5710292Y-16416439D02*
X5719815Y-16454534D01*
X5719815Y-16454534D02*
X5719815Y-16502153D01*
X5719815Y-16502153D02*
X5710292Y-16540248D01*
X5710292Y-16540248D02*
X5700768Y-16559296D01*
X5700768Y-16559296D02*
X5691244Y-16568820D01*
X5691244Y-16568820D02*
X5672196Y-16578344D01*
X5672196Y-16578344D02*
X5653149Y-16578344D01*
X5653149Y-16578344D02*
X5634101Y-16568820D01*
X5634101Y-16568820D02*
X5624577Y-16559296D01*
X5624577Y-16559296D02*
X5615053Y-16540248D01*
X5615053Y-16540248D02*
X5605530Y-16502153D01*
X5605530Y-16502153D02*
X5605530Y-16454534D01*
X5605530Y-16454534D02*
X5615053Y-16416439D01*
X5615053Y-16416439D02*
X5624577Y-16397391D01*
X5624577Y-16397391D02*
X5634101Y-16387868D01*
X5634101Y-16387868D02*
X5653149Y-16378344D01*
X5805530Y-16578344D02*
X5805530Y-16445010D01*
X5805530Y-16464058D02*
X5815053Y-16454534D01*
X5815053Y-16454534D02*
X5834101Y-16445010D01*
X5834101Y-16445010D02*
X5862673Y-16445010D01*
X5862673Y-16445010D02*
X5881720Y-16454534D01*
X5881720Y-16454534D02*
X5891244Y-16473582D01*
X5891244Y-16473582D02*
X5891244Y-16578344D01*
X5891244Y-16473582D02*
X5900768Y-16454534D01*
X5900768Y-16454534D02*
X5919815Y-16445010D01*
X5919815Y-16445010D02*
X5948387Y-16445010D01*
X5948387Y-16445010D02*
X5967434Y-16454534D01*
X5967434Y-16454534D02*
X5976958Y-16473582D01*
X5976958Y-16473582D02*
X5976958Y-16578344D01*
X6072196Y-16578344D02*
X6072196Y-16445010D01*
X6072196Y-16464058D02*
X6081720Y-16454534D01*
X6081720Y-16454534D02*
X6100768Y-16445010D01*
X6100768Y-16445010D02*
X6129339Y-16445010D01*
X6129339Y-16445010D02*
X6148387Y-16454534D01*
X6148387Y-16454534D02*
X6157911Y-16473582D01*
X6157911Y-16473582D02*
X6157911Y-16578344D01*
X6157911Y-16473582D02*
X6167434Y-16454534D01*
X6167434Y-16454534D02*
X6186482Y-16445010D01*
X6186482Y-16445010D02*
X6215053Y-16445010D01*
X6215053Y-16445010D02*
X6234101Y-16454534D01*
X6234101Y-16454534D02*
X6243625Y-16473582D01*
X6243625Y-16473582D02*
X6243625Y-16578344D01*
X6634101Y-16368820D02*
X6462673Y-16625963D01*
X6891244Y-16378344D02*
X6910292Y-16378344D01*
X6910292Y-16378344D02*
X6929339Y-16387868D01*
X6929339Y-16387868D02*
X6938863Y-16397391D01*
X6938863Y-16397391D02*
X6948387Y-16416439D01*
X6948387Y-16416439D02*
X6957911Y-16454534D01*
X6957911Y-16454534D02*
X6957911Y-16502153D01*
X6957911Y-16502153D02*
X6948387Y-16540248D01*
X6948387Y-16540248D02*
X6938863Y-16559296D01*
X6938863Y-16559296D02*
X6929339Y-16568820D01*
X6929339Y-16568820D02*
X6910292Y-16578344D01*
X6910292Y-16578344D02*
X6891244Y-16578344D01*
X6891244Y-16578344D02*
X6872196Y-16568820D01*
X6872196Y-16568820D02*
X6862673Y-16559296D01*
X6862673Y-16559296D02*
X6853149Y-16540248D01*
X6853149Y-16540248D02*
X6843625Y-16502153D01*
X6843625Y-16502153D02*
X6843625Y-16454534D01*
X6843625Y-16454534D02*
X6853149Y-16416439D01*
X6853149Y-16416439D02*
X6862673Y-16397391D01*
X6862673Y-16397391D02*
X6872196Y-16387868D01*
X6872196Y-16387868D02*
X6891244Y-16378344D01*
X7043625Y-16559296D02*
X7053149Y-16568820D01*
X7053149Y-16568820D02*
X7043625Y-16578344D01*
X7043625Y-16578344D02*
X7034101Y-16568820D01*
X7034101Y-16568820D02*
X7043625Y-16559296D01*
X7043625Y-16559296D02*
X7043625Y-16578344D01*
X7176958Y-16378344D02*
X7196006Y-16378344D01*
X7196006Y-16378344D02*
X7215054Y-16387868D01*
X7215054Y-16387868D02*
X7224577Y-16397391D01*
X7224577Y-16397391D02*
X7234101Y-16416439D01*
X7234101Y-16416439D02*
X7243625Y-16454534D01*
X7243625Y-16454534D02*
X7243625Y-16502153D01*
X7243625Y-16502153D02*
X7234101Y-16540248D01*
X7234101Y-16540248D02*
X7224577Y-16559296D01*
X7224577Y-16559296D02*
X7215054Y-16568820D01*
X7215054Y-16568820D02*
X7196006Y-16578344D01*
X7196006Y-16578344D02*
X7176958Y-16578344D01*
X7176958Y-16578344D02*
X7157911Y-16568820D01*
X7157911Y-16568820D02*
X7148387Y-16559296D01*
X7148387Y-16559296D02*
X7138863Y-16540248D01*
X7138863Y-16540248D02*
X7129339Y-16502153D01*
X7129339Y-16502153D02*
X7129339Y-16454534D01*
X7129339Y-16454534D02*
X7138863Y-16416439D01*
X7138863Y-16416439D02*
X7148387Y-16397391D01*
X7148387Y-16397391D02*
X7157911Y-16387868D01*
X7157911Y-16387868D02*
X7176958Y-16378344D01*
X7310292Y-16378344D02*
X7434101Y-16378344D01*
X7434101Y-16378344D02*
X7367435Y-16454534D01*
X7367435Y-16454534D02*
X7396006Y-16454534D01*
X7396006Y-16454534D02*
X7415054Y-16464058D01*
X7415054Y-16464058D02*
X7424577Y-16473582D01*
X7424577Y-16473582D02*
X7434101Y-16492629D01*
X7434101Y-16492629D02*
X7434101Y-16540248D01*
X7434101Y-16540248D02*
X7424577Y-16559296D01*
X7424577Y-16559296D02*
X7415054Y-16568820D01*
X7415054Y-16568820D02*
X7396006Y-16578344D01*
X7396006Y-16578344D02*
X7338863Y-16578344D01*
X7338863Y-16578344D02*
X7319816Y-16568820D01*
X7319816Y-16568820D02*
X7310292Y-16559296D01*
X7624577Y-16578344D02*
X7510292Y-16578344D01*
X7567435Y-16578344D02*
X7567435Y-16378344D01*
X7567435Y-16378344D02*
X7548387Y-16406915D01*
X7548387Y-16406915D02*
X7529339Y-16425963D01*
X7529339Y-16425963D02*
X7510292Y-16435487D01*
X7805530Y-16378344D02*
X7710292Y-16378344D01*
X7710292Y-16378344D02*
X7700768Y-16473582D01*
X7700768Y-16473582D02*
X7710292Y-16464058D01*
X7710292Y-16464058D02*
X7729339Y-16454534D01*
X7729339Y-16454534D02*
X7776958Y-16454534D01*
X7776958Y-16454534D02*
X7796006Y-16464058D01*
X7796006Y-16464058D02*
X7805530Y-16473582D01*
X7805530Y-16473582D02*
X7815054Y-16492629D01*
X7815054Y-16492629D02*
X7815054Y-16540248D01*
X7815054Y-16540248D02*
X7805530Y-16559296D01*
X7805530Y-16559296D02*
X7796006Y-16568820D01*
X7796006Y-16568820D02*
X7776958Y-16578344D01*
X7776958Y-16578344D02*
X7729339Y-16578344D01*
X7729339Y-16578344D02*
X7710292Y-16568820D01*
X7710292Y-16568820D02*
X7700768Y-16559296D01*
X7891244Y-16378344D02*
X7891244Y-16416439D01*
X7967435Y-16378344D02*
X7967435Y-16416439D01*
X8262673Y-16654534D02*
X8253149Y-16645010D01*
X8253149Y-16645010D02*
X8234101Y-16616439D01*
X8234101Y-16616439D02*
X8224578Y-16597391D01*
X8224578Y-16597391D02*
X8215054Y-16568820D01*
X8215054Y-16568820D02*
X8205530Y-16521201D01*
X8205530Y-16521201D02*
X8205530Y-16483106D01*
X8205530Y-16483106D02*
X8215054Y-16435487D01*
X8215054Y-16435487D02*
X8224578Y-16406915D01*
X8224578Y-16406915D02*
X8234101Y-16387868D01*
X8234101Y-16387868D02*
X8253149Y-16359296D01*
X8253149Y-16359296D02*
X8262673Y-16349772D01*
X8424578Y-16445010D02*
X8424578Y-16578344D01*
X8376958Y-16368820D02*
X8329339Y-16511677D01*
X8329339Y-16511677D02*
X8453149Y-16511677D01*
X8615054Y-16445010D02*
X8615054Y-16578344D01*
X8567435Y-16368820D02*
X8519816Y-16511677D01*
X8519816Y-16511677D02*
X8643625Y-16511677D01*
X8872197Y-16578344D02*
X8872197Y-16378344D01*
X8957911Y-16578344D02*
X8957911Y-16473582D01*
X8957911Y-16473582D02*
X8948387Y-16454534D01*
X8948387Y-16454534D02*
X8929340Y-16445010D01*
X8929340Y-16445010D02*
X8900768Y-16445010D01*
X8900768Y-16445010D02*
X8881721Y-16454534D01*
X8881721Y-16454534D02*
X8872197Y-16464058D01*
X9081721Y-16578344D02*
X9062673Y-16568820D01*
X9062673Y-16568820D02*
X9053149Y-16559296D01*
X9053149Y-16559296D02*
X9043625Y-16540248D01*
X9043625Y-16540248D02*
X9043625Y-16483106D01*
X9043625Y-16483106D02*
X9053149Y-16464058D01*
X9053149Y-16464058D02*
X9062673Y-16454534D01*
X9062673Y-16454534D02*
X9081721Y-16445010D01*
X9081721Y-16445010D02*
X9110292Y-16445010D01*
X9110292Y-16445010D02*
X9129340Y-16454534D01*
X9129340Y-16454534D02*
X9138863Y-16464058D01*
X9138863Y-16464058D02*
X9148387Y-16483106D01*
X9148387Y-16483106D02*
X9148387Y-16540248D01*
X9148387Y-16540248D02*
X9138863Y-16559296D01*
X9138863Y-16559296D02*
X9129340Y-16568820D01*
X9129340Y-16568820D02*
X9110292Y-16578344D01*
X9110292Y-16578344D02*
X9081721Y-16578344D01*
X9262673Y-16578344D02*
X9243625Y-16568820D01*
X9243625Y-16568820D02*
X9234102Y-16549772D01*
X9234102Y-16549772D02*
X9234102Y-16378344D01*
X9415054Y-16568820D02*
X9396006Y-16578344D01*
X9396006Y-16578344D02*
X9357911Y-16578344D01*
X9357911Y-16578344D02*
X9338863Y-16568820D01*
X9338863Y-16568820D02*
X9329340Y-16549772D01*
X9329340Y-16549772D02*
X9329340Y-16473582D01*
X9329340Y-16473582D02*
X9338863Y-16454534D01*
X9338863Y-16454534D02*
X9357911Y-16445010D01*
X9357911Y-16445010D02*
X9396006Y-16445010D01*
X9396006Y-16445010D02*
X9415054Y-16454534D01*
X9415054Y-16454534D02*
X9424578Y-16473582D01*
X9424578Y-16473582D02*
X9424578Y-16492629D01*
X9424578Y-16492629D02*
X9329340Y-16511677D01*
X9500768Y-16568820D02*
X9519816Y-16578344D01*
X9519816Y-16578344D02*
X9557911Y-16578344D01*
X9557911Y-16578344D02*
X9576959Y-16568820D01*
X9576959Y-16568820D02*
X9586483Y-16549772D01*
X9586483Y-16549772D02*
X9586483Y-16540248D01*
X9586483Y-16540248D02*
X9576959Y-16521201D01*
X9576959Y-16521201D02*
X9557911Y-16511677D01*
X9557911Y-16511677D02*
X9529340Y-16511677D01*
X9529340Y-16511677D02*
X9510292Y-16502153D01*
X9510292Y-16502153D02*
X9500768Y-16483106D01*
X9500768Y-16483106D02*
X9500768Y-16473582D01*
X9500768Y-16473582D02*
X9510292Y-16454534D01*
X9510292Y-16454534D02*
X9529340Y-16445010D01*
X9529340Y-16445010D02*
X9557911Y-16445010D01*
X9557911Y-16445010D02*
X9576959Y-16454534D01*
X9653149Y-16654534D02*
X9662673Y-16645010D01*
X9662673Y-16645010D02*
X9681721Y-16616439D01*
X9681721Y-16616439D02*
X9691244Y-16597391D01*
X9691244Y-16597391D02*
X9700768Y-16568820D01*
X9700768Y-16568820D02*
X9710292Y-16521201D01*
X9710292Y-16521201D02*
X9710292Y-16483106D01*
X9710292Y-16483106D02*
X9700768Y-16435487D01*
X9700768Y-16435487D02*
X9691244Y-16406915D01*
X9691244Y-16406915D02*
X9681721Y-16387868D01*
X9681721Y-16387868D02*
X9662673Y-16359296D01*
X9662673Y-16359296D02*
X9653149Y-16349772D01*
D12*
X4645700Y-16708950D02*
X4645700Y-16792770D01*
X4603790Y-16750860D02*
X4687610Y-16750860D01*
D11*
X4986482Y-16642344D02*
X5005530Y-16642344D01*
X5005530Y-16642344D02*
X5024577Y-16651868D01*
X5024577Y-16651868D02*
X5034101Y-16661391D01*
X5034101Y-16661391D02*
X5043625Y-16680439D01*
X5043625Y-16680439D02*
X5053149Y-16718534D01*
X5053149Y-16718534D02*
X5053149Y-16766153D01*
X5053149Y-16766153D02*
X5043625Y-16804249D01*
X5043625Y-16804249D02*
X5034101Y-16823296D01*
X5034101Y-16823296D02*
X5024577Y-16832820D01*
X5024577Y-16832820D02*
X5005530Y-16842344D01*
X5005530Y-16842344D02*
X4986482Y-16842344D01*
X4986482Y-16842344D02*
X4967434Y-16832820D01*
X4967434Y-16832820D02*
X4957911Y-16823296D01*
X4957911Y-16823296D02*
X4948387Y-16804249D01*
X4948387Y-16804249D02*
X4938863Y-16766153D01*
X4938863Y-16766153D02*
X4938863Y-16718534D01*
X4938863Y-16718534D02*
X4948387Y-16680439D01*
X4948387Y-16680439D02*
X4957911Y-16661391D01*
X4957911Y-16661391D02*
X4967434Y-16651868D01*
X4967434Y-16651868D02*
X4986482Y-16642344D01*
X5138863Y-16823296D02*
X5148387Y-16832820D01*
X5148387Y-16832820D02*
X5138863Y-16842344D01*
X5138863Y-16842344D02*
X5129339Y-16832820D01*
X5129339Y-16832820D02*
X5138863Y-16823296D01*
X5138863Y-16823296D02*
X5138863Y-16842344D01*
X5262673Y-16728058D02*
X5243625Y-16718534D01*
X5243625Y-16718534D02*
X5234101Y-16709010D01*
X5234101Y-16709010D02*
X5224577Y-16689963D01*
X5224577Y-16689963D02*
X5224577Y-16680439D01*
X5224577Y-16680439D02*
X5234101Y-16661391D01*
X5234101Y-16661391D02*
X5243625Y-16651868D01*
X5243625Y-16651868D02*
X5262673Y-16642344D01*
X5262673Y-16642344D02*
X5300768Y-16642344D01*
X5300768Y-16642344D02*
X5319815Y-16651868D01*
X5319815Y-16651868D02*
X5329339Y-16661391D01*
X5329339Y-16661391D02*
X5338863Y-16680439D01*
X5338863Y-16680439D02*
X5338863Y-16689963D01*
X5338863Y-16689963D02*
X5329339Y-16709010D01*
X5329339Y-16709010D02*
X5319815Y-16718534D01*
X5319815Y-16718534D02*
X5300768Y-16728058D01*
X5300768Y-16728058D02*
X5262673Y-16728058D01*
X5262673Y-16728058D02*
X5243625Y-16737582D01*
X5243625Y-16737582D02*
X5234101Y-16747106D01*
X5234101Y-16747106D02*
X5224577Y-16766153D01*
X5224577Y-16766153D02*
X5224577Y-16804249D01*
X5224577Y-16804249D02*
X5234101Y-16823296D01*
X5234101Y-16823296D02*
X5243625Y-16832820D01*
X5243625Y-16832820D02*
X5262673Y-16842344D01*
X5262673Y-16842344D02*
X5300768Y-16842344D01*
X5300768Y-16842344D02*
X5319815Y-16832820D01*
X5319815Y-16832820D02*
X5329339Y-16823296D01*
X5329339Y-16823296D02*
X5338863Y-16804249D01*
X5338863Y-16804249D02*
X5338863Y-16766153D01*
X5338863Y-16766153D02*
X5329339Y-16747106D01*
X5329339Y-16747106D02*
X5319815Y-16737582D01*
X5319815Y-16737582D02*
X5300768Y-16728058D01*
X5405530Y-16642344D02*
X5529339Y-16642344D01*
X5529339Y-16642344D02*
X5462673Y-16718534D01*
X5462673Y-16718534D02*
X5491244Y-16718534D01*
X5491244Y-16718534D02*
X5510292Y-16728058D01*
X5510292Y-16728058D02*
X5519815Y-16737582D01*
X5519815Y-16737582D02*
X5529339Y-16756629D01*
X5529339Y-16756629D02*
X5529339Y-16804249D01*
X5529339Y-16804249D02*
X5519815Y-16823296D01*
X5519815Y-16823296D02*
X5510292Y-16832820D01*
X5510292Y-16832820D02*
X5491244Y-16842344D01*
X5491244Y-16842344D02*
X5434101Y-16842344D01*
X5434101Y-16842344D02*
X5415054Y-16832820D01*
X5415054Y-16832820D02*
X5405530Y-16823296D01*
X5643625Y-16728058D02*
X5624577Y-16718534D01*
X5624577Y-16718534D02*
X5615053Y-16709010D01*
X5615053Y-16709010D02*
X5605530Y-16689963D01*
X5605530Y-16689963D02*
X5605530Y-16680439D01*
X5605530Y-16680439D02*
X5615053Y-16661391D01*
X5615053Y-16661391D02*
X5624577Y-16651868D01*
X5624577Y-16651868D02*
X5643625Y-16642344D01*
X5643625Y-16642344D02*
X5681720Y-16642344D01*
X5681720Y-16642344D02*
X5700768Y-16651868D01*
X5700768Y-16651868D02*
X5710292Y-16661391D01*
X5710292Y-16661391D02*
X5719815Y-16680439D01*
X5719815Y-16680439D02*
X5719815Y-16689963D01*
X5719815Y-16689963D02*
X5710292Y-16709010D01*
X5710292Y-16709010D02*
X5700768Y-16718534D01*
X5700768Y-16718534D02*
X5681720Y-16728058D01*
X5681720Y-16728058D02*
X5643625Y-16728058D01*
X5643625Y-16728058D02*
X5624577Y-16737582D01*
X5624577Y-16737582D02*
X5615053Y-16747106D01*
X5615053Y-16747106D02*
X5605530Y-16766153D01*
X5605530Y-16766153D02*
X5605530Y-16804249D01*
X5605530Y-16804249D02*
X5615053Y-16823296D01*
X5615053Y-16823296D02*
X5624577Y-16832820D01*
X5624577Y-16832820D02*
X5643625Y-16842344D01*
X5643625Y-16842344D02*
X5681720Y-16842344D01*
X5681720Y-16842344D02*
X5700768Y-16832820D01*
X5700768Y-16832820D02*
X5710292Y-16823296D01*
X5710292Y-16823296D02*
X5719815Y-16804249D01*
X5719815Y-16804249D02*
X5719815Y-16766153D01*
X5719815Y-16766153D02*
X5710292Y-16747106D01*
X5710292Y-16747106D02*
X5700768Y-16737582D01*
X5700768Y-16737582D02*
X5681720Y-16728058D01*
X5805530Y-16842344D02*
X5805530Y-16709010D01*
X5805530Y-16728058D02*
X5815053Y-16718534D01*
X5815053Y-16718534D02*
X5834101Y-16709010D01*
X5834101Y-16709010D02*
X5862673Y-16709010D01*
X5862673Y-16709010D02*
X5881720Y-16718534D01*
X5881720Y-16718534D02*
X5891244Y-16737582D01*
X5891244Y-16737582D02*
X5891244Y-16842344D01*
X5891244Y-16737582D02*
X5900768Y-16718534D01*
X5900768Y-16718534D02*
X5919815Y-16709010D01*
X5919815Y-16709010D02*
X5948387Y-16709010D01*
X5948387Y-16709010D02*
X5967434Y-16718534D01*
X5967434Y-16718534D02*
X5976958Y-16737582D01*
X5976958Y-16737582D02*
X5976958Y-16842344D01*
X6072196Y-16842344D02*
X6072196Y-16709010D01*
X6072196Y-16728058D02*
X6081720Y-16718534D01*
X6081720Y-16718534D02*
X6100768Y-16709010D01*
X6100768Y-16709010D02*
X6129339Y-16709010D01*
X6129339Y-16709010D02*
X6148387Y-16718534D01*
X6148387Y-16718534D02*
X6157911Y-16737582D01*
X6157911Y-16737582D02*
X6157911Y-16842344D01*
X6157911Y-16737582D02*
X6167434Y-16718534D01*
X6167434Y-16718534D02*
X6186482Y-16709010D01*
X6186482Y-16709010D02*
X6215053Y-16709010D01*
X6215053Y-16709010D02*
X6234101Y-16718534D01*
X6234101Y-16718534D02*
X6243625Y-16737582D01*
X6243625Y-16737582D02*
X6243625Y-16842344D01*
X6634101Y-16632820D02*
X6462673Y-16889963D01*
X6891244Y-16642344D02*
X6910292Y-16642344D01*
X6910292Y-16642344D02*
X6929339Y-16651868D01*
X6929339Y-16651868D02*
X6938863Y-16661391D01*
X6938863Y-16661391D02*
X6948387Y-16680439D01*
X6948387Y-16680439D02*
X6957911Y-16718534D01*
X6957911Y-16718534D02*
X6957911Y-16766153D01*
X6957911Y-16766153D02*
X6948387Y-16804249D01*
X6948387Y-16804249D02*
X6938863Y-16823296D01*
X6938863Y-16823296D02*
X6929339Y-16832820D01*
X6929339Y-16832820D02*
X6910292Y-16842344D01*
X6910292Y-16842344D02*
X6891244Y-16842344D01*
X6891244Y-16842344D02*
X6872196Y-16832820D01*
X6872196Y-16832820D02*
X6862673Y-16823296D01*
X6862673Y-16823296D02*
X6853149Y-16804249D01*
X6853149Y-16804249D02*
X6843625Y-16766153D01*
X6843625Y-16766153D02*
X6843625Y-16718534D01*
X6843625Y-16718534D02*
X6853149Y-16680439D01*
X6853149Y-16680439D02*
X6862673Y-16661391D01*
X6862673Y-16661391D02*
X6872196Y-16651868D01*
X6872196Y-16651868D02*
X6891244Y-16642344D01*
X7043625Y-16823296D02*
X7053149Y-16832820D01*
X7053149Y-16832820D02*
X7043625Y-16842344D01*
X7043625Y-16842344D02*
X7034101Y-16832820D01*
X7034101Y-16832820D02*
X7043625Y-16823296D01*
X7043625Y-16823296D02*
X7043625Y-16842344D01*
X7176958Y-16642344D02*
X7196006Y-16642344D01*
X7196006Y-16642344D02*
X7215054Y-16651868D01*
X7215054Y-16651868D02*
X7224577Y-16661391D01*
X7224577Y-16661391D02*
X7234101Y-16680439D01*
X7234101Y-16680439D02*
X7243625Y-16718534D01*
X7243625Y-16718534D02*
X7243625Y-16766153D01*
X7243625Y-16766153D02*
X7234101Y-16804249D01*
X7234101Y-16804249D02*
X7224577Y-16823296D01*
X7224577Y-16823296D02*
X7215054Y-16832820D01*
X7215054Y-16832820D02*
X7196006Y-16842344D01*
X7196006Y-16842344D02*
X7176958Y-16842344D01*
X7176958Y-16842344D02*
X7157911Y-16832820D01*
X7157911Y-16832820D02*
X7148387Y-16823296D01*
X7148387Y-16823296D02*
X7138863Y-16804249D01*
X7138863Y-16804249D02*
X7129339Y-16766153D01*
X7129339Y-16766153D02*
X7129339Y-16718534D01*
X7129339Y-16718534D02*
X7138863Y-16680439D01*
X7138863Y-16680439D02*
X7148387Y-16661391D01*
X7148387Y-16661391D02*
X7157911Y-16651868D01*
X7157911Y-16651868D02*
X7176958Y-16642344D01*
X7310292Y-16642344D02*
X7434101Y-16642344D01*
X7434101Y-16642344D02*
X7367435Y-16718534D01*
X7367435Y-16718534D02*
X7396006Y-16718534D01*
X7396006Y-16718534D02*
X7415054Y-16728058D01*
X7415054Y-16728058D02*
X7424577Y-16737582D01*
X7424577Y-16737582D02*
X7434101Y-16756629D01*
X7434101Y-16756629D02*
X7434101Y-16804249D01*
X7434101Y-16804249D02*
X7424577Y-16823296D01*
X7424577Y-16823296D02*
X7415054Y-16832820D01*
X7415054Y-16832820D02*
X7396006Y-16842344D01*
X7396006Y-16842344D02*
X7338863Y-16842344D01*
X7338863Y-16842344D02*
X7319816Y-16832820D01*
X7319816Y-16832820D02*
X7310292Y-16823296D01*
X7500768Y-16642344D02*
X7624577Y-16642344D01*
X7624577Y-16642344D02*
X7557911Y-16718534D01*
X7557911Y-16718534D02*
X7586482Y-16718534D01*
X7586482Y-16718534D02*
X7605530Y-16728058D01*
X7605530Y-16728058D02*
X7615054Y-16737582D01*
X7615054Y-16737582D02*
X7624577Y-16756629D01*
X7624577Y-16756629D02*
X7624577Y-16804249D01*
X7624577Y-16804249D02*
X7615054Y-16823296D01*
X7615054Y-16823296D02*
X7605530Y-16832820D01*
X7605530Y-16832820D02*
X7586482Y-16842344D01*
X7586482Y-16842344D02*
X7529339Y-16842344D01*
X7529339Y-16842344D02*
X7510292Y-16832820D01*
X7510292Y-16832820D02*
X7500768Y-16823296D01*
X7748387Y-16642344D02*
X7767435Y-16642344D01*
X7767435Y-16642344D02*
X7786482Y-16651868D01*
X7786482Y-16651868D02*
X7796006Y-16661391D01*
X7796006Y-16661391D02*
X7805530Y-16680439D01*
X7805530Y-16680439D02*
X7815054Y-16718534D01*
X7815054Y-16718534D02*
X7815054Y-16766153D01*
X7815054Y-16766153D02*
X7805530Y-16804249D01*
X7805530Y-16804249D02*
X7796006Y-16823296D01*
X7796006Y-16823296D02*
X7786482Y-16832820D01*
X7786482Y-16832820D02*
X7767435Y-16842344D01*
X7767435Y-16842344D02*
X7748387Y-16842344D01*
X7748387Y-16842344D02*
X7729339Y-16832820D01*
X7729339Y-16832820D02*
X7719816Y-16823296D01*
X7719816Y-16823296D02*
X7710292Y-16804249D01*
X7710292Y-16804249D02*
X7700768Y-16766153D01*
X7700768Y-16766153D02*
X7700768Y-16718534D01*
X7700768Y-16718534D02*
X7710292Y-16680439D01*
X7710292Y-16680439D02*
X7719816Y-16661391D01*
X7719816Y-16661391D02*
X7729339Y-16651868D01*
X7729339Y-16651868D02*
X7748387Y-16642344D01*
X7891244Y-16642344D02*
X7891244Y-16680439D01*
X7967435Y-16642344D02*
X7967435Y-16680439D01*
X8262673Y-16918534D02*
X8253149Y-16909010D01*
X8253149Y-16909010D02*
X8234101Y-16880439D01*
X8234101Y-16880439D02*
X8224578Y-16861391D01*
X8224578Y-16861391D02*
X8215054Y-16832820D01*
X8215054Y-16832820D02*
X8205530Y-16785201D01*
X8205530Y-16785201D02*
X8205530Y-16747106D01*
X8205530Y-16747106D02*
X8215054Y-16699487D01*
X8215054Y-16699487D02*
X8224578Y-16670915D01*
X8224578Y-16670915D02*
X8234101Y-16651868D01*
X8234101Y-16651868D02*
X8253149Y-16623296D01*
X8253149Y-16623296D02*
X8262673Y-16613772D01*
X8329339Y-16661391D02*
X8338863Y-16651868D01*
X8338863Y-16651868D02*
X8357911Y-16642344D01*
X8357911Y-16642344D02*
X8405530Y-16642344D01*
X8405530Y-16642344D02*
X8424578Y-16651868D01*
X8424578Y-16651868D02*
X8434101Y-16661391D01*
X8434101Y-16661391D02*
X8443625Y-16680439D01*
X8443625Y-16680439D02*
X8443625Y-16699487D01*
X8443625Y-16699487D02*
X8434101Y-16728058D01*
X8434101Y-16728058D02*
X8319816Y-16842344D01*
X8319816Y-16842344D02*
X8443625Y-16842344D01*
X8615054Y-16709010D02*
X8615054Y-16842344D01*
X8567435Y-16632820D02*
X8519816Y-16775677D01*
X8519816Y-16775677D02*
X8643625Y-16775677D01*
X8872197Y-16842344D02*
X8872197Y-16642344D01*
X8957911Y-16842344D02*
X8957911Y-16737582D01*
X8957911Y-16737582D02*
X8948387Y-16718534D01*
X8948387Y-16718534D02*
X8929340Y-16709010D01*
X8929340Y-16709010D02*
X8900768Y-16709010D01*
X8900768Y-16709010D02*
X8881721Y-16718534D01*
X8881721Y-16718534D02*
X8872197Y-16728058D01*
X9081721Y-16842344D02*
X9062673Y-16832820D01*
X9062673Y-16832820D02*
X9053149Y-16823296D01*
X9053149Y-16823296D02*
X9043625Y-16804249D01*
X9043625Y-16804249D02*
X9043625Y-16747106D01*
X9043625Y-16747106D02*
X9053149Y-16728058D01*
X9053149Y-16728058D02*
X9062673Y-16718534D01*
X9062673Y-16718534D02*
X9081721Y-16709010D01*
X9081721Y-16709010D02*
X9110292Y-16709010D01*
X9110292Y-16709010D02*
X9129340Y-16718534D01*
X9129340Y-16718534D02*
X9138863Y-16728058D01*
X9138863Y-16728058D02*
X9148387Y-16747106D01*
X9148387Y-16747106D02*
X9148387Y-16804249D01*
X9148387Y-16804249D02*
X9138863Y-16823296D01*
X9138863Y-16823296D02*
X9129340Y-16832820D01*
X9129340Y-16832820D02*
X9110292Y-16842344D01*
X9110292Y-16842344D02*
X9081721Y-16842344D01*
X9262673Y-16842344D02*
X9243625Y-16832820D01*
X9243625Y-16832820D02*
X9234102Y-16813772D01*
X9234102Y-16813772D02*
X9234102Y-16642344D01*
X9415054Y-16832820D02*
X9396006Y-16842344D01*
X9396006Y-16842344D02*
X9357911Y-16842344D01*
X9357911Y-16842344D02*
X9338863Y-16832820D01*
X9338863Y-16832820D02*
X9329340Y-16813772D01*
X9329340Y-16813772D02*
X9329340Y-16737582D01*
X9329340Y-16737582D02*
X9338863Y-16718534D01*
X9338863Y-16718534D02*
X9357911Y-16709010D01*
X9357911Y-16709010D02*
X9396006Y-16709010D01*
X9396006Y-16709010D02*
X9415054Y-16718534D01*
X9415054Y-16718534D02*
X9424578Y-16737582D01*
X9424578Y-16737582D02*
X9424578Y-16756629D01*
X9424578Y-16756629D02*
X9329340Y-16775677D01*
X9500768Y-16832820D02*
X9519816Y-16842344D01*
X9519816Y-16842344D02*
X9557911Y-16842344D01*
X9557911Y-16842344D02*
X9576959Y-16832820D01*
X9576959Y-16832820D02*
X9586483Y-16813772D01*
X9586483Y-16813772D02*
X9586483Y-16804249D01*
X9586483Y-16804249D02*
X9576959Y-16785201D01*
X9576959Y-16785201D02*
X9557911Y-16775677D01*
X9557911Y-16775677D02*
X9529340Y-16775677D01*
X9529340Y-16775677D02*
X9510292Y-16766153D01*
X9510292Y-16766153D02*
X9500768Y-16747106D01*
X9500768Y-16747106D02*
X9500768Y-16737582D01*
X9500768Y-16737582D02*
X9510292Y-16718534D01*
X9510292Y-16718534D02*
X9529340Y-16709010D01*
X9529340Y-16709010D02*
X9557911Y-16709010D01*
X9557911Y-16709010D02*
X9576959Y-16718534D01*
X9653149Y-16918534D02*
X9662673Y-16909010D01*
X9662673Y-16909010D02*
X9681721Y-16880439D01*
X9681721Y-16880439D02*
X9691244Y-16861391D01*
X9691244Y-16861391D02*
X9700768Y-16832820D01*
X9700768Y-16832820D02*
X9710292Y-16785201D01*
X9710292Y-16785201D02*
X9710292Y-16747106D01*
X9710292Y-16747106D02*
X9700768Y-16699487D01*
X9700768Y-16699487D02*
X9691244Y-16670915D01*
X9691244Y-16670915D02*
X9681721Y-16651868D01*
X9681721Y-16651868D02*
X9662673Y-16623296D01*
X9662673Y-16623296D02*
X9653149Y-16613772D01*
D12*
X4672966Y-17050216D02*
X4672966Y-16979504D01*
X4602254Y-16979504D01*
X4602254Y-17050216D01*
X4672966Y-17050216D01*
D11*
X5053149Y-17106344D02*
X4938863Y-17106344D01*
X4996006Y-17106344D02*
X4996006Y-16906344D01*
X4996006Y-16906344D02*
X4976958Y-16934915D01*
X4976958Y-16934915D02*
X4957911Y-16953963D01*
X4957911Y-16953963D02*
X4938863Y-16963487D01*
X5138863Y-17087296D02*
X5148387Y-17096820D01*
X5148387Y-17096820D02*
X5138863Y-17106344D01*
X5138863Y-17106344D02*
X5129339Y-17096820D01*
X5129339Y-17096820D02*
X5138863Y-17087296D01*
X5138863Y-17087296D02*
X5138863Y-17106344D01*
X5272196Y-16906344D02*
X5291244Y-16906344D01*
X5291244Y-16906344D02*
X5310292Y-16915868D01*
X5310292Y-16915868D02*
X5319815Y-16925391D01*
X5319815Y-16925391D02*
X5329339Y-16944439D01*
X5329339Y-16944439D02*
X5338863Y-16982534D01*
X5338863Y-16982534D02*
X5338863Y-17030153D01*
X5338863Y-17030153D02*
X5329339Y-17068249D01*
X5329339Y-17068249D02*
X5319815Y-17087296D01*
X5319815Y-17087296D02*
X5310292Y-17096820D01*
X5310292Y-17096820D02*
X5291244Y-17106344D01*
X5291244Y-17106344D02*
X5272196Y-17106344D01*
X5272196Y-17106344D02*
X5253149Y-17096820D01*
X5253149Y-17096820D02*
X5243625Y-17087296D01*
X5243625Y-17087296D02*
X5234101Y-17068249D01*
X5234101Y-17068249D02*
X5224577Y-17030153D01*
X5224577Y-17030153D02*
X5224577Y-16982534D01*
X5224577Y-16982534D02*
X5234101Y-16944439D01*
X5234101Y-16944439D02*
X5243625Y-16925391D01*
X5243625Y-16925391D02*
X5253149Y-16915868D01*
X5253149Y-16915868D02*
X5272196Y-16906344D01*
X5462673Y-16906344D02*
X5481720Y-16906344D01*
X5481720Y-16906344D02*
X5500768Y-16915868D01*
X5500768Y-16915868D02*
X5510292Y-16925391D01*
X5510292Y-16925391D02*
X5519815Y-16944439D01*
X5519815Y-16944439D02*
X5529339Y-16982534D01*
X5529339Y-16982534D02*
X5529339Y-17030153D01*
X5529339Y-17030153D02*
X5519815Y-17068249D01*
X5519815Y-17068249D02*
X5510292Y-17087296D01*
X5510292Y-17087296D02*
X5500768Y-17096820D01*
X5500768Y-17096820D02*
X5481720Y-17106344D01*
X5481720Y-17106344D02*
X5462673Y-17106344D01*
X5462673Y-17106344D02*
X5443625Y-17096820D01*
X5443625Y-17096820D02*
X5434101Y-17087296D01*
X5434101Y-17087296D02*
X5424577Y-17068249D01*
X5424577Y-17068249D02*
X5415054Y-17030153D01*
X5415054Y-17030153D02*
X5415054Y-16982534D01*
X5415054Y-16982534D02*
X5424577Y-16944439D01*
X5424577Y-16944439D02*
X5434101Y-16925391D01*
X5434101Y-16925391D02*
X5443625Y-16915868D01*
X5443625Y-16915868D02*
X5462673Y-16906344D01*
X5653149Y-16906344D02*
X5672196Y-16906344D01*
X5672196Y-16906344D02*
X5691244Y-16915868D01*
X5691244Y-16915868D02*
X5700768Y-16925391D01*
X5700768Y-16925391D02*
X5710292Y-16944439D01*
X5710292Y-16944439D02*
X5719815Y-16982534D01*
X5719815Y-16982534D02*
X5719815Y-17030153D01*
X5719815Y-17030153D02*
X5710292Y-17068249D01*
X5710292Y-17068249D02*
X5700768Y-17087296D01*
X5700768Y-17087296D02*
X5691244Y-17096820D01*
X5691244Y-17096820D02*
X5672196Y-17106344D01*
X5672196Y-17106344D02*
X5653149Y-17106344D01*
X5653149Y-17106344D02*
X5634101Y-17096820D01*
X5634101Y-17096820D02*
X5624577Y-17087296D01*
X5624577Y-17087296D02*
X5615053Y-17068249D01*
X5615053Y-17068249D02*
X5605530Y-17030153D01*
X5605530Y-17030153D02*
X5605530Y-16982534D01*
X5605530Y-16982534D02*
X5615053Y-16944439D01*
X5615053Y-16944439D02*
X5624577Y-16925391D01*
X5624577Y-16925391D02*
X5634101Y-16915868D01*
X5634101Y-16915868D02*
X5653149Y-16906344D01*
X5805530Y-17106344D02*
X5805530Y-16973010D01*
X5805530Y-16992058D02*
X5815053Y-16982534D01*
X5815053Y-16982534D02*
X5834101Y-16973010D01*
X5834101Y-16973010D02*
X5862673Y-16973010D01*
X5862673Y-16973010D02*
X5881720Y-16982534D01*
X5881720Y-16982534D02*
X5891244Y-17001582D01*
X5891244Y-17001582D02*
X5891244Y-17106344D01*
X5891244Y-17001582D02*
X5900768Y-16982534D01*
X5900768Y-16982534D02*
X5919815Y-16973010D01*
X5919815Y-16973010D02*
X5948387Y-16973010D01*
X5948387Y-16973010D02*
X5967434Y-16982534D01*
X5967434Y-16982534D02*
X5976958Y-17001582D01*
X5976958Y-17001582D02*
X5976958Y-17106344D01*
X6072196Y-17106344D02*
X6072196Y-16973010D01*
X6072196Y-16992058D02*
X6081720Y-16982534D01*
X6081720Y-16982534D02*
X6100768Y-16973010D01*
X6100768Y-16973010D02*
X6129339Y-16973010D01*
X6129339Y-16973010D02*
X6148387Y-16982534D01*
X6148387Y-16982534D02*
X6157911Y-17001582D01*
X6157911Y-17001582D02*
X6157911Y-17106344D01*
X6157911Y-17001582D02*
X6167434Y-16982534D01*
X6167434Y-16982534D02*
X6186482Y-16973010D01*
X6186482Y-16973010D02*
X6215053Y-16973010D01*
X6215053Y-16973010D02*
X6234101Y-16982534D01*
X6234101Y-16982534D02*
X6243625Y-17001582D01*
X6243625Y-17001582D02*
X6243625Y-17106344D01*
X6634101Y-16896820D02*
X6462673Y-17153963D01*
X6891244Y-16906344D02*
X6910292Y-16906344D01*
X6910292Y-16906344D02*
X6929339Y-16915868D01*
X6929339Y-16915868D02*
X6938863Y-16925391D01*
X6938863Y-16925391D02*
X6948387Y-16944439D01*
X6948387Y-16944439D02*
X6957911Y-16982534D01*
X6957911Y-16982534D02*
X6957911Y-17030153D01*
X6957911Y-17030153D02*
X6948387Y-17068249D01*
X6948387Y-17068249D02*
X6938863Y-17087296D01*
X6938863Y-17087296D02*
X6929339Y-17096820D01*
X6929339Y-17096820D02*
X6910292Y-17106344D01*
X6910292Y-17106344D02*
X6891244Y-17106344D01*
X6891244Y-17106344D02*
X6872196Y-17096820D01*
X6872196Y-17096820D02*
X6862673Y-17087296D01*
X6862673Y-17087296D02*
X6853149Y-17068249D01*
X6853149Y-17068249D02*
X6843625Y-17030153D01*
X6843625Y-17030153D02*
X6843625Y-16982534D01*
X6843625Y-16982534D02*
X6853149Y-16944439D01*
X6853149Y-16944439D02*
X6862673Y-16925391D01*
X6862673Y-16925391D02*
X6872196Y-16915868D01*
X6872196Y-16915868D02*
X6891244Y-16906344D01*
X7043625Y-17087296D02*
X7053149Y-17096820D01*
X7053149Y-17096820D02*
X7043625Y-17106344D01*
X7043625Y-17106344D02*
X7034101Y-17096820D01*
X7034101Y-17096820D02*
X7043625Y-17087296D01*
X7043625Y-17087296D02*
X7043625Y-17106344D01*
X7176958Y-16906344D02*
X7196006Y-16906344D01*
X7196006Y-16906344D02*
X7215054Y-16915868D01*
X7215054Y-16915868D02*
X7224577Y-16925391D01*
X7224577Y-16925391D02*
X7234101Y-16944439D01*
X7234101Y-16944439D02*
X7243625Y-16982534D01*
X7243625Y-16982534D02*
X7243625Y-17030153D01*
X7243625Y-17030153D02*
X7234101Y-17068249D01*
X7234101Y-17068249D02*
X7224577Y-17087296D01*
X7224577Y-17087296D02*
X7215054Y-17096820D01*
X7215054Y-17096820D02*
X7196006Y-17106344D01*
X7196006Y-17106344D02*
X7176958Y-17106344D01*
X7176958Y-17106344D02*
X7157911Y-17096820D01*
X7157911Y-17096820D02*
X7148387Y-17087296D01*
X7148387Y-17087296D02*
X7138863Y-17068249D01*
X7138863Y-17068249D02*
X7129339Y-17030153D01*
X7129339Y-17030153D02*
X7129339Y-16982534D01*
X7129339Y-16982534D02*
X7138863Y-16944439D01*
X7138863Y-16944439D02*
X7148387Y-16925391D01*
X7148387Y-16925391D02*
X7157911Y-16915868D01*
X7157911Y-16915868D02*
X7176958Y-16906344D01*
X7310292Y-16906344D02*
X7434101Y-16906344D01*
X7434101Y-16906344D02*
X7367435Y-16982534D01*
X7367435Y-16982534D02*
X7396006Y-16982534D01*
X7396006Y-16982534D02*
X7415054Y-16992058D01*
X7415054Y-16992058D02*
X7424577Y-17001582D01*
X7424577Y-17001582D02*
X7434101Y-17020630D01*
X7434101Y-17020630D02*
X7434101Y-17068249D01*
X7434101Y-17068249D02*
X7424577Y-17087296D01*
X7424577Y-17087296D02*
X7415054Y-17096820D01*
X7415054Y-17096820D02*
X7396006Y-17106344D01*
X7396006Y-17106344D02*
X7338863Y-17106344D01*
X7338863Y-17106344D02*
X7319816Y-17096820D01*
X7319816Y-17096820D02*
X7310292Y-17087296D01*
X7529339Y-17106344D02*
X7567435Y-17106344D01*
X7567435Y-17106344D02*
X7586482Y-17096820D01*
X7586482Y-17096820D02*
X7596006Y-17087296D01*
X7596006Y-17087296D02*
X7615054Y-17058725D01*
X7615054Y-17058725D02*
X7624577Y-17020630D01*
X7624577Y-17020630D02*
X7624577Y-16944439D01*
X7624577Y-16944439D02*
X7615054Y-16925391D01*
X7615054Y-16925391D02*
X7605530Y-16915868D01*
X7605530Y-16915868D02*
X7586482Y-16906344D01*
X7586482Y-16906344D02*
X7548387Y-16906344D01*
X7548387Y-16906344D02*
X7529339Y-16915868D01*
X7529339Y-16915868D02*
X7519816Y-16925391D01*
X7519816Y-16925391D02*
X7510292Y-16944439D01*
X7510292Y-16944439D02*
X7510292Y-16992058D01*
X7510292Y-16992058D02*
X7519816Y-17011106D01*
X7519816Y-17011106D02*
X7529339Y-17020630D01*
X7529339Y-17020630D02*
X7548387Y-17030153D01*
X7548387Y-17030153D02*
X7586482Y-17030153D01*
X7586482Y-17030153D02*
X7605530Y-17020630D01*
X7605530Y-17020630D02*
X7615054Y-17011106D01*
X7615054Y-17011106D02*
X7624577Y-16992058D01*
X7796006Y-16973010D02*
X7796006Y-17106344D01*
X7748387Y-16896820D02*
X7700768Y-17039677D01*
X7700768Y-17039677D02*
X7824577Y-17039677D01*
X7891244Y-16906344D02*
X7891244Y-16944439D01*
X7967435Y-16906344D02*
X7967435Y-16944439D01*
X8262673Y-17182534D02*
X8253149Y-17173010D01*
X8253149Y-17173010D02*
X8234101Y-17144439D01*
X8234101Y-17144439D02*
X8224578Y-17125391D01*
X8224578Y-17125391D02*
X8215054Y-17096820D01*
X8215054Y-17096820D02*
X8205530Y-17049201D01*
X8205530Y-17049201D02*
X8205530Y-17011106D01*
X8205530Y-17011106D02*
X8215054Y-16963487D01*
X8215054Y-16963487D02*
X8224578Y-16934915D01*
X8224578Y-16934915D02*
X8234101Y-16915868D01*
X8234101Y-16915868D02*
X8253149Y-16887296D01*
X8253149Y-16887296D02*
X8262673Y-16877772D01*
X8424578Y-16906344D02*
X8386482Y-16906344D01*
X8386482Y-16906344D02*
X8367435Y-16915868D01*
X8367435Y-16915868D02*
X8357911Y-16925391D01*
X8357911Y-16925391D02*
X8338863Y-16953963D01*
X8338863Y-16953963D02*
X8329339Y-16992058D01*
X8329339Y-16992058D02*
X8329339Y-17068249D01*
X8329339Y-17068249D02*
X8338863Y-17087296D01*
X8338863Y-17087296D02*
X8348387Y-17096820D01*
X8348387Y-17096820D02*
X8367435Y-17106344D01*
X8367435Y-17106344D02*
X8405530Y-17106344D01*
X8405530Y-17106344D02*
X8424578Y-17096820D01*
X8424578Y-17096820D02*
X8434101Y-17087296D01*
X8434101Y-17087296D02*
X8443625Y-17068249D01*
X8443625Y-17068249D02*
X8443625Y-17020630D01*
X8443625Y-17020630D02*
X8434101Y-17001582D01*
X8434101Y-17001582D02*
X8424578Y-16992058D01*
X8424578Y-16992058D02*
X8405530Y-16982534D01*
X8405530Y-16982534D02*
X8367435Y-16982534D01*
X8367435Y-16982534D02*
X8348387Y-16992058D01*
X8348387Y-16992058D02*
X8338863Y-17001582D01*
X8338863Y-17001582D02*
X8329339Y-17020630D01*
X8681721Y-17106344D02*
X8681721Y-16906344D01*
X8767435Y-17106344D02*
X8767435Y-17001582D01*
X8767435Y-17001582D02*
X8757911Y-16982534D01*
X8757911Y-16982534D02*
X8738863Y-16973010D01*
X8738863Y-16973010D02*
X8710292Y-16973010D01*
X8710292Y-16973010D02*
X8691244Y-16982534D01*
X8691244Y-16982534D02*
X8681721Y-16992058D01*
X8891244Y-17106344D02*
X8872197Y-17096820D01*
X8872197Y-17096820D02*
X8862673Y-17087296D01*
X8862673Y-17087296D02*
X8853149Y-17068249D01*
X8853149Y-17068249D02*
X8853149Y-17011106D01*
X8853149Y-17011106D02*
X8862673Y-16992058D01*
X8862673Y-16992058D02*
X8872197Y-16982534D01*
X8872197Y-16982534D02*
X8891244Y-16973010D01*
X8891244Y-16973010D02*
X8919816Y-16973010D01*
X8919816Y-16973010D02*
X8938863Y-16982534D01*
X8938863Y-16982534D02*
X8948387Y-16992058D01*
X8948387Y-16992058D02*
X8957911Y-17011106D01*
X8957911Y-17011106D02*
X8957911Y-17068249D01*
X8957911Y-17068249D02*
X8948387Y-17087296D01*
X8948387Y-17087296D02*
X8938863Y-17096820D01*
X8938863Y-17096820D02*
X8919816Y-17106344D01*
X8919816Y-17106344D02*
X8891244Y-17106344D01*
X9072197Y-17106344D02*
X9053149Y-17096820D01*
X9053149Y-17096820D02*
X9043625Y-17077772D01*
X9043625Y-17077772D02*
X9043625Y-16906344D01*
X9224578Y-17096820D02*
X9205530Y-17106344D01*
X9205530Y-17106344D02*
X9167435Y-17106344D01*
X9167435Y-17106344D02*
X9148387Y-17096820D01*
X9148387Y-17096820D02*
X9138863Y-17077772D01*
X9138863Y-17077772D02*
X9138863Y-17001582D01*
X9138863Y-17001582D02*
X9148387Y-16982534D01*
X9148387Y-16982534D02*
X9167435Y-16973010D01*
X9167435Y-16973010D02*
X9205530Y-16973010D01*
X9205530Y-16973010D02*
X9224578Y-16982534D01*
X9224578Y-16982534D02*
X9234102Y-17001582D01*
X9234102Y-17001582D02*
X9234102Y-17020630D01*
X9234102Y-17020630D02*
X9138863Y-17039677D01*
X9310292Y-17096820D02*
X9329340Y-17106344D01*
X9329340Y-17106344D02*
X9367435Y-17106344D01*
X9367435Y-17106344D02*
X9386483Y-17096820D01*
X9386483Y-17096820D02*
X9396006Y-17077772D01*
X9396006Y-17077772D02*
X9396006Y-17068249D01*
X9396006Y-17068249D02*
X9386483Y-17049201D01*
X9386483Y-17049201D02*
X9367435Y-17039677D01*
X9367435Y-17039677D02*
X9338863Y-17039677D01*
X9338863Y-17039677D02*
X9319816Y-17030153D01*
X9319816Y-17030153D02*
X9310292Y-17011106D01*
X9310292Y-17011106D02*
X9310292Y-17001582D01*
X9310292Y-17001582D02*
X9319816Y-16982534D01*
X9319816Y-16982534D02*
X9338863Y-16973010D01*
X9338863Y-16973010D02*
X9367435Y-16973010D01*
X9367435Y-16973010D02*
X9386483Y-16982534D01*
X9462673Y-17182534D02*
X9472197Y-17173010D01*
X9472197Y-17173010D02*
X9491244Y-17144439D01*
X9491244Y-17144439D02*
X9500768Y-17125391D01*
X9500768Y-17125391D02*
X9510292Y-17096820D01*
X9510292Y-17096820D02*
X9519816Y-17049201D01*
X9519816Y-17049201D02*
X9519816Y-17011106D01*
X9519816Y-17011106D02*
X9510292Y-16963487D01*
X9510292Y-16963487D02*
X9500768Y-16934915D01*
X9500768Y-16934915D02*
X9491244Y-16915868D01*
X9491244Y-16915868D02*
X9472197Y-16887296D01*
X9472197Y-16887296D02*
X9462673Y-16877772D01*
D13*
X4595110Y-17371360D02*
X4687610Y-17278860D01*
X4595110Y-17186360D01*
X4502610Y-17278860D01*
X4595110Y-17371360D01*
D11*
X5053149Y-17370344D02*
X4938863Y-17370344D01*
X4996006Y-17370344D02*
X4996006Y-17170344D01*
X4996006Y-17170344D02*
X4976958Y-17198915D01*
X4976958Y-17198915D02*
X4957911Y-17217963D01*
X4957911Y-17217963D02*
X4938863Y-17227487D01*
X5138863Y-17351296D02*
X5148387Y-17360820D01*
X5148387Y-17360820D02*
X5138863Y-17370344D01*
X5138863Y-17370344D02*
X5129339Y-17360820D01*
X5129339Y-17360820D02*
X5138863Y-17351296D01*
X5138863Y-17351296D02*
X5138863Y-17370344D01*
X5262673Y-17256058D02*
X5243625Y-17246534D01*
X5243625Y-17246534D02*
X5234101Y-17237010D01*
X5234101Y-17237010D02*
X5224577Y-17217963D01*
X5224577Y-17217963D02*
X5224577Y-17208439D01*
X5224577Y-17208439D02*
X5234101Y-17189391D01*
X5234101Y-17189391D02*
X5243625Y-17179868D01*
X5243625Y-17179868D02*
X5262673Y-17170344D01*
X5262673Y-17170344D02*
X5300768Y-17170344D01*
X5300768Y-17170344D02*
X5319815Y-17179868D01*
X5319815Y-17179868D02*
X5329339Y-17189391D01*
X5329339Y-17189391D02*
X5338863Y-17208439D01*
X5338863Y-17208439D02*
X5338863Y-17217963D01*
X5338863Y-17217963D02*
X5329339Y-17237010D01*
X5329339Y-17237010D02*
X5319815Y-17246534D01*
X5319815Y-17246534D02*
X5300768Y-17256058D01*
X5300768Y-17256058D02*
X5262673Y-17256058D01*
X5262673Y-17256058D02*
X5243625Y-17265582D01*
X5243625Y-17265582D02*
X5234101Y-17275106D01*
X5234101Y-17275106D02*
X5224577Y-17294153D01*
X5224577Y-17294153D02*
X5224577Y-17332249D01*
X5224577Y-17332249D02*
X5234101Y-17351296D01*
X5234101Y-17351296D02*
X5243625Y-17360820D01*
X5243625Y-17360820D02*
X5262673Y-17370344D01*
X5262673Y-17370344D02*
X5300768Y-17370344D01*
X5300768Y-17370344D02*
X5319815Y-17360820D01*
X5319815Y-17360820D02*
X5329339Y-17351296D01*
X5329339Y-17351296D02*
X5338863Y-17332249D01*
X5338863Y-17332249D02*
X5338863Y-17294153D01*
X5338863Y-17294153D02*
X5329339Y-17275106D01*
X5329339Y-17275106D02*
X5319815Y-17265582D01*
X5319815Y-17265582D02*
X5300768Y-17256058D01*
X5519815Y-17170344D02*
X5424577Y-17170344D01*
X5424577Y-17170344D02*
X5415054Y-17265582D01*
X5415054Y-17265582D02*
X5424577Y-17256058D01*
X5424577Y-17256058D02*
X5443625Y-17246534D01*
X5443625Y-17246534D02*
X5491244Y-17246534D01*
X5491244Y-17246534D02*
X5510292Y-17256058D01*
X5510292Y-17256058D02*
X5519815Y-17265582D01*
X5519815Y-17265582D02*
X5529339Y-17284630D01*
X5529339Y-17284630D02*
X5529339Y-17332249D01*
X5529339Y-17332249D02*
X5519815Y-17351296D01*
X5519815Y-17351296D02*
X5510292Y-17360820D01*
X5510292Y-17360820D02*
X5491244Y-17370344D01*
X5491244Y-17370344D02*
X5443625Y-17370344D01*
X5443625Y-17370344D02*
X5424577Y-17360820D01*
X5424577Y-17360820D02*
X5415054Y-17351296D01*
X5653149Y-17170344D02*
X5672196Y-17170344D01*
X5672196Y-17170344D02*
X5691244Y-17179868D01*
X5691244Y-17179868D02*
X5700768Y-17189391D01*
X5700768Y-17189391D02*
X5710292Y-17208439D01*
X5710292Y-17208439D02*
X5719815Y-17246534D01*
X5719815Y-17246534D02*
X5719815Y-17294153D01*
X5719815Y-17294153D02*
X5710292Y-17332249D01*
X5710292Y-17332249D02*
X5700768Y-17351296D01*
X5700768Y-17351296D02*
X5691244Y-17360820D01*
X5691244Y-17360820D02*
X5672196Y-17370344D01*
X5672196Y-17370344D02*
X5653149Y-17370344D01*
X5653149Y-17370344D02*
X5634101Y-17360820D01*
X5634101Y-17360820D02*
X5624577Y-17351296D01*
X5624577Y-17351296D02*
X5615053Y-17332249D01*
X5615053Y-17332249D02*
X5605530Y-17294153D01*
X5605530Y-17294153D02*
X5605530Y-17246534D01*
X5605530Y-17246534D02*
X5615053Y-17208439D01*
X5615053Y-17208439D02*
X5624577Y-17189391D01*
X5624577Y-17189391D02*
X5634101Y-17179868D01*
X5634101Y-17179868D02*
X5653149Y-17170344D01*
X5805530Y-17370344D02*
X5805530Y-17237010D01*
X5805530Y-17256058D02*
X5815053Y-17246534D01*
X5815053Y-17246534D02*
X5834101Y-17237010D01*
X5834101Y-17237010D02*
X5862673Y-17237010D01*
X5862673Y-17237010D02*
X5881720Y-17246534D01*
X5881720Y-17246534D02*
X5891244Y-17265582D01*
X5891244Y-17265582D02*
X5891244Y-17370344D01*
X5891244Y-17265582D02*
X5900768Y-17246534D01*
X5900768Y-17246534D02*
X5919815Y-17237010D01*
X5919815Y-17237010D02*
X5948387Y-17237010D01*
X5948387Y-17237010D02*
X5967434Y-17246534D01*
X5967434Y-17246534D02*
X5976958Y-17265582D01*
X5976958Y-17265582D02*
X5976958Y-17370344D01*
X6072196Y-17370344D02*
X6072196Y-17237010D01*
X6072196Y-17256058D02*
X6081720Y-17246534D01*
X6081720Y-17246534D02*
X6100768Y-17237010D01*
X6100768Y-17237010D02*
X6129339Y-17237010D01*
X6129339Y-17237010D02*
X6148387Y-17246534D01*
X6148387Y-17246534D02*
X6157911Y-17265582D01*
X6157911Y-17265582D02*
X6157911Y-17370344D01*
X6157911Y-17265582D02*
X6167434Y-17246534D01*
X6167434Y-17246534D02*
X6186482Y-17237010D01*
X6186482Y-17237010D02*
X6215053Y-17237010D01*
X6215053Y-17237010D02*
X6234101Y-17246534D01*
X6234101Y-17246534D02*
X6243625Y-17265582D01*
X6243625Y-17265582D02*
X6243625Y-17370344D01*
X6634101Y-17160820D02*
X6462673Y-17417963D01*
X6891244Y-17170344D02*
X6910292Y-17170344D01*
X6910292Y-17170344D02*
X6929339Y-17179868D01*
X6929339Y-17179868D02*
X6938863Y-17189391D01*
X6938863Y-17189391D02*
X6948387Y-17208439D01*
X6948387Y-17208439D02*
X6957911Y-17246534D01*
X6957911Y-17246534D02*
X6957911Y-17294153D01*
X6957911Y-17294153D02*
X6948387Y-17332249D01*
X6948387Y-17332249D02*
X6938863Y-17351296D01*
X6938863Y-17351296D02*
X6929339Y-17360820D01*
X6929339Y-17360820D02*
X6910292Y-17370344D01*
X6910292Y-17370344D02*
X6891244Y-17370344D01*
X6891244Y-17370344D02*
X6872196Y-17360820D01*
X6872196Y-17360820D02*
X6862673Y-17351296D01*
X6862673Y-17351296D02*
X6853149Y-17332249D01*
X6853149Y-17332249D02*
X6843625Y-17294153D01*
X6843625Y-17294153D02*
X6843625Y-17246534D01*
X6843625Y-17246534D02*
X6853149Y-17208439D01*
X6853149Y-17208439D02*
X6862673Y-17189391D01*
X6862673Y-17189391D02*
X6872196Y-17179868D01*
X6872196Y-17179868D02*
X6891244Y-17170344D01*
X7043625Y-17351296D02*
X7053149Y-17360820D01*
X7053149Y-17360820D02*
X7043625Y-17370344D01*
X7043625Y-17370344D02*
X7034101Y-17360820D01*
X7034101Y-17360820D02*
X7043625Y-17351296D01*
X7043625Y-17351296D02*
X7043625Y-17370344D01*
X7176958Y-17170344D02*
X7196006Y-17170344D01*
X7196006Y-17170344D02*
X7215054Y-17179868D01*
X7215054Y-17179868D02*
X7224577Y-17189391D01*
X7224577Y-17189391D02*
X7234101Y-17208439D01*
X7234101Y-17208439D02*
X7243625Y-17246534D01*
X7243625Y-17246534D02*
X7243625Y-17294153D01*
X7243625Y-17294153D02*
X7234101Y-17332249D01*
X7234101Y-17332249D02*
X7224577Y-17351296D01*
X7224577Y-17351296D02*
X7215054Y-17360820D01*
X7215054Y-17360820D02*
X7196006Y-17370344D01*
X7196006Y-17370344D02*
X7176958Y-17370344D01*
X7176958Y-17370344D02*
X7157911Y-17360820D01*
X7157911Y-17360820D02*
X7148387Y-17351296D01*
X7148387Y-17351296D02*
X7138863Y-17332249D01*
X7138863Y-17332249D02*
X7129339Y-17294153D01*
X7129339Y-17294153D02*
X7129339Y-17246534D01*
X7129339Y-17246534D02*
X7138863Y-17208439D01*
X7138863Y-17208439D02*
X7148387Y-17189391D01*
X7148387Y-17189391D02*
X7157911Y-17179868D01*
X7157911Y-17179868D02*
X7176958Y-17170344D01*
X7310292Y-17170344D02*
X7443625Y-17170344D01*
X7443625Y-17170344D02*
X7357911Y-17370344D01*
X7510292Y-17189391D02*
X7519816Y-17179868D01*
X7519816Y-17179868D02*
X7538863Y-17170344D01*
X7538863Y-17170344D02*
X7586482Y-17170344D01*
X7586482Y-17170344D02*
X7605530Y-17179868D01*
X7605530Y-17179868D02*
X7615054Y-17189391D01*
X7615054Y-17189391D02*
X7624577Y-17208439D01*
X7624577Y-17208439D02*
X7624577Y-17227487D01*
X7624577Y-17227487D02*
X7615054Y-17256058D01*
X7615054Y-17256058D02*
X7500768Y-17370344D01*
X7500768Y-17370344D02*
X7624577Y-17370344D01*
X7738863Y-17256058D02*
X7719816Y-17246534D01*
X7719816Y-17246534D02*
X7710292Y-17237010D01*
X7710292Y-17237010D02*
X7700768Y-17217963D01*
X7700768Y-17217963D02*
X7700768Y-17208439D01*
X7700768Y-17208439D02*
X7710292Y-17189391D01*
X7710292Y-17189391D02*
X7719816Y-17179868D01*
X7719816Y-17179868D02*
X7738863Y-17170344D01*
X7738863Y-17170344D02*
X7776958Y-17170344D01*
X7776958Y-17170344D02*
X7796006Y-17179868D01*
X7796006Y-17179868D02*
X7805530Y-17189391D01*
X7805530Y-17189391D02*
X7815054Y-17208439D01*
X7815054Y-17208439D02*
X7815054Y-17217963D01*
X7815054Y-17217963D02*
X7805530Y-17237010D01*
X7805530Y-17237010D02*
X7796006Y-17246534D01*
X7796006Y-17246534D02*
X7776958Y-17256058D01*
X7776958Y-17256058D02*
X7738863Y-17256058D01*
X7738863Y-17256058D02*
X7719816Y-17265582D01*
X7719816Y-17265582D02*
X7710292Y-17275106D01*
X7710292Y-17275106D02*
X7700768Y-17294153D01*
X7700768Y-17294153D02*
X7700768Y-17332249D01*
X7700768Y-17332249D02*
X7710292Y-17351296D01*
X7710292Y-17351296D02*
X7719816Y-17360820D01*
X7719816Y-17360820D02*
X7738863Y-17370344D01*
X7738863Y-17370344D02*
X7776958Y-17370344D01*
X7776958Y-17370344D02*
X7796006Y-17360820D01*
X7796006Y-17360820D02*
X7805530Y-17351296D01*
X7805530Y-17351296D02*
X7815054Y-17332249D01*
X7815054Y-17332249D02*
X7815054Y-17294153D01*
X7815054Y-17294153D02*
X7805530Y-17275106D01*
X7805530Y-17275106D02*
X7796006Y-17265582D01*
X7796006Y-17265582D02*
X7776958Y-17256058D01*
X7891244Y-17170344D02*
X7891244Y-17208439D01*
X7967435Y-17170344D02*
X7967435Y-17208439D01*
X8262673Y-17446534D02*
X8253149Y-17437010D01*
X8253149Y-17437010D02*
X8234101Y-17408439D01*
X8234101Y-17408439D02*
X8224578Y-17389391D01*
X8224578Y-17389391D02*
X8215054Y-17360820D01*
X8215054Y-17360820D02*
X8205530Y-17313201D01*
X8205530Y-17313201D02*
X8205530Y-17275106D01*
X8205530Y-17275106D02*
X8215054Y-17227487D01*
X8215054Y-17227487D02*
X8224578Y-17198915D01*
X8224578Y-17198915D02*
X8234101Y-17179868D01*
X8234101Y-17179868D02*
X8253149Y-17151296D01*
X8253149Y-17151296D02*
X8262673Y-17141772D01*
X8329339Y-17189391D02*
X8338863Y-17179868D01*
X8338863Y-17179868D02*
X8357911Y-17170344D01*
X8357911Y-17170344D02*
X8405530Y-17170344D01*
X8405530Y-17170344D02*
X8424578Y-17179868D01*
X8424578Y-17179868D02*
X8434101Y-17189391D01*
X8434101Y-17189391D02*
X8443625Y-17208439D01*
X8443625Y-17208439D02*
X8443625Y-17227487D01*
X8443625Y-17227487D02*
X8434101Y-17256058D01*
X8434101Y-17256058D02*
X8319816Y-17370344D01*
X8319816Y-17370344D02*
X8443625Y-17370344D01*
X8615054Y-17237010D02*
X8615054Y-17370344D01*
X8567435Y-17160820D02*
X8519816Y-17303677D01*
X8519816Y-17303677D02*
X8643625Y-17303677D01*
X8872197Y-17370344D02*
X8872197Y-17170344D01*
X8957911Y-17370344D02*
X8957911Y-17265582D01*
X8957911Y-17265582D02*
X8948387Y-17246534D01*
X8948387Y-17246534D02*
X8929340Y-17237010D01*
X8929340Y-17237010D02*
X8900768Y-17237010D01*
X8900768Y-17237010D02*
X8881721Y-17246534D01*
X8881721Y-17246534D02*
X8872197Y-17256058D01*
X9081721Y-17370344D02*
X9062673Y-17360820D01*
X9062673Y-17360820D02*
X9053149Y-17351296D01*
X9053149Y-17351296D02*
X9043625Y-17332249D01*
X9043625Y-17332249D02*
X9043625Y-17275106D01*
X9043625Y-17275106D02*
X9053149Y-17256058D01*
X9053149Y-17256058D02*
X9062673Y-17246534D01*
X9062673Y-17246534D02*
X9081721Y-17237010D01*
X9081721Y-17237010D02*
X9110292Y-17237010D01*
X9110292Y-17237010D02*
X9129340Y-17246534D01*
X9129340Y-17246534D02*
X9138863Y-17256058D01*
X9138863Y-17256058D02*
X9148387Y-17275106D01*
X9148387Y-17275106D02*
X9148387Y-17332249D01*
X9148387Y-17332249D02*
X9138863Y-17351296D01*
X9138863Y-17351296D02*
X9129340Y-17360820D01*
X9129340Y-17360820D02*
X9110292Y-17370344D01*
X9110292Y-17370344D02*
X9081721Y-17370344D01*
X9262673Y-17370344D02*
X9243625Y-17360820D01*
X9243625Y-17360820D02*
X9234102Y-17341772D01*
X9234102Y-17341772D02*
X9234102Y-17170344D01*
X9415054Y-17360820D02*
X9396006Y-17370344D01*
X9396006Y-17370344D02*
X9357911Y-17370344D01*
X9357911Y-17370344D02*
X9338863Y-17360820D01*
X9338863Y-17360820D02*
X9329340Y-17341772D01*
X9329340Y-17341772D02*
X9329340Y-17265582D01*
X9329340Y-17265582D02*
X9338863Y-17246534D01*
X9338863Y-17246534D02*
X9357911Y-17237010D01*
X9357911Y-17237010D02*
X9396006Y-17237010D01*
X9396006Y-17237010D02*
X9415054Y-17246534D01*
X9415054Y-17246534D02*
X9424578Y-17265582D01*
X9424578Y-17265582D02*
X9424578Y-17284630D01*
X9424578Y-17284630D02*
X9329340Y-17303677D01*
X9500768Y-17360820D02*
X9519816Y-17370344D01*
X9519816Y-17370344D02*
X9557911Y-17370344D01*
X9557911Y-17370344D02*
X9576959Y-17360820D01*
X9576959Y-17360820D02*
X9586483Y-17341772D01*
X9586483Y-17341772D02*
X9586483Y-17332249D01*
X9586483Y-17332249D02*
X9576959Y-17313201D01*
X9576959Y-17313201D02*
X9557911Y-17303677D01*
X9557911Y-17303677D02*
X9529340Y-17303677D01*
X9529340Y-17303677D02*
X9510292Y-17294153D01*
X9510292Y-17294153D02*
X9500768Y-17275106D01*
X9500768Y-17275106D02*
X9500768Y-17265582D01*
X9500768Y-17265582D02*
X9510292Y-17246534D01*
X9510292Y-17246534D02*
X9529340Y-17237010D01*
X9529340Y-17237010D02*
X9557911Y-17237010D01*
X9557911Y-17237010D02*
X9576959Y-17246534D01*
X9653149Y-17446534D02*
X9662673Y-17437010D01*
X9662673Y-17437010D02*
X9681721Y-17408439D01*
X9681721Y-17408439D02*
X9691244Y-17389391D01*
X9691244Y-17389391D02*
X9700768Y-17360820D01*
X9700768Y-17360820D02*
X9710292Y-17313201D01*
X9710292Y-17313201D02*
X9710292Y-17275106D01*
X9710292Y-17275106D02*
X9700768Y-17227487D01*
X9700768Y-17227487D02*
X9691244Y-17198915D01*
X9691244Y-17198915D02*
X9681721Y-17179868D01*
X9681721Y-17179868D02*
X9662673Y-17151296D01*
X9662673Y-17151296D02*
X9653149Y-17141772D01*
M02*
