M48
; DRILL file {KiCad 9.0.4} date 2026-04-13T20:00:51-0400
; FORMAT={-:-/ absolute / metric / decimal}
; #@! TF.CreationDate,2026-04-13T20:00:51-04:00
; #@! TF.GenerationSoftware,Kicad,Pcbnew,9.0.4
; #@! TF.FileFunction,Plated,1,2,PTH
FMAT,2
METRIC
; #@! TA.AperFunction,Plated,PTH,ViaDrill
T1C0.300
; #@! TA.AperFunction,Plated,PTH,ComponentDrill
T2C0.800
; #@! TA.AperFunction,Plated,PTH,ComponentDrill
T3C0.838
; #@! TA.AperFunction,Plated,PTH,ComponentDrill
T4C1.000
; #@! TA.AperFunction,Plated,PTH,ComponentDrill
T5C1.850
%
G90
G05
T1
X64.897Y-151.765
X64.897Y-152.654
X64.897Y-153.543
X66.167Y-151.765
X66.167Y-152.654
X66.167Y-153.543
X67.437Y-151.765
X67.437Y-152.654
X67.437Y-153.543
X68.707Y-151.765
X68.707Y-152.654
X68.707Y-153.543
T2
X56.769Y-73.66
X64.389Y-73.66
X77.258Y-120.281
X79.375Y-145.796
X84.879Y-120.281
X86.995Y-145.796
X98.468Y-112.407
X105.669Y-69.494
X106.087Y-112.407
X113.289Y-69.494
X125.082Y-128.312
X125.082Y-135.933
X126.243Y-78.384
X126.285Y-88.43
X131.614Y-137.782
X131.699Y-112.395
X133.863Y-78.384
X133.905Y-88.43
X139.234Y-137.782
X139.319Y-112.395
X156.722Y-72.428
X159.681Y-121.805
X164.342Y-72.428
X167.302Y-121.805
X177.678Y-127.0
X177.678Y-129.54
X177.678Y-132.08
X177.678Y-134.62
X179.963Y-97.701
X184.112Y-72.301
X185.298Y-127.0
X185.298Y-129.54
X185.298Y-132.08
X185.298Y-134.62
X187.583Y-97.701
X191.732Y-72.301
X203.75Y-71.386
X207.179Y-96.659
X208.28Y-124.968
X211.37Y-71.386
X214.799Y-96.659
X215.9Y-124.968
X230.039Y-71.26
X237.659Y-71.26
T3
X99.822Y-120.421
X102.362Y-117.881
X104.902Y-120.421
X116.561Y-129.667
X116.561Y-134.747
X119.101Y-132.207
X132.927Y-145.542
X133.223Y-120.421
X135.466Y-148.082
X135.763Y-117.881
X138.006Y-145.542
X138.303Y-120.421
X189.992Y-134.239
X191.008Y-84.201
X192.532Y-131.699
X192.532Y-136.779
X193.548Y-81.661
X193.548Y-86.741
X221.742Y-131.572
X221.742Y-136.652
X224.282Y-134.112
X238.887Y-83.82
X241.427Y-81.28
X241.427Y-86.36
T4
X174.46Y-81.305
X174.46Y-83.845
X174.46Y-86.385
X240.919Y-131.572
X240.919Y-134.112
X240.919Y-136.652
T5
X66.421Y-67.437
X88.9Y-67.437
X88.9Y-73.787
X92.456Y-115.57
X92.71Y-94.107
X96.139Y-145.796
X110.236Y-98.679
X116.586Y-119.38
X117.348Y-69.469
X121.031Y-78.359
X121.031Y-88.392
X144.907Y-127.508
X166.878Y-66.167
X173.99Y-137.795
X193.167Y-97.409
X193.675Y-77.597
X196.85Y-127.127
X220.218Y-76.962
X221.742Y-124.968
X228.219Y-129.286
X235.839Y-129.286
X236.22Y-140.081
X241.427Y-75.311
X241.427Y-96.647
M30
