G04 #@! TF.GenerationSoftware,KiCad,Pcbnew,9.0.4*
G04 #@! TF.CreationDate,2026-04-13T19:59:59-04:00*
G04 #@! TF.ProjectId,Analog_Sandbox_PCB,416e616c-6f67-45f5-9361-6e64626f785f,rev?*
G04 #@! TF.SameCoordinates,Original*
G04 #@! TF.FileFunction,Soldermask,Bot*
G04 #@! TF.FilePolarity,Negative*
%FSLAX46Y46*%
G04 Gerber Fmt 4.6, Leading zero omitted, Abs format (unit mm)*
G04 Created by KiCad (PCBNEW 9.0.4) date 2026-04-13 19:59:59*
%MOMM*%
%LPD*%
G01*
G04 APERTURE LIST*
G04 Aperture macros list*
%AMRoundRect*
0 Rectangle with rounded corners*
0 $1 Rounding radius*
0 $2 $3 $4 $5 $6 $7 $8 $9 X,Y pos of 4 corners*
0 Add a 4 corners polygon primitive as box body*
4,1,4,$2,$3,$4,$5,$6,$7,$8,$9,$2,$3,0*
0 Add four circle primitives for the rounded corners*
1,1,$1+$1,$2,$3*
1,1,$1+$1,$4,$5*
1,1,$1+$1,$6,$7*
1,1,$1+$1,$8,$9*
0 Add four rect primitives between the rounded corners*
20,1,$1+$1,$2,$3,$4,$5,0*
20,1,$1+$1,$4,$5,$6,$7,0*
20,1,$1+$1,$6,$7,$8,$9,0*
20,1,$1+$1,$8,$9,$2,$3,0*%
G04 Aperture macros list end*
%ADD10RoundRect,0.250000X-0.550000X-0.550000X0.550000X-0.550000X0.550000X0.550000X-0.550000X0.550000X0*%
%ADD11C,1.600000*%
%ADD12C,3.400000*%
%ADD13R,1.700000X1.700000*%
%ADD14C,1.700000*%
%ADD15R,1.346200X1.346200*%
%ADD16C,1.346200*%
%ADD17RoundRect,0.250000X-0.550000X0.550000X-0.550000X-0.550000X0.550000X-0.550000X0.550000X0.550000X0*%
%ADD18RoundRect,0.250000X0.550000X0.550000X-0.550000X0.550000X-0.550000X-0.550000X0.550000X-0.550000X0*%
%ADD19R,3.600000X2.600000*%
G04 APERTURE END LIST*
D10*
X203750500Y-71386500D03*
D11*
X211370500Y-71386500D03*
D12*
X221742000Y-124968000D03*
X166878000Y-66167000D03*
D13*
X174459900Y-81305400D03*
D14*
X174459900Y-83845400D03*
X174459900Y-86385400D03*
D12*
X236220000Y-140081000D03*
D10*
X177678000Y-127000000D03*
D11*
X177678000Y-129540000D03*
X177678000Y-132080000D03*
X177678000Y-134620000D03*
X185298000Y-134620000D03*
X185298000Y-132080000D03*
X185298000Y-129540000D03*
X185298000Y-127000000D03*
D12*
X117348000Y-69469000D03*
X121031000Y-88392000D03*
D10*
X131699000Y-112395000D03*
D11*
X139319000Y-112395000D03*
D10*
X230039500Y-71259500D03*
D11*
X237659500Y-71259500D03*
D15*
X116560600Y-129667000D03*
D16*
X119100600Y-132207000D03*
X116560600Y-134747000D03*
D12*
X110236000Y-98679000D03*
X66421000Y-67437000D03*
D15*
X221742000Y-131572000D03*
D16*
X224282000Y-134112000D03*
X221742000Y-136652000D03*
D10*
X126285156Y-88429900D03*
D11*
X133905156Y-88429900D03*
D15*
X138006500Y-145542000D03*
D16*
X135466500Y-148082000D03*
X132926500Y-145542000D03*
D15*
X99822000Y-120421400D03*
D16*
X102362000Y-117881400D03*
X104902000Y-120421400D03*
D12*
X193167000Y-97409000D03*
X88900000Y-73787000D03*
X96139000Y-145796000D03*
X220218000Y-76962000D03*
X241427000Y-96647000D03*
D10*
X207179500Y-96659500D03*
D11*
X214799500Y-96659500D03*
D12*
X241427000Y-75311000D03*
X121031000Y-78359000D03*
X173990000Y-137795000D03*
D10*
X179963400Y-97700900D03*
D11*
X187583400Y-97700900D03*
D10*
X208280000Y-124968000D03*
D11*
X215900000Y-124968000D03*
D10*
X156722400Y-72427900D03*
D11*
X164342400Y-72427900D03*
D15*
X241427000Y-86360000D03*
D16*
X238887000Y-83820000D03*
X241427000Y-81280000D03*
D12*
X92710000Y-94107000D03*
X92456000Y-115570000D03*
X196850000Y-127127000D03*
D10*
X56769000Y-73660000D03*
D11*
X64389000Y-73660000D03*
D10*
X159681500Y-121805500D03*
D11*
X167301500Y-121805500D03*
D15*
X192532000Y-136779000D03*
D16*
X189992000Y-134239000D03*
X192532000Y-131699000D03*
D12*
X88900000Y-67437000D03*
D10*
X105668656Y-69494400D03*
D11*
X113288656Y-69494400D03*
D12*
X116586000Y-119380000D03*
D10*
X98467500Y-112407500D03*
D11*
X106087500Y-112407500D03*
D12*
X193675000Y-77597000D03*
D15*
X193548000Y-86741000D03*
D16*
X191008000Y-84201000D03*
X193548000Y-81661000D03*
D12*
X228219000Y-129286000D03*
D17*
X125082500Y-128312500D03*
D11*
X125082500Y-135932500D03*
D18*
X139234000Y-137782500D03*
D11*
X131614000Y-137782500D03*
D10*
X126242656Y-78384400D03*
D11*
X133862656Y-78384400D03*
D12*
X235839000Y-129286000D03*
D13*
X240919000Y-136652000D03*
D14*
X240919000Y-134112000D03*
X240919000Y-131572000D03*
D15*
X133223000Y-120421400D03*
D16*
X135763000Y-117881400D03*
X138303000Y-120421400D03*
D10*
X184111900Y-72300900D03*
D11*
X191731900Y-72300900D03*
D12*
X144907000Y-127508000D03*
D10*
X77258500Y-120281500D03*
D11*
X84878500Y-120281500D03*
D10*
X79375000Y-145796000D03*
D11*
X86995000Y-145796000D03*
D19*
X61341000Y-123444000D03*
X61341000Y-152744000D03*
X61341000Y-90297000D03*
X61341000Y-119597000D03*
M02*
