%TF.GenerationSoftware,KiCad,Pcbnew,9.0.4*%
%TF.CreationDate,2026-04-13T20:00:51-04:00*%
%TF.ProjectId,Analog_Sandbox_PCB,416e616c-6f67-45f5-9361-6e64626f785f,rev?*%
%TF.SameCoordinates,Original*%
%TF.FileFunction,Drillmap*%
%TF.FilePolarity,Positive*%
%FSLAX45Y45*%
G04 Gerber Fmt 4.5, Leading zero omitted, Abs format (unit mm)*
G04 Created by KiCad (PCBNEW 9.0.4) date 2026-04-13 20:00:51*
%MOMM*%
%LPD*%
G01*
G04 APERTURE LIST*
%ADD10C,0.050000*%
%ADD11C,0.200000*%
G04 APERTURE END LIST*
D10*
X25010110Y-5420360D02*
X4690110Y-5420360D01*
X25010110Y-15580360D02*
X25010110Y-5420360D01*
X4690110Y-15580360D02*
X25010110Y-15580360D01*
X4690110Y-5420360D02*
X4690110Y-15580360D01*
D11*
X4948387Y-15894344D02*
X4948387Y-15694344D01*
X4948387Y-15694344D02*
X4996006Y-15694344D01*
X4996006Y-15694344D02*
X5024577Y-15703868D01*
X5024577Y-15703868D02*
X5043625Y-15722915D01*
X5043625Y-15722915D02*
X5053149Y-15741963D01*
X5053149Y-15741963D02*
X5062673Y-15780058D01*
X5062673Y-15780058D02*
X5062673Y-15808629D01*
X5062673Y-15808629D02*
X5053149Y-15846725D01*
X5053149Y-15846725D02*
X5043625Y-15865772D01*
X5043625Y-15865772D02*
X5024577Y-15884820D01*
X5024577Y-15884820D02*
X4996006Y-15894344D01*
X4996006Y-15894344D02*
X4948387Y-15894344D01*
X5148387Y-15894344D02*
X5148387Y-15761010D01*
X5148387Y-15799106D02*
X5157911Y-15780058D01*
X5157911Y-15780058D02*
X5167434Y-15770534D01*
X5167434Y-15770534D02*
X5186482Y-15761010D01*
X5186482Y-15761010D02*
X5205530Y-15761010D01*
X5272196Y-15894344D02*
X5272196Y-15761010D01*
X5272196Y-15694344D02*
X5262673Y-15703868D01*
X5262673Y-15703868D02*
X5272196Y-15713391D01*
X5272196Y-15713391D02*
X5281720Y-15703868D01*
X5281720Y-15703868D02*
X5272196Y-15694344D01*
X5272196Y-15694344D02*
X5272196Y-15713391D01*
X5396006Y-15894344D02*
X5376958Y-15884820D01*
X5376958Y-15884820D02*
X5367434Y-15865772D01*
X5367434Y-15865772D02*
X5367434Y-15694344D01*
X5500768Y-15894344D02*
X5481720Y-15884820D01*
X5481720Y-15884820D02*
X5472196Y-15865772D01*
X5472196Y-15865772D02*
X5472196Y-15694344D01*
X5729339Y-15894344D02*
X5729339Y-15694344D01*
X5729339Y-15694344D02*
X5796006Y-15837201D01*
X5796006Y-15837201D02*
X5862672Y-15694344D01*
X5862672Y-15694344D02*
X5862672Y-15894344D01*
X6043625Y-15894344D02*
X6043625Y-15789582D01*
X6043625Y-15789582D02*
X6034101Y-15770534D01*
X6034101Y-15770534D02*
X6015053Y-15761010D01*
X6015053Y-15761010D02*
X5976958Y-15761010D01*
X5976958Y-15761010D02*
X5957911Y-15770534D01*
X6043625Y-15884820D02*
X6024577Y-15894344D01*
X6024577Y-15894344D02*
X5976958Y-15894344D01*
X5976958Y-15894344D02*
X5957911Y-15884820D01*
X5957911Y-15884820D02*
X5948387Y-15865772D01*
X5948387Y-15865772D02*
X5948387Y-15846725D01*
X5948387Y-15846725D02*
X5957911Y-15827677D01*
X5957911Y-15827677D02*
X5976958Y-15818153D01*
X5976958Y-15818153D02*
X6024577Y-15818153D01*
X6024577Y-15818153D02*
X6043625Y-15808629D01*
X6138863Y-15761010D02*
X6138863Y-15961010D01*
X6138863Y-15770534D02*
X6157911Y-15761010D01*
X6157911Y-15761010D02*
X6196006Y-15761010D01*
X6196006Y-15761010D02*
X6215053Y-15770534D01*
X6215053Y-15770534D02*
X6224577Y-15780058D01*
X6224577Y-15780058D02*
X6234101Y-15799106D01*
X6234101Y-15799106D02*
X6234101Y-15856248D01*
X6234101Y-15856248D02*
X6224577Y-15875296D01*
X6224577Y-15875296D02*
X6215053Y-15884820D01*
X6215053Y-15884820D02*
X6196006Y-15894344D01*
X6196006Y-15894344D02*
X6157911Y-15894344D01*
X6157911Y-15894344D02*
X6138863Y-15884820D01*
X6319815Y-15875296D02*
X6329339Y-15884820D01*
X6329339Y-15884820D02*
X6319815Y-15894344D01*
X6319815Y-15894344D02*
X6310292Y-15884820D01*
X6310292Y-15884820D02*
X6319815Y-15875296D01*
X6319815Y-15875296D02*
X6319815Y-15894344D01*
X6319815Y-15770534D02*
X6329339Y-15780058D01*
X6329339Y-15780058D02*
X6319815Y-15789582D01*
X6319815Y-15789582D02*
X6310292Y-15780058D01*
X6310292Y-15780058D02*
X6319815Y-15770534D01*
X6319815Y-15770534D02*
X6319815Y-15789582D01*
M02*
